<svg viewBox="0 0 249 120" fill="none" xmlns="http://www.w3.org/2000/svg">
<path fill-rule="evenodd" clip-rule="evenodd" d="M128.716 16.5488L161.881 98.3195H130.177L125.222 95.8369L124.838 98.3195H95.5518L128.716 16.5488ZM125.415 40.7772L128.274 44.4115H122.556L125.415 40.7772ZM126.302 25.7367L128.141 27.4492L129.726 25.535L126.302 25.7367ZM117.492 63.7942L120.351 67.4284H114.633L117.492 63.7942ZM139.015 74.0912L137.299 72.2741L135.584 74.0912H139.015ZM146.154 87.9688L145.098 85.7686L148.377 86.6961L146.154 87.9688ZM108.148 86.9879L112.335 90.4426L116.144 86.6371L108.148 86.9879ZM139.199 54.2286L135.779 60.0041L132.08 53.4914L139.199 54.2286Z" fill="white"/>
<path d="M219.969 95.3018L224.668 97.6895L219.217 100.234L219.969 95.3018Z" fill="white"/>
<path fill-rule="evenodd" clip-rule="evenodd" d="M219.168 31.5919L189.691 105.298H248.644L219.168 31.5919ZM219.168 34.2752L191.166 104.295H247.169L219.168 34.2752Z" fill="white"/>
<path d="M216.233 53.4309L218.774 56.7067H213.692L216.233 53.4309Z" fill="white"/>
<path d="M218.656 41.4172L217.022 39.8735L220.065 39.6917L218.656 41.4172Z" fill="white"/>
<path d="M209.191 74.1777L211.732 77.4536H206.65L209.191 74.1777Z" fill="white"/>
<path d="M226.796 81.8213L228.321 83.4592H225.271L226.796 81.8213Z" fill="white"/>
<path d="M234.667 95.9682L233.729 93.985L236.643 94.8211L234.667 95.9682Z" fill="white"/>
<path d="M204.61 98.1981L200.888 95.0841L207.995 94.7679L204.61 98.1981Z" fill="white"/>
<path d="M214.041 89.9235L209.149 85.8296L218.492 85.414L214.041 89.9235Z" fill="white"/>
<path d="M228.485 65.5558L225.445 70.7617L222.157 64.8913L228.485 65.5558Z" fill="white"/>
<path fill-rule="evenodd" clip-rule="evenodd" d="M173.616 50.6465L149.109 99.7248H198.123L173.616 50.6465ZM173.616 55.1092L152.339 97.719H194.893L173.616 55.1092Z" fill="white"/>
<path d="M152.741 93.6483H194.492V95.518H152.741V93.6483Z" fill="white"/>
<path d="M152.741 93.6483H194.492V95.518H152.741V93.6483Z" fill="white"/>
<path d="M152.741 93.6483H194.492V95.518H152.741V93.6483Z" fill="white"/>
<path d="M152.741 93.6483H194.492V95.518H152.741V93.6483Z" fill="white"/>
<path d="M154.597 88.9742H192.636V90.8439H154.597V88.9742Z" fill="white"/>
<path d="M154.597 88.9742H192.636V90.8439H154.597V88.9742Z" fill="white"/>
<path d="M154.597 88.9742H192.636V90.8439H154.597V88.9742Z" fill="white"/>
<path d="M154.597 88.9742H192.636V90.8439H154.597V88.9742Z" fill="white"/>
<path d="M157.38 84.3002H189.853V86.1698H157.38V84.3002Z" fill="white"/>
<path d="M157.38 84.3002H189.853V86.1698H157.38V84.3002Z" fill="white"/>
<path d="M157.38 84.3002H189.853V86.1698H157.38V84.3002Z" fill="white"/>
<path d="M157.38 84.3002H189.853V86.1698H157.38V84.3002Z" fill="white"/>
<path d="M159.235 79.6261H187.997V81.4957H159.235V79.6261Z" fill="white"/>
<path d="M159.235 79.6261H187.997V81.4957H159.235V79.6261Z" fill="white"/>
<path d="M159.235 79.6261H187.997V81.4957H159.235V79.6261Z" fill="white"/>
<path d="M159.235 79.6261H187.997V81.4957H159.235V79.6261Z" fill="white"/>
<path d="M162.019 74.952H185.213V76.8217H162.019V74.952Z" fill="white"/>
<path d="M162.019 74.952H185.213V76.8217H162.019V74.952Z" fill="white"/>
<path d="M162.019 74.952H185.213V76.8217H162.019V74.952Z" fill="white"/>
<path d="M162.019 74.952H185.213V76.8217H162.019V74.952Z" fill="white"/>
<path d="M164.803 70.2777H183.359V72.1474H164.803V70.2777Z" fill="white"/>
<path d="M164.803 70.2777H183.359V72.1474H164.803V70.2777Z" fill="white"/>
<path d="M164.803 70.2777H183.359V72.1474H164.803V70.2777Z" fill="white"/>
<path d="M164.803 70.2777H183.359V72.1474H164.803V70.2777Z" fill="white"/>
<path d="M166.657 65.6036H180.574V67.4733H166.657V65.6036Z" fill="white"/>
<path d="M166.657 65.6036H180.574V67.4733H166.657V65.6036Z" fill="white"/>
<path d="M166.657 65.6036H180.574V67.4733H166.657V65.6036Z" fill="white"/>
<path d="M166.657 65.6036H180.574V67.4733H166.657V65.6036Z" fill="white"/>
<path d="M168.513 60.9296H178.718V62.7992H168.513V60.9296Z" fill="white"/>
<path d="M168.513 60.9296H178.718V62.7992H168.513V60.9296Z" fill="white"/>
<path d="M168.513 60.9296H178.718V62.7992H168.513V60.9296Z" fill="white"/>
<path d="M168.513 60.9296H178.718V62.7992H168.513V60.9296Z" fill="white"/>
<path d="M112.848 97.3838C112.848 98.2791 64.4076 97.3839 56.7538 97.3839C49.1 97.3839 0 98.2791 0 97.3838C0 96.4886 49.1 95.255 56.7538 95.255C64.4076 95.255 112.848 96.4886 112.848 97.3838Z" fill="white"/>
<path d="M112.848 97.3838C112.848 98.2791 64.4076 97.3839 56.7538 97.3839C49.1 97.3839 0 98.2791 0 97.3838C0 96.4886 49.1 95.255 56.7538 95.255C64.4076 95.255 112.848 96.4886 112.848 97.3838Z" fill="white"/>
<path d="M112.848 97.3838C112.848 98.2791 64.4076 97.3839 56.7538 97.3839C49.1 97.3839 0 98.2791 0 97.3838C0 96.4886 49.1 95.255 56.7538 95.255C64.4076 95.255 112.848 96.4886 112.848 97.3838Z" fill="white"/>
<path d="M112.848 97.3838C112.848 98.2791 64.4076 97.3839 56.7538 97.3839C49.1 97.3839 0 98.2791 0 97.3838C0 96.4886 49.1 95.255 56.7538 95.255C64.4076 95.255 112.848 96.4886 112.848 97.3838Z" fill="white"/>
<path d="M109.086 91.067C109.086 91.9622 63.8755 91.067 56.7319 91.067C49.5883 91.067 3.76172 91.9622 3.76172 91.067C3.76172 90.1717 49.5883 88.9381 56.7319 88.9381C63.8755 88.9381 109.086 90.1717 109.086 91.067Z" fill="white"/>
<path d="M109.086 91.067C109.086 91.9622 63.8755 91.067 56.7319 91.067C49.5883 91.067 3.76172 91.9622 3.76172 91.067C3.76172 90.1717 49.5883 88.9381 56.7319 88.9381C63.8755 88.9381 109.086 90.1717 109.086 91.067Z" fill="white"/>
<path d="M109.086 91.067C109.086 91.9622 63.8755 91.067 56.7319 91.067C49.5883 91.067 3.76172 91.9622 3.76172 91.067C3.76172 90.1717 49.5883 88.9381 56.7319 88.9381C63.8755 88.9381 109.086 90.1717 109.086 91.067Z" fill="white"/>
<path d="M109.086 91.067C109.086 91.9622 63.8755 91.067 56.7319 91.067C49.5883 91.067 3.76172 91.9622 3.76172 91.067C3.76172 90.1717 49.5883 88.9381 56.7319 88.9381C63.8755 88.9381 109.086 90.1717 109.086 91.067Z" fill="white"/>
<path d="M105.325 84.7502C105.325 85.6454 63.3434 84.7502 56.7101 84.7502C50.0767 84.7502 7.52344 85.6454 7.52344 84.7502C7.52344 83.855 50.0767 82.6213 56.7101 82.6213C63.3434 82.6213 105.325 83.855 105.325 84.7502Z" fill="white"/>
<path d="M105.325 84.7502C105.325 85.6454 63.3434 84.7502 56.7101 84.7502C50.0767 84.7502 7.52344 85.6454 7.52344 84.7502C7.52344 83.855 50.0767 82.6213 56.7101 82.6213C63.3434 82.6213 105.325 83.855 105.325 84.7502Z" fill="white"/>
<path d="M105.325 84.7502C105.325 85.6454 63.3434 84.7502 56.7101 84.7502C50.0767 84.7502 7.52344 85.6454 7.52344 84.7502C7.52344 83.855 50.0767 82.6213 56.7101 82.6213C63.3434 82.6213 105.325 83.855 105.325 84.7502Z" fill="white"/>
<path d="M105.325 84.7502C105.325 85.6454 63.3434 84.7502 56.7101 84.7502C50.0767 84.7502 7.52344 85.6454 7.52344 84.7502C7.52344 83.855 50.0767 82.6213 56.7101 82.6213C63.3434 82.6213 105.325 83.855 105.325 84.7502Z" fill="white"/>
<path d="M101.563 78.4334C101.563 79.3286 62.8113 78.4334 56.6882 78.4334C50.5651 78.4334 11.2852 79.3286 11.2852 78.4334C11.2852 77.5382 50.5651 76.3046 56.6882 76.3046C62.8113 76.3046 101.563 77.5382 101.563 78.4334Z" fill="white"/>
<path d="M101.563 78.4334C101.563 79.3286 62.8113 78.4334 56.6882 78.4334C50.5651 78.4334 11.2852 79.3286 11.2852 78.4334C11.2852 77.5382 50.5651 76.3046 56.6882 76.3046C62.8113 76.3046 101.563 77.5382 101.563 78.4334Z" fill="white"/>
<path d="M101.563 78.4334C101.563 79.3286 62.8113 78.4334 56.6882 78.4334C50.5651 78.4334 11.2852 79.3286 11.2852 78.4334C11.2852 77.5382 50.5651 76.3046 56.6882 76.3046C62.8113 76.3046 101.563 77.5382 101.563 78.4334Z" fill="white"/>
<path d="M101.563 78.4334C101.563 79.3286 62.8113 78.4334 56.6882 78.4334C50.5651 78.4334 11.2852 79.3286 11.2852 78.4334C11.2852 77.5382 50.5651 76.3046 56.6882 76.3046C62.8113 76.3046 101.563 77.5382 101.563 78.4334Z" fill="white"/>
<path d="M97.8018 72.1166C97.8018 73.0118 62.2791 72.1167 56.6663 72.1167C51.0535 72.1167 15.0469 73.0118 15.0469 72.1166C15.0469 71.2214 51.0535 69.9878 56.6663 69.9878C62.2791 69.9878 97.8018 71.2214 97.8018 72.1166Z" fill="white"/>
<path d="M97.8018 72.1166C97.8018 73.0118 62.2791 72.1167 56.6663 72.1167C51.0535 72.1167 15.0469 73.0118 15.0469 72.1166C15.0469 71.2214 51.0535 69.9878 56.6663 69.9878C62.2791 69.9878 97.8018 71.2214 97.8018 72.1166Z" fill="white"/>
<path d="M97.8018 72.1166C97.8018 73.0118 62.2791 72.1167 56.6663 72.1167C51.0535 72.1167 15.0469 73.0118 15.0469 72.1166C15.0469 71.2214 51.0535 69.9878 56.6663 69.9878C62.2791 69.9878 97.8018 71.2214 97.8018 72.1166Z" fill="white"/>
<path d="M97.8018 72.1166C97.8018 73.0118 62.2791 72.1167 56.6663 72.1167C51.0535 72.1167 15.0469 73.0118 15.0469 72.1166C15.0469 71.2214 51.0535 69.9878 56.6663 69.9878C62.2791 69.9878 97.8018 71.2214 97.8018 72.1166Z" fill="white"/>
<path d="M94.0404 65.7997C94.0404 66.695 61.747 65.7998 56.6445 65.7998C51.5419 65.7998 18.8086 66.695 18.8086 65.7997C18.8086 64.9045 51.5419 63.6709 56.6445 63.6709C61.747 63.6709 94.0404 64.9045 94.0404 65.7997Z" fill="white"/>
<path d="M94.0404 65.7997C94.0404 66.695 61.747 65.7998 56.6445 65.7998C51.5419 65.7998 18.8086 66.695 18.8086 65.7997C18.8086 64.9045 51.5419 63.6709 56.6445 63.6709C61.747 63.6709 94.0404 64.9045 94.0404 65.7997Z" fill="white"/>
<path d="M94.0404 65.7997C94.0404 66.695 61.747 65.7998 56.6445 65.7998C51.5419 65.7998 18.8086 66.695 18.8086 65.7997C18.8086 64.9045 51.5419 63.6709 56.6445 63.6709C61.747 63.6709 94.0404 64.9045 94.0404 65.7997Z" fill="white"/>
<path d="M94.0404 65.7997C94.0404 66.695 61.747 65.7998 56.6445 65.7998C51.5419 65.7998 18.8086 66.695 18.8086 65.7997C18.8086 64.9045 51.5419 63.6709 56.6445 63.6709C61.747 63.6709 94.0404 64.9045 94.0404 65.7997Z" fill="white"/>
<path d="M90.2789 59.483C90.2789 60.3782 61.2149 59.483 56.6226 59.483C52.0303 59.483 22.5703 60.3782 22.5703 59.483C22.5703 58.5878 52.0303 57.3541 56.6226 57.3541C61.2149 57.3541 90.2789 58.5878 90.2789 59.483Z" fill="white"/>
<path d="M90.2789 59.483C90.2789 60.3782 61.2149 59.483 56.6226 59.483C52.0303 59.483 22.5703 60.3782 22.5703 59.483C22.5703 58.5878 52.0303 57.3541 56.6226 57.3541C61.2149 57.3541 90.2789 58.5878 90.2789 59.483Z" fill="white"/>
<path d="M90.2789 59.483C90.2789 60.3782 61.2149 59.483 56.6226 59.483C52.0303 59.483 22.5703 60.3782 22.5703 59.483C22.5703 58.5878 52.0303 57.3541 56.6226 57.3541C61.2149 57.3541 90.2789 58.5878 90.2789 59.483Z" fill="white"/>
<path d="M90.2789 59.483C90.2789 60.3782 61.2149 59.483 56.6226 59.483C52.0303 59.483 22.5703 60.3782 22.5703 59.483C22.5703 58.5878 52.0303 57.3541 56.6226 57.3541C61.2149 57.3541 90.2789 58.5878 90.2789 59.483Z" fill="white"/>
<path d="M86.5165 53.1662C86.5165 54.0614 60.6818 53.1662 56.5997 53.1662C52.5177 53.1662 26.3311 54.0614 26.3311 53.1662C26.3311 52.271 52.5177 51.0374 56.5997 51.0374C60.6818 51.0374 86.5165 52.271 86.5165 53.1662Z" fill="white"/>
<path d="M86.5165 53.1662C86.5165 54.0614 60.6818 53.1662 56.5997 53.1662C52.5177 53.1662 26.3311 54.0614 26.3311 53.1662C26.3311 52.271 52.5177 51.0374 56.5997 51.0374C60.6818 51.0374 86.5165 52.271 86.5165 53.1662Z" fill="white"/>
<path d="M86.5165 53.1662C86.5165 54.0614 60.6818 53.1662 56.5997 53.1662C52.5177 53.1662 26.3311 54.0614 26.3311 53.1662C26.3311 52.271 52.5177 51.0374 56.5997 51.0374C60.6818 51.0374 86.5165 52.271 86.5165 53.1662Z" fill="white"/>
<path d="M86.5165 53.1662C86.5165 54.0614 60.6818 53.1662 56.5997 53.1662C52.5177 53.1662 26.3311 54.0614 26.3311 53.1662C26.3311 52.271 52.5177 51.0374 56.5997 51.0374C60.6818 51.0374 86.5165 52.271 86.5165 53.1662Z" fill="white"/>
<path d="M82.754 46.8493C82.754 47.7445 60.1487 46.8493 56.5769 46.8493C53.0051 46.8493 30.0918 47.7445 30.0918 46.8493C30.0918 45.9541 53.0051 44.7205 56.5769 44.7205C60.1487 44.7205 82.754 45.9541 82.754 46.8493Z" fill="white"/>
<path d="M82.754 46.8493C82.754 47.7445 60.1487 46.8493 56.5769 46.8493C53.0051 46.8493 30.0918 47.7445 30.0918 46.8493C30.0918 45.9541 53.0051 44.7205 56.5769 44.7205C60.1487 44.7205 82.754 45.9541 82.754 46.8493Z" fill="white"/>
<path d="M82.754 46.8493C82.754 47.7445 60.1487 46.8493 56.5769 46.8493C53.0051 46.8493 30.0918 47.7445 30.0918 46.8493C30.0918 45.9541 53.0051 44.7205 56.5769 44.7205C60.1487 44.7205 82.754 45.9541 82.754 46.8493Z" fill="white"/>
<path d="M82.754 46.8493C82.754 47.7445 60.1487 46.8493 56.5769 46.8493C53.0051 46.8493 30.0918 47.7445 30.0918 46.8493C30.0918 45.9541 53.0051 44.7205 56.5769 44.7205C60.1487 44.7205 82.754 45.9541 82.754 46.8493Z" fill="white"/>
<path d="M78.9926 40.5327C78.9926 41.4279 59.6166 40.5327 56.555 40.5327C53.4935 40.5327 33.8535 41.4279 33.8535 40.5327C33.8535 39.6374 53.4935 38.4038 56.555 38.4038C59.6166 38.4038 78.9926 39.6374 78.9926 40.5327Z" fill="white"/>
<path d="M78.9926 40.5327C78.9926 41.4279 59.6166 40.5327 56.555 40.5327C53.4935 40.5327 33.8535 41.4279 33.8535 40.5327C33.8535 39.6374 53.4935 38.4038 56.555 38.4038C59.6166 38.4038 78.9926 39.6374 78.9926 40.5327Z" fill="white"/>
<path d="M78.9926 40.5327C78.9926 41.4279 59.6166 40.5327 56.555 40.5327C53.4935 40.5327 33.8535 41.4279 33.8535 40.5327C33.8535 39.6374 53.4935 38.4038 56.555 38.4038C59.6166 38.4038 78.9926 39.6374 78.9926 40.5327Z" fill="white"/>
<path d="M78.9926 40.5327C78.9926 41.4279 59.6166 40.5327 56.555 40.5327C53.4935 40.5327 33.8535 41.4279 33.8535 40.5327C33.8535 39.6374 53.4935 38.4038 56.555 38.4038C59.6166 38.4038 78.9926 39.6374 78.9926 40.5327Z" fill="white"/>
<path d="M76.4859 34.2158C76.4859 35.111 59.2628 34.2158 56.5414 34.2158C53.8201 34.2158 36.3623 35.111 36.3623 34.2158C36.3623 33.3205 53.8201 32.0869 56.5414 32.0869C59.2628 32.0869 76.4859 33.3205 76.4859 34.2158Z" fill="white"/>
<path d="M76.4859 34.2158C76.4859 35.111 59.2628 34.2158 56.5414 34.2158C53.8201 34.2158 36.3623 35.111 36.3623 34.2158C36.3623 33.3205 53.8201 32.0869 56.5414 32.0869C59.2628 32.0869 76.4859 33.3205 76.4859 34.2158Z" fill="white"/>
<path d="M76.4859 34.2158C76.4859 35.111 59.2628 34.2158 56.5414 34.2158C53.8201 34.2158 36.3623 35.111 36.3623 34.2158C36.3623 33.3205 53.8201 32.0869 56.5414 32.0869C59.2628 32.0869 76.4859 33.3205 76.4859 34.2158Z" fill="white"/>
<path d="M76.4859 34.2158C76.4859 35.111 59.2628 34.2158 56.5414 34.2158C53.8201 34.2158 36.3623 35.111 36.3623 34.2158C36.3623 33.3205 53.8201 32.0869 56.5414 32.0869C59.2628 32.0869 76.4859 33.3205 76.4859 34.2158Z" fill="white"/>
<path d="M72.7245 27.899C72.7245 28.7942 58.7307 27.899 56.5196 27.899C54.3085 27.899 40.124 28.7942 40.124 27.899C40.124 27.0038 54.3085 25.7701 56.5196 25.7701C58.7307 25.7701 72.7245 27.0038 72.7245 27.899Z" fill="white"/>
<path d="M72.7245 27.899C72.7245 28.7942 58.7307 27.899 56.5196 27.899C54.3085 27.899 40.124 28.7942 40.124 27.899C40.124 27.0038 54.3085 25.7701 56.5196 25.7701C58.7307 25.7701 72.7245 27.0038 72.7245 27.899Z" fill="white"/>
<path d="M72.7245 27.899C72.7245 28.7942 58.7307 27.899 56.5196 27.899C54.3085 27.899 40.124 28.7942 40.124 27.899C40.124 27.0038 54.3085 25.7701 56.5196 25.7701C58.7307 25.7701 72.7245 27.0038 72.7245 27.899Z" fill="white"/>
<path d="M72.7245 27.899C72.7245 28.7942 58.7307 27.899 56.5196 27.899C54.3085 27.899 40.124 28.7942 40.124 27.899C40.124 27.0038 54.3085 25.7701 56.5196 25.7701C58.7307 25.7701 72.7245 27.0038 72.7245 27.899Z" fill="white"/>
<path d="M68.963 21.5822C68.963 22.4774 58.1985 21.5822 56.4977 21.5822C54.7968 21.5822 43.8857 22.4774 43.8857 21.5822C43.8857 20.687 54.7968 19.4534 56.4977 19.4534C58.1985 19.4534 68.963 20.687 68.963 21.5822Z" fill="white"/>
<path d="M68.963 21.5822C68.963 22.4774 58.1985 21.5822 56.4977 21.5822C54.7968 21.5822 43.8857 22.4774 43.8857 21.5822C43.8857 20.687 54.7968 19.4534 56.4977 19.4534C58.1985 19.4534 68.963 20.687 68.963 21.5822Z" fill="white"/>
<path d="M68.963 21.5822C68.963 22.4774 58.1985 21.5822 56.4977 21.5822C54.7968 21.5822 43.8857 22.4774 43.8857 21.5822C43.8857 20.687 54.7968 19.4534 56.4977 19.4534C58.1985 19.4534 68.963 20.687 68.963 21.5822Z" fill="white"/>
<path d="M68.963 21.5822C68.963 22.4774 58.1985 21.5822 56.4977 21.5822C54.7968 21.5822 43.8857 22.4774 43.8857 21.5822C43.8857 20.687 54.7968 19.4534 56.4977 19.4534C58.1985 19.4534 68.963 20.687 68.963 21.5822Z" fill="white"/>
<path d="M65.2006 15.2654C65.2006 16.1607 57.6654 15.2655 56.4749 15.2655C55.2843 15.2655 47.6465 16.1607 47.6465 15.2654C47.6465 14.3702 55.2843 13.1366 56.4749 13.1366C57.6654 13.1366 65.2006 14.3702 65.2006 15.2654Z" fill="white"/>
<path d="M65.2006 15.2654C65.2006 16.1607 57.6654 15.2655 56.4749 15.2655C55.2843 15.2655 47.6465 16.1607 47.6465 15.2654C47.6465 14.3702 55.2843 13.1366 56.4749 13.1366C57.6654 13.1366 65.2006 14.3702 65.2006 15.2654Z" fill="white"/>
<path d="M65.2006 15.2654C65.2006 16.1607 57.6654 15.2655 56.4749 15.2655C55.2843 15.2655 47.6465 16.1607 47.6465 15.2654C47.6465 14.3702 55.2843 13.1366 56.4749 13.1366C57.6654 13.1366 65.2006 14.3702 65.2006 15.2654Z" fill="white"/>
<path d="M65.2006 15.2654C65.2006 16.1607 57.6654 15.2655 56.4749 15.2655C55.2843 15.2655 47.6465 16.1607 47.6465 15.2654C47.6465 14.3702 55.2843 13.1366 56.4749 13.1366C57.6654 13.1366 65.2006 14.3702 65.2006 15.2654Z" fill="white"/>
<path d="M61.4391 8.94855C61.4391 9.84376 57.1333 8.94857 56.453 8.94857C55.7726 8.94857 51.4082 9.84376 51.4082 8.94855C51.4082 8.05334 55.7726 6.8197 56.453 6.8197C57.1333 6.8197 61.4391 8.05334 61.4391 8.94855Z" fill="white"/>
<path d="M61.4391 8.94855C61.4391 9.84376 57.1333 8.94857 56.453 8.94857C55.7726 8.94857 51.4082 9.84376 51.4082 8.94855C51.4082 8.05334 55.7726 6.8197 56.453 6.8197C57.1333 6.8197 61.4391 8.05334 61.4391 8.94855Z" fill="white"/>
<path d="M61.4391 8.94855C61.4391 9.84376 57.1333 8.94857 56.453 8.94857C55.7726 8.94857 51.4082 9.84376 51.4082 8.94855C51.4082 8.05334 55.7726 6.8197 56.453 6.8197C57.1333 6.8197 61.4391 8.05334 61.4391 8.94855Z" fill="white"/>
<path d="M61.4391 8.94855C61.4391 9.84376 57.1333 8.94857 56.453 8.94857C55.7726 8.94857 51.4082 9.84376 51.4082 8.94855C51.4082 8.05334 55.7726 6.8197 56.453 6.8197C57.1333 6.8197 61.4391 8.05334 61.4391 8.94855Z" fill="white"/>
<path d="M58.9324 2.63177C58.9324 3.52698 56.7796 2.63179 56.4394 2.63179C56.0992 2.63179 53.917 3.52698 53.917 2.63177C53.917 1.73656 56.0992 0.50293 56.4394 0.50293C56.7796 0.50293 58.9324 1.73656 58.9324 2.63177Z" fill="white"/>
<path d="M58.9324 2.63177C58.9324 3.52698 56.7796 2.63179 56.4394 2.63179C56.0992 2.63179 53.917 3.52698 53.917 2.63177C53.917 1.73656 56.0992 0.50293 56.4394 0.50293C56.7796 0.50293 58.9324 1.73656 58.9324 2.63177Z" fill="white"/>
<path d="M58.9324 2.63177C58.9324 3.52698 56.7796 2.63179 56.4394 2.63179C56.0992 2.63179 53.917 3.52698 53.917 2.63177C53.917 1.73656 56.0992 0.50293 56.4394 0.50293C56.7796 0.50293 58.9324 1.73656 58.9324 2.63177Z" fill="white"/>
<path d="M58.9324 2.63177C58.9324 3.52698 56.7796 2.63179 56.4394 2.63179C56.0992 2.63179 53.917 3.52698 53.917 2.63177C53.917 1.73656 56.0992 0.50293 56.4394 0.50293C56.7796 0.50293 58.9324 1.73656 58.9324 2.63177Z" fill="white"/>
<path d="M67.6822 33.5977L96.9897 98.283H38.3747L67.6822 33.5977Z" fill="#0C2B63"/>
<path d="M67.6823 52.1508C67.6823 52.7047 67.0139 53.1537 66.1893 53.1537C65.3647 53.1537 64.6963 52.7047 64.6963 52.1508C64.6963 51.5969 65.8624 50.6465 66.687 50.6465C67.5115 50.6465 67.6823 51.5969 67.6823 52.1508Z" fill="white"/>
<path d="M67.6823 52.1508C67.6823 52.7047 67.0139 53.1537 66.1893 53.1537C65.3647 53.1537 64.6963 52.7047 64.6963 52.1508C64.6963 51.5969 65.8624 50.6465 66.687 50.6465C67.5115 50.6465 67.6823 51.5969 67.6823 52.1508Z" fill="white"/>
<path d="M67.6823 52.1508C67.6823 52.7047 67.0139 53.1537 66.1893 53.1537C65.3647 53.1537 64.6963 52.7047 64.6963 52.1508C64.6963 51.5969 65.8624 50.6465 66.687 50.6465C67.5115 50.6465 67.6823 51.5969 67.6823 52.1508Z" fill="white"/>
<path d="M67.6823 52.1508C67.6823 52.7047 67.0139 53.1537 66.1893 53.1537C65.3647 53.1537 64.6963 52.7047 64.6963 52.1508C64.6963 51.5969 65.8624 50.6465 66.687 50.6465C67.5115 50.6465 67.6823 51.5969 67.6823 52.1508Z" fill="white"/>
<path d="M79.6266 66.1911C79.6266 66.7449 78.9582 67.194 78.1336 67.194C77.3091 67.194 76.6406 66.7449 76.6406 66.1911C76.6406 65.6372 77.8067 64.6868 78.6313 64.6868C79.4559 64.6868 79.6266 65.6372 79.6266 66.1911Z" fill="white"/>
<path d="M79.6266 66.1911C79.6266 66.7449 78.9582 67.194 78.1336 67.194C77.3091 67.194 76.6406 66.7449 76.6406 66.1911C76.6406 65.6372 77.8067 64.6868 78.6313 64.6868C79.4559 64.6868 79.6266 65.6372 79.6266 66.1911Z" fill="white"/>
<path d="M79.6266 66.1911C79.6266 66.7449 78.9582 67.194 78.1336 67.194C77.3091 67.194 76.6406 66.7449 76.6406 66.1911C76.6406 65.6372 77.8067 64.6868 78.6313 64.6868C79.4559 64.6868 79.6266 65.6372 79.6266 66.1911Z" fill="white"/>
<path d="M79.6266 66.1911C79.6266 66.7449 78.9582 67.194 78.1336 67.194C77.3091 67.194 76.6406 66.7449 76.6406 66.1911C76.6406 65.6372 77.8067 64.6868 78.6313 64.6868C79.4559 64.6868 79.6266 65.6372 79.6266 66.1911Z" fill="white"/>
<path d="M69.6735 76.2198C69.6735 76.7736 69.0051 77.2226 68.1805 77.2226C67.3559 77.2226 66.6875 76.7736 66.6875 76.2198C66.6875 75.6659 67.8536 74.7155 68.6782 74.7155C69.5027 74.7155 69.6735 75.6659 69.6735 76.2198Z" fill="white"/>
<path d="M69.6735 76.2198C69.6735 76.7736 69.0051 77.2226 68.1805 77.2226C67.3559 77.2226 66.6875 76.7736 66.6875 76.2198C66.6875 75.6659 67.8536 74.7155 68.6782 74.7155C69.5027 74.7155 69.6735 75.6659 69.6735 76.2198Z" fill="white"/>
<path d="M69.6735 76.2198C69.6735 76.7736 69.0051 77.2226 68.1805 77.2226C67.3559 77.2226 66.6875 76.7736 66.6875 76.2198C66.6875 75.6659 67.8536 74.7155 68.6782 74.7155C69.5027 74.7155 69.6735 75.6659 69.6735 76.2198Z" fill="white"/>
<path d="M69.6735 76.2198C69.6735 76.7736 69.0051 77.2226 68.1805 77.2226C67.3559 77.2226 66.6875 76.7736 66.6875 76.2198C66.6875 75.6659 67.8536 74.7155 68.6782 74.7155C69.5027 74.7155 69.6735 75.6659 69.6735 76.2198Z" fill="white"/>
<path d="M51.7575 84.2427C51.7575 84.7966 51.089 85.2456 50.2645 85.2456C49.4399 85.2456 48.7715 84.7966 48.7715 84.2427C48.7715 83.6888 49.9376 82.7384 50.7622 82.7384C51.5867 82.7384 51.7575 83.6888 51.7575 84.2427Z" fill="white"/>
<path d="M51.7575 84.2427C51.7575 84.7966 51.089 85.2456 50.2645 85.2456C49.4399 85.2456 48.7715 84.7966 48.7715 84.2427C48.7715 83.6888 49.9376 82.7384 50.7622 82.7384C51.5867 82.7384 51.7575 83.6888 51.7575 84.2427Z" fill="white"/>
<path d="M51.7575 84.2427C51.7575 84.7966 51.089 85.2456 50.2645 85.2456C49.4399 85.2456 48.7715 84.7966 48.7715 84.2427C48.7715 83.6888 49.9376 82.7384 50.7622 82.7384C51.5867 82.7384 51.7575 83.6888 51.7575 84.2427Z" fill="white"/>
<path d="M51.7575 84.2427C51.7575 84.7966 51.089 85.2456 50.2645 85.2456C49.4399 85.2456 48.7715 84.7966 48.7715 84.2427C48.7715 83.6888 49.9376 82.7384 50.7622 82.7384C51.5867 82.7384 51.7575 83.6888 51.7575 84.2427Z" fill="white"/>
<path d="M75.6462 95.2743C75.6462 95.8282 74.9777 96.2772 74.1532 96.2772C73.3286 96.2772 72.6602 95.8282 72.6602 95.2743C72.6602 94.7205 73.8263 93.77 74.6508 93.77C75.4754 93.77 75.6462 94.7205 75.6462 95.2743Z" fill="white"/>
<path d="M75.6462 95.2743C75.6462 95.8282 74.9777 96.2772 74.1532 96.2772C73.3286 96.2772 72.6602 95.8282 72.6602 95.2743C72.6602 94.7205 73.8263 93.77 74.6508 93.77C75.4754 93.77 75.6462 94.7205 75.6462 95.2743Z" fill="white"/>
<path d="M75.6462 95.2743C75.6462 95.8282 74.9777 96.2772 74.1532 96.2772C73.3286 96.2772 72.6602 95.8282 72.6602 95.2743C72.6602 94.7205 73.8263 93.77 74.6508 93.77C75.4754 93.77 75.6462 94.7205 75.6462 95.2743Z" fill="white"/>
<path d="M75.6462 95.2743C75.6462 95.8282 74.9777 96.2772 74.1532 96.2772C73.3286 96.2772 72.6602 95.8282 72.6602 95.2743C72.6602 94.7205 73.8263 93.77 74.6508 93.77C75.4754 93.77 75.6462 94.7205 75.6462 95.2743Z" fill="white"/>
<path d="M61.7114 57.466C61.7114 57.0229 61.2657 56.6637 60.716 56.6637C60.1663 56.6637 59.7207 57.0229 59.7207 57.466C59.7207 57.9091 60.4981 58.6694 61.0478 58.6694C61.5975 58.6694 61.7114 57.9091 61.7114 57.466Z" fill="white"/>
<path d="M61.7114 57.466C61.7114 57.0229 61.2657 56.6637 60.716 56.6637C60.1663 56.6637 59.7207 57.0229 59.7207 57.466C59.7207 57.9091 60.4981 58.6694 61.0478 58.6694C61.5975 58.6694 61.7114 57.9091 61.7114 57.466Z" fill="white"/>
<path d="M61.7114 57.466C61.7114 57.0229 61.2657 56.6637 60.716 56.6637C60.1663 56.6637 59.7207 57.0229 59.7207 57.466C59.7207 57.9091 60.4981 58.6694 61.0478 58.6694C61.5975 58.6694 61.7114 57.9091 61.7114 57.466Z" fill="white"/>
<path d="M61.7114 57.466C61.7114 57.0229 61.2657 56.6637 60.716 56.6637C60.1663 56.6637 59.7207 57.0229 59.7207 57.466C59.7207 57.9091 60.4981 58.6694 61.0478 58.6694C61.5975 58.6694 61.7114 57.9091 61.7114 57.466Z" fill="white"/>
<path d="M60.716 67.0936C60.716 66.872 60.4932 66.6924 60.2184 66.6924C59.9435 66.6924 59.7207 66.872 59.7207 67.0936C59.7207 67.3151 60.1094 67.6953 60.3843 67.6953C60.6591 67.6953 60.716 67.3151 60.716 67.0936Z" fill="white"/>
<path d="M60.716 67.0936C60.716 66.872 60.4932 66.6924 60.2184 66.6924C59.9435 66.6924 59.7207 66.872 59.7207 67.0936C59.7207 67.3151 60.1094 67.6953 60.3843 67.6953C60.6591 67.6953 60.716 67.3151 60.716 67.0936Z" fill="white"/>
<path d="M60.716 67.0936C60.716 66.872 60.4932 66.6924 60.2184 66.6924C59.9435 66.6924 59.7207 66.872 59.7207 67.0936C59.7207 67.3151 60.1094 67.6953 60.3843 67.6953C60.6591 67.6953 60.716 67.3151 60.716 67.0936Z" fill="white"/>
<path d="M60.716 67.0936C60.716 66.872 60.4932 66.6924 60.2184 66.6924C59.9435 66.6924 59.7207 66.872 59.7207 67.0936C59.7207 67.3151 60.1094 67.6953 60.3843 67.6953C60.6591 67.6953 60.716 67.3151 60.716 67.0936Z" fill="white"/>
<path d="M72.6594 56.062C72.6594 55.8404 72.4366 55.6608 72.1617 55.6608C71.8869 55.6608 71.6641 55.8404 71.6641 56.062C71.6641 56.2835 72.0528 56.6637 72.3276 56.6637C72.6025 56.6637 72.6594 56.2835 72.6594 56.062Z" fill="white"/>
<path d="M72.6594 56.062C72.6594 55.8404 72.4366 55.6608 72.1617 55.6608C71.8869 55.6608 71.6641 55.8404 71.6641 56.062C71.6641 56.2835 72.0528 56.6637 72.3276 56.6637C72.6025 56.6637 72.6594 56.2835 72.6594 56.062Z" fill="white"/>
<path d="M72.6594 56.062C72.6594 55.8404 72.4366 55.6608 72.1617 55.6608C71.8869 55.6608 71.6641 55.8404 71.6641 56.062C71.6641 56.2835 72.0528 56.6637 72.3276 56.6637C72.6025 56.6637 72.6594 56.2835 72.6594 56.062Z" fill="white"/>
<path d="M72.6594 56.062C72.6594 55.8404 72.4366 55.6608 72.1617 55.6608C71.8869 55.6608 71.6641 55.8404 71.6641 56.062C71.6641 56.2835 72.0528 56.6637 72.3276 56.6637C72.6025 56.6637 72.6594 56.2835 72.6594 56.062Z" fill="white"/>
<path d="M84.6037 83.1396C84.6037 82.9181 84.3809 82.7385 84.1061 82.7385C83.8312 82.7385 83.6084 82.9181 83.6084 83.1396C83.6084 83.3612 83.9971 83.7413 84.272 83.7413C84.5468 83.7413 84.6037 83.3612 84.6037 83.1396Z" fill="white"/>
<path d="M84.6037 83.1396C84.6037 82.9181 84.3809 82.7385 84.1061 82.7385C83.8312 82.7385 83.6084 82.9181 83.6084 83.1396C83.6084 83.3612 83.9971 83.7413 84.272 83.7413C84.5468 83.7413 84.6037 83.3612 84.6037 83.1396Z" fill="white"/>
<path d="M84.6037 83.1396C84.6037 82.9181 84.3809 82.7385 84.1061 82.7385C83.8312 82.7385 83.6084 82.9181 83.6084 83.1396C83.6084 83.3612 83.9971 83.7413 84.272 83.7413C84.5468 83.7413 84.6037 83.3612 84.6037 83.1396Z" fill="white"/>
<path d="M84.6037 83.1396C84.6037 82.9181 84.3809 82.7385 84.1061 82.7385C83.8312 82.7385 83.6084 82.9181 83.6084 83.1396C83.6084 83.3612 83.9971 83.7413 84.272 83.7413C84.5468 83.7413 84.6037 83.3612 84.6037 83.1396Z" fill="white"/>
<path d="M66.6877 44.0275C66.6877 43.806 66.4649 43.6264 66.1901 43.6264C65.9152 43.6264 65.6924 43.806 65.6924 44.0275C65.6924 44.2491 66.0811 44.6293 66.3559 44.6293C66.6308 44.6293 66.6877 44.2491 66.6877 44.0275Z" fill="white"/>
<path d="M66.6877 44.0275C66.6877 43.806 66.4649 43.6264 66.1901 43.6264C65.9152 43.6264 65.6924 43.806 65.6924 44.0275C65.6924 44.2491 66.0811 44.6293 66.3559 44.6293C66.6308 44.6293 66.6877 44.2491 66.6877 44.0275Z" fill="white"/>
<path d="M66.6877 44.0275C66.6877 43.806 66.4649 43.6264 66.1901 43.6264C65.9152 43.6264 65.6924 43.806 65.6924 44.0275C65.6924 44.2491 66.0811 44.6293 66.3559 44.6293C66.6308 44.6293 66.6877 44.2491 66.6877 44.0275Z" fill="white"/>
<path d="M66.6877 44.0275C66.6877 43.806 66.4649 43.6264 66.1901 43.6264C65.9152 43.6264 65.6924 43.806 65.6924 44.0275C65.6924 44.2491 66.0811 44.6293 66.3559 44.6293C66.6308 44.6293 66.6877 44.2491 66.6877 44.0275Z" fill="white"/>
<path d="M73.6555 50.0448C73.6555 49.8232 73.4327 49.6436 73.1578 49.6436C72.883 49.6436 72.6602 49.8232 72.6602 50.0448C72.6602 50.2663 73.0489 50.6465 73.3237 50.6465C73.5986 50.6465 73.6555 50.2663 73.6555 50.0448Z" fill="white"/>
<path d="M73.6555 50.0448C73.6555 49.8232 73.4327 49.6436 73.1578 49.6436C72.883 49.6436 72.6602 49.8232 72.6602 50.0448C72.6602 50.2663 73.0489 50.6465 73.3237 50.6465C73.5986 50.6465 73.6555 50.2663 73.6555 50.0448Z" fill="white"/>
<path d="M73.6555 50.0448C73.6555 49.8232 73.4327 49.6436 73.1578 49.6436C72.883 49.6436 72.6602 49.8232 72.6602 50.0448C72.6602 50.2663 73.0489 50.6465 73.3237 50.6465C73.5986 50.6465 73.6555 50.2663 73.6555 50.0448Z" fill="white"/>
<path d="M73.6555 50.0448C73.6555 49.8232 73.4327 49.6436 73.1578 49.6436C72.883 49.6436 72.6602 49.8232 72.6602 50.0448C72.6602 50.2663 73.0489 50.6465 73.3237 50.6465C73.5986 50.6465 73.6555 50.2663 73.6555 50.0448Z" fill="white"/>
<path d="M76.6408 88.1539C76.6408 87.9323 76.418 87.7527 76.1432 87.7527C75.8683 87.7527 75.6455 87.9323 75.6455 88.1539C75.6455 88.3754 76.0342 88.7556 76.3091 88.7556C76.5839 88.7556 76.6408 88.3754 76.6408 88.1539Z" fill="white"/>
<path d="M76.6408 88.1539C76.6408 87.9323 76.418 87.7527 76.1432 87.7527C75.8683 87.7527 75.6455 87.9323 75.6455 88.1539C75.6455 88.3754 76.0342 88.7556 76.3091 88.7556C76.5839 88.7556 76.6408 88.3754 76.6408 88.1539Z" fill="white"/>
<path d="M76.6408 88.1539C76.6408 87.9323 76.418 87.7527 76.1432 87.7527C75.8683 87.7527 75.6455 87.9323 75.6455 88.1539C75.6455 88.3754 76.0342 88.7556 76.3091 88.7556C76.5839 88.7556 76.6408 88.3754 76.6408 88.1539Z" fill="white"/>
<path d="M76.6408 88.1539C76.6408 87.9323 76.418 87.7527 76.1432 87.7527C75.8683 87.7527 75.6455 87.9323 75.6455 88.1539C75.6455 88.3754 76.0342 88.7556 76.3091 88.7556C76.5839 88.7556 76.6408 88.3754 76.6408 88.1539Z" fill="white"/>
<path d="M59.7199 94.1712C59.7199 93.9497 59.4971 93.7701 59.2223 93.7701C58.9474 93.7701 58.7246 93.9497 58.7246 94.1712C58.7246 94.3928 59.1133 94.7729 59.3882 94.7729C59.663 94.7729 59.7199 94.3928 59.7199 94.1712Z" fill="white"/>
<path d="M59.7199 94.1712C59.7199 93.9497 59.4971 93.7701 59.2223 93.7701C58.9474 93.7701 58.7246 93.9497 58.7246 94.1712C58.7246 94.3928 59.1133 94.7729 59.3882 94.7729C59.663 94.7729 59.7199 94.3928 59.7199 94.1712Z" fill="white"/>
<path d="M59.7199 94.1712C59.7199 93.9497 59.4971 93.7701 59.2223 93.7701C58.9474 93.7701 58.7246 93.9497 58.7246 94.1712C58.7246 94.3928 59.1133 94.7729 59.3882 94.7729C59.663 94.7729 59.7199 94.3928 59.7199 94.1712Z" fill="white"/>
<path d="M59.7199 94.1712C59.7199 93.9497 59.4971 93.7701 59.2223 93.7701C58.9474 93.7701 58.7246 93.9497 58.7246 94.1712C58.7246 94.3928 59.1133 94.7729 59.3882 94.7729C59.663 94.7729 59.7199 94.3928 59.7199 94.1712Z" fill="white"/>
<path d="M58.7248 85.1453C58.7248 84.9238 58.502 84.7442 58.2272 84.7442C57.9523 84.7442 57.7295 84.9238 57.7295 85.1453C57.7295 85.3669 58.1182 85.7471 58.393 85.7471C58.6679 85.7471 58.7248 85.3669 58.7248 85.1453Z" fill="white"/>
<path d="M58.7248 85.1453C58.7248 84.9238 58.502 84.7442 58.2272 84.7442C57.9523 84.7442 57.7295 84.9238 57.7295 85.1453C57.7295 85.3669 58.1182 85.7471 58.393 85.7471C58.6679 85.7471 58.7248 85.3669 58.7248 85.1453Z" fill="white"/>
<path d="M58.7248 85.1453C58.7248 84.9238 58.502 84.7442 58.2272 84.7442C57.9523 84.7442 57.7295 84.9238 57.7295 85.1453C57.7295 85.3669 58.1182 85.7471 58.393 85.7471C58.6679 85.7471 58.7248 85.3669 58.7248 85.1453Z" fill="white"/>
<path d="M58.7248 85.1453C58.7248 84.9238 58.502 84.7442 58.2272 84.7442C57.9523 84.7442 57.7295 84.9238 57.7295 85.1453C57.7295 85.3669 58.1182 85.7471 58.393 85.7471C58.6679 85.7471 58.7248 85.3669 58.7248 85.1453Z" fill="white"/>
<path d="M53.7483 74.1137C53.7483 73.8922 53.5255 73.7126 53.2506 73.7126C52.9757 73.7126 52.7529 73.8922 52.7529 74.1137C52.7529 74.3353 53.1416 74.7155 53.4165 74.7155C53.6913 74.7155 53.7483 74.3353 53.7483 74.1137Z" fill="white"/>
<path d="M53.7483 74.1137C53.7483 73.8922 53.5255 73.7126 53.2506 73.7126C52.9757 73.7126 52.7529 73.8922 52.7529 74.1137C52.7529 74.3353 53.1416 74.7155 53.4165 74.7155C53.6913 74.7155 53.7483 74.3353 53.7483 74.1137Z" fill="white"/>
<path d="M53.7483 74.1137C53.7483 73.8922 53.5255 73.7126 53.2506 73.7126C52.9757 73.7126 52.7529 73.8922 52.7529 74.1137C52.7529 74.3353 53.1416 74.7155 53.4165 74.7155C53.6913 74.7155 53.7483 74.3353 53.7483 74.1137Z" fill="white"/>
<path d="M53.7483 74.1137C53.7483 73.8922 53.5255 73.7126 53.2506 73.7126C52.9757 73.7126 52.7529 73.8922 52.7529 74.1137C52.7529 74.3353 53.1416 74.7155 53.4165 74.7155C53.6913 74.7155 53.7483 74.3353 53.7483 74.1137Z" fill="white"/>
<path d="M67.6828 36.0045C67.6828 35.7829 67.46 35.6033 67.1852 35.6033C66.9103 35.6033 66.6875 35.7829 66.6875 36.0045C66.6875 36.226 67.0762 36.6062 67.3511 36.6062C67.6259 36.6062 67.6828 36.226 67.6828 36.0045Z" fill="white"/>
<path d="M67.6828 36.0045C67.6828 35.7829 67.46 35.6033 67.1852 35.6033C66.9103 35.6033 66.6875 35.7829 66.6875 36.0045C66.6875 36.226 67.0762 36.6062 67.3511 36.6062C67.6259 36.6062 67.6828 36.226 67.6828 36.0045Z" fill="white"/>
<path d="M67.6828 36.0045C67.6828 35.7829 67.46 35.6033 67.1852 35.6033C66.9103 35.6033 66.6875 35.7829 66.6875 36.0045C66.6875 36.226 67.0762 36.6062 67.3511 36.6062C67.6259 36.6062 67.6828 36.226 67.6828 36.0045Z" fill="white"/>
<path d="M67.6828 36.0045C67.6828 35.7829 67.46 35.6033 67.1852 35.6033C66.9103 35.6033 66.6875 35.7829 66.6875 36.0045C66.6875 36.226 67.0762 36.6062 67.3511 36.6062C67.6259 36.6062 67.6828 36.226 67.6828 36.0045Z" fill="white"/>
<path d="M70.6684 65.4891C70.6684 65.046 70.2228 64.6868 69.6731 64.6868C69.1234 64.6868 68.6777 65.046 68.6777 65.4891C68.6777 65.9322 69.4551 66.6925 70.0048 66.6925C70.5546 66.6925 70.6684 65.9322 70.6684 65.4891Z" fill="white"/>
<path d="M70.6684 65.4891C70.6684 65.046 70.2228 64.6868 69.6731 64.6868C69.1234 64.6868 68.6777 65.046 68.6777 65.4891C68.6777 65.9322 69.4551 66.6925 70.0048 66.6925C70.5546 66.6925 70.6684 65.9322 70.6684 65.4891Z" fill="white"/>
<path d="M70.6684 65.4891C70.6684 65.046 70.2228 64.6868 69.6731 64.6868C69.1234 64.6868 68.6777 65.046 68.6777 65.4891C68.6777 65.9322 69.4551 66.6925 70.0048 66.6925C70.5546 66.6925 70.6684 65.9322 70.6684 65.4891Z" fill="white"/>
<path d="M70.6684 65.4891C70.6684 65.046 70.2228 64.6868 69.6731 64.6868C69.1234 64.6868 68.6777 65.046 68.6777 65.4891C68.6777 65.9322 69.4551 66.6925 70.0048 66.6925C70.5546 66.6925 70.6684 65.9322 70.6684 65.4891Z" fill="white"/>
<path d="M60.7153 75.5177C60.7153 75.0746 60.2697 74.7154 59.7199 74.7154C59.1702 74.7154 58.7246 75.0746 58.7246 75.5177C58.7246 75.9608 59.502 76.7212 60.0517 76.7212C60.6014 76.7212 60.7153 75.9608 60.7153 75.5177Z" fill="white"/>
<path d="M60.7153 75.5177C60.7153 75.0746 60.2697 74.7154 59.7199 74.7154C59.1702 74.7154 58.7246 75.0746 58.7246 75.5177C58.7246 75.9608 59.502 76.7212 60.0517 76.7212C60.6014 76.7212 60.7153 75.9608 60.7153 75.5177Z" fill="white"/>
<path d="M60.7153 75.5177C60.7153 75.0746 60.2697 74.7154 59.7199 74.7154C59.1702 74.7154 58.7246 75.0746 58.7246 75.5177C58.7246 75.9608 59.502 76.7212 60.0517 76.7212C60.6014 76.7212 60.7153 75.9608 60.7153 75.5177Z" fill="white"/>
<path d="M60.7153 75.5177C60.7153 75.0746 60.2697 74.7154 59.7199 74.7154C59.1702 74.7154 58.7246 75.0746 58.7246 75.5177C58.7246 75.9608 59.502 76.7212 60.0517 76.7212C60.6014 76.7212 60.7153 75.9608 60.7153 75.5177Z" fill="white"/>
<path d="M77.6362 75.5177C77.6362 75.0746 77.1906 74.7154 76.6408 74.7154C76.0911 74.7154 75.6455 75.0746 75.6455 75.5177C75.6455 75.9608 76.4229 76.7212 76.9726 76.7212C77.5223 76.7212 77.6362 75.9608 77.6362 75.5177Z" fill="white"/>
<path d="M77.6362 75.5177C77.6362 75.0746 77.1906 74.7154 76.6408 74.7154C76.0911 74.7154 75.6455 75.0746 75.6455 75.5177C75.6455 75.9608 76.4229 76.7212 76.9726 76.7212C77.5223 76.7212 77.6362 75.9608 77.6362 75.5177Z" fill="white"/>
<path d="M77.6362 75.5177C77.6362 75.0746 77.1906 74.7154 76.6408 74.7154C76.0911 74.7154 75.6455 75.0746 75.6455 75.5177C75.6455 75.9608 76.4229 76.7212 76.9726 76.7212C77.5223 76.7212 77.6362 75.9608 77.6362 75.5177Z" fill="white"/>
<path d="M77.6362 75.5177C77.6362 75.0746 77.1906 74.7154 76.6408 74.7154C76.0911 74.7154 75.6455 75.0746 75.6455 75.5177C75.6455 75.9608 76.4229 76.7212 76.9726 76.7212C77.5223 76.7212 77.6362 75.9608 77.6362 75.5177Z" fill="white"/>
<path d="M66.687 87.5522C66.687 87.1091 66.2413 86.7499 65.6916 86.7499C65.1419 86.7499 64.6963 87.1091 64.6963 87.5522C64.6963 87.9953 65.4737 88.7556 66.0234 88.7556C66.5731 88.7556 66.687 87.9953 66.687 87.5522Z" fill="white"/>
<path d="M66.687 87.5522C66.687 87.1091 66.2413 86.7499 65.6916 86.7499C65.1419 86.7499 64.6963 87.1091 64.6963 87.5522C64.6963 87.9953 65.4737 88.7556 66.0234 88.7556C66.5731 88.7556 66.687 87.9953 66.687 87.5522Z" fill="white"/>
<path d="M66.687 87.5522C66.687 87.1091 66.2413 86.7499 65.6916 86.7499C65.1419 86.7499 64.6963 87.1091 64.6963 87.5522C64.6963 87.9953 65.4737 88.7556 66.0234 88.7556C66.5731 88.7556 66.687 87.9953 66.687 87.5522Z" fill="white"/>
<path d="M66.687 87.5522C66.687 87.1091 66.2413 86.7499 65.6916 86.7499C65.1419 86.7499 64.6963 87.1091 64.6963 87.5522C64.6963 87.9953 65.4737 88.7556 66.0234 88.7556C66.5731 88.7556 66.687 87.9953 66.687 87.5522Z" fill="white"/>
<path d="M87.5893 92.5666C87.5893 92.1235 87.1437 91.7643 86.594 91.7643C86.0443 91.7643 85.5986 92.1235 85.5986 92.5666C85.5986 93.0097 86.376 93.77 86.9257 93.77C87.4755 93.77 87.5893 93.0097 87.5893 92.5666Z" fill="white"/>
<path d="M87.5893 92.5666C87.5893 92.1235 87.1437 91.7643 86.594 91.7643C86.0443 91.7643 85.5986 92.1235 85.5986 92.5666C85.5986 93.0097 86.376 93.77 86.9257 93.77C87.4755 93.77 87.5893 93.0097 87.5893 92.5666Z" fill="white"/>
<path d="M87.5893 92.5666C87.5893 92.1235 87.1437 91.7643 86.594 91.7643C86.0443 91.7643 85.5986 92.1235 85.5986 92.5666C85.5986 93.0097 86.376 93.77 86.9257 93.77C87.4755 93.77 87.5893 93.0097 87.5893 92.5666Z" fill="white"/>
<path d="M87.5893 92.5666C87.5893 92.1235 87.1437 91.7643 86.594 91.7643C86.0443 91.7643 85.5986 92.1235 85.5986 92.5666C85.5986 93.0097 86.376 93.77 86.9257 93.77C87.4755 93.77 87.5893 93.0097 87.5893 92.5666Z" fill="white"/>
<path d="M50.7622 93.5695C50.7622 93.1264 50.3165 92.7672 49.7668 92.7672C49.2171 92.7672 48.7715 93.1264 48.7715 93.5695C48.7715 94.0126 49.5489 94.7729 50.0986 94.7729C50.6483 94.7729 50.7622 94.0126 50.7622 93.5695Z" fill="white"/>
<path d="M50.7622 93.5695C50.7622 93.1264 50.3165 92.7672 49.7668 92.7672C49.2171 92.7672 48.7715 93.1264 48.7715 93.5695C48.7715 94.0126 49.5489 94.7729 50.0986 94.7729C50.6483 94.7729 50.7622 94.0126 50.7622 93.5695Z" fill="white"/>
<path d="M50.7622 93.5695C50.7622 93.1264 50.3165 92.7672 49.7668 92.7672C49.2171 92.7672 48.7715 93.1264 48.7715 93.5695C48.7715 94.0126 49.5489 94.7729 50.0986 94.7729C50.6483 94.7729 50.7622 94.0126 50.7622 93.5695Z" fill="white"/>
<path d="M50.7622 93.5695C50.7622 93.1264 50.3165 92.7672 49.7668 92.7672C49.2171 92.7672 48.7715 93.1264 48.7715 93.5695C48.7715 94.0126 49.5489 94.7729 50.0986 94.7729C50.6483 94.7729 50.7622 94.0126 50.7622 93.5695Z" fill="white"/>
<path d="M181.001 101.293L193.095 78.7807L205.189 101.293H181.001Z" fill="#0C2B63" stroke="white"/>
</svg>
