<svg width="900" height="300" viewBox="0 0 900 300" fill="none" xmlns="http://www.w3.org/2000/svg">
<path d="M73.6006 114.428C73.6006 114.192 73.795 114 74.0349 114V114C74.2747 114 74.4691 114.192 74.4691 114.428V137.54C74.4691 137.776 74.2747 137.968 74.0349 137.968V137.968C73.795 137.968 73.6006 137.776 73.6006 137.54V114.428Z" fill="white"/>
<path d="M71.2342 115.211C71.3686 115.015 71.6389 114.963 71.838 115.095L73.4554 116.169C73.8535 116.433 73.9584 116.965 73.6896 117.356V117.356L71.3514 115.805C71.1523 115.673 71.0998 115.407 71.2342 115.211V115.211Z" fill="white"/>
<path d="M71.2342 115.211C71.3686 115.015 71.6389 114.963 71.838 115.095L73.4554 116.169C73.8535 116.433 73.9584 116.965 73.6896 117.356V117.356L71.3514 115.805C71.1523 115.673 71.0998 115.407 71.2342 115.211V115.211Z" fill="white"/>
<path d="M71.2342 115.211C71.3686 115.015 71.6389 114.963 71.838 115.095L73.4554 116.169C73.8535 116.433 73.9584 116.965 73.6896 117.356V117.356L71.3514 115.805C71.1523 115.673 71.0998 115.407 71.2342 115.211V115.211Z" fill="white"/>
<path d="M71.2342 118.634C71.3686 118.439 71.6389 118.387 71.838 118.519L73.4554 119.592C73.8535 119.857 73.9584 120.388 73.6896 120.78V120.78L71.3514 119.228C71.1523 119.096 71.0998 118.83 71.2342 118.634V118.634Z" fill="white"/>
<path d="M71.2342 118.634C71.3686 118.439 71.6389 118.387 71.838 118.519L73.4554 119.592C73.8535 119.857 73.9584 120.388 73.6896 120.78V120.78L71.3514 119.228C71.1523 119.096 71.0998 118.83 71.2342 118.634V118.634Z" fill="white"/>
<path d="M71.2342 118.634C71.3686 118.439 71.6389 118.387 71.838 118.519L73.4554 119.592C73.8535 119.857 73.9584 120.388 73.6896 120.78V120.78L71.3514 119.228C71.1523 119.096 71.0998 118.83 71.2342 118.634V118.634Z" fill="white"/>
<path d="M73.8716 117.193C73.7214 117.008 73.7514 116.739 73.9388 116.591L75.7973 115.124C75.9846 114.976 76.2582 115.006 76.4084 115.19V115.19C76.5586 115.374 76.5285 115.644 76.3412 115.792L74.4827 117.259C74.2954 117.407 74.0218 117.377 73.8716 117.193V117.193Z" fill="white"/>
<path d="M73.8716 120.617C73.7214 120.432 73.7514 120.163 73.9388 120.015L75.7973 118.548C75.9846 118.4 76.2582 118.429 76.4084 118.614V118.614C76.5586 118.798 76.5285 119.068 76.3412 119.215L74.4827 120.683C74.2954 120.831 74.0218 120.801 73.8716 120.617V120.617Z" fill="white"/>
<path d="M73.9006 135.279C73.7344 135.483 73.7677 135.781 73.975 135.945L76.0319 137.569C76.2392 137.732 76.542 137.7 76.7082 137.496V137.496C76.8745 137.291 76.8412 136.993 76.6339 136.83L74.577 135.206C74.3697 135.042 74.0669 135.075 73.9006 135.279V135.279Z" fill="white"/>
<path d="M73.9006 131.489C73.7344 131.693 73.7677 131.992 73.975 132.155L76.0319 133.779C76.2392 133.943 76.542 133.91 76.7082 133.706V133.706C76.8745 133.502 76.8412 133.204 76.6339 133.04L74.577 131.416C74.3697 131.252 74.0669 131.285 73.9006 131.489V131.489Z" fill="white"/>
<path d="M74.1588 135.362C74.3284 135.57 74.2944 135.874 74.083 136.041L71.9849 137.698C71.7735 137.865 71.4646 137.831 71.295 137.623V137.623C71.1255 137.415 71.1594 137.111 71.3709 136.944L73.4689 135.287C73.6804 135.12 73.9892 135.154 74.1588 135.362V135.362Z" fill="white"/>
<path d="M74.1588 131.497C74.3284 131.705 74.2944 132.009 74.083 132.176L71.9849 133.833C71.7735 133.999 71.4646 133.966 71.295 133.758V133.758C71.1255 133.55 71.1594 133.246 71.3709 133.079L73.4689 131.422C73.6804 131.255 73.9892 131.289 74.1588 131.497V131.497Z" fill="white"/>
<path d="M83.7279 119.496C83.931 119.37 84.1995 119.43 84.3275 119.63V119.63C84.4555 119.83 84.3946 120.094 84.1915 120.22L64.3315 132.543C64.1284 132.669 63.86 132.609 63.732 132.409V132.409C63.6039 132.209 63.6648 131.945 63.8679 131.819L83.7279 119.496Z" fill="white"/>
<path d="M81.794 117.944C82.034 117.951 82.2224 118.149 82.2149 118.385L82.1541 120.304C82.1391 120.777 81.7378 121.148 81.2579 121.133V121.133L81.3459 118.358C81.3534 118.122 81.554 117.937 81.794 117.944V117.944Z" fill="white"/>
<path d="M81.794 117.944C82.034 117.951 82.2224 118.149 82.2149 118.385L82.1541 120.304C82.1391 120.777 81.7378 121.148 81.2579 121.133V121.133L81.3459 118.358C81.3534 118.122 81.554 117.937 81.794 117.944V117.944Z" fill="white"/>
<path d="M81.794 117.944C82.034 117.951 82.2224 118.149 82.2149 118.385L82.1541 120.304C82.1391 120.777 81.7378 121.148 81.2579 121.133V121.133L81.3459 118.358C81.3534 118.122 81.554 117.937 81.794 117.944V117.944Z" fill="white"/>
<path d="M78.8497 119.77C79.0896 119.777 79.2781 119.974 79.2706 120.211L79.2097 122.13C79.1947 122.603 78.7935 122.974 78.3136 122.959V122.959L78.4016 120.184C78.4091 119.948 78.6097 119.762 78.8497 119.77V119.77Z" fill="white"/>
<path d="M78.8497 119.77C79.0896 119.777 79.2781 119.974 79.2706 120.211L79.2097 122.13C79.1947 122.603 78.7935 122.974 78.3136 122.959V122.959L78.4016 120.184C78.4091 119.948 78.6097 119.762 78.8497 119.77V119.77Z" fill="white"/>
<path d="M78.8497 119.77C79.0896 119.777 79.2781 119.974 79.2706 120.211L79.2097 122.13C79.1947 122.603 78.7935 122.974 78.3136 122.959V122.959L78.4016 120.184C78.4091 119.948 78.6097 119.762 78.8497 119.77V119.77Z" fill="white"/>
<path d="M81.4958 121.197C81.5742 120.974 81.8217 120.855 82.0486 120.932L84.3004 121.698C84.5274 121.775 84.6478 122.019 84.5694 122.242V122.242C84.4911 122.465 84.2436 122.584 84.0166 122.507L81.7648 121.741C81.5379 121.664 81.4174 121.42 81.4958 121.197V121.197Z" fill="white"/>
<path d="M78.5524 123.023C78.6308 122.799 78.8783 122.681 79.1053 122.758L81.3571 123.523C81.584 123.601 81.7045 123.844 81.6261 124.068V124.068C81.5477 124.291 81.3002 124.41 81.0733 124.333L78.8214 123.567C78.5945 123.49 78.4741 123.246 78.5524 123.023V123.023Z" fill="white"/>
<path d="M65.9702 130.864C65.7062 130.835 65.4678 131.021 65.4377 131.281L65.1389 133.86C65.1088 134.12 65.2984 134.355 65.5624 134.385V134.385C65.8264 134.414 66.0649 134.228 66.095 133.968L66.3937 131.389C66.4239 131.129 66.2342 130.894 65.9702 130.864V130.864Z" fill="white"/>
<path d="M69.2241 128.844C68.9601 128.815 68.7217 129.001 68.6916 129.261L68.3928 131.84C68.3627 132.1 68.5523 132.335 68.8163 132.365V132.365C69.0803 132.394 69.3188 132.208 69.3489 131.948L69.6477 129.369C69.6778 129.109 69.4881 128.874 69.2241 128.844V128.844Z" fill="white"/>
<path d="M66.0352 131.126C65.9467 131.379 65.6673 131.512 65.4111 131.425L62.8691 130.561C62.6129 130.474 62.4769 130.199 62.5654 129.947V129.947C62.6539 129.694 62.9333 129.561 63.1895 129.648L65.7315 130.512C65.9877 130.599 66.1237 130.874 66.0352 131.126V131.126Z" fill="white"/>
<path d="M69.3594 129.066C69.2709 129.318 68.9915 129.452 68.7353 129.365L66.1933 128.5C65.9371 128.413 65.8011 128.138 65.8896 127.886V127.886C65.9781 127.634 66.2575 127.5 66.5137 127.587L69.0557 128.451C69.3119 128.538 69.4479 128.813 69.3594 129.066V129.066Z" fill="white"/>
<path d="M84.2854 131.615C84.4913 131.737 84.5581 132 84.4345 132.202V132.202C84.311 132.405 84.044 132.471 83.8381 132.349L63.7083 120.458C63.5024 120.337 63.4356 120.074 63.5592 119.871V119.871C63.6827 119.668 63.9497 119.603 64.1556 119.724L84.2854 131.615Z" fill="white"/>
<path d="M84.819 129.216C84.9206 129.43 84.8266 129.685 84.609 129.785L82.8417 130.597C82.4066 130.797 81.8892 130.612 81.6861 130.184V130.184L84.2412 129.009C84.4588 128.909 84.7175 129.002 84.819 129.216V129.216Z" fill="white"/>
<path d="M84.819 129.216C84.9206 129.43 84.8266 129.685 84.609 129.785L82.8417 130.597C82.4066 130.797 81.8892 130.612 81.6861 130.184V130.184L84.2412 129.009C84.4588 128.909 84.7175 129.002 84.819 129.216V129.216Z" fill="white"/>
<path d="M84.819 129.216C84.9206 129.43 84.8266 129.685 84.609 129.785L82.8417 130.597C82.4066 130.797 81.8892 130.612 81.6861 130.184V130.184L84.2412 129.009C84.4588 128.909 84.7175 129.002 84.819 129.216V129.216Z" fill="white"/>
<path d="M81.8376 127.454C81.9391 127.669 81.8451 127.923 81.6276 128.023L79.8602 128.836C79.4251 129.036 78.9077 128.851 78.7046 128.422V128.422L81.2598 127.248C81.4773 127.148 81.736 127.24 81.8376 127.454V127.454Z" fill="white"/>
<path d="M81.8376 127.454C81.9391 127.669 81.8451 127.923 81.6276 128.023L79.8602 128.836C79.4251 129.036 78.9077 128.851 78.7046 128.422V128.422L81.2598 127.248C81.4773 127.148 81.736 127.24 81.8376 127.454V127.454Z" fill="white"/>
<path d="M81.8376 127.454C81.9391 127.669 81.8451 127.923 81.6276 128.023L79.8602 128.836C79.4251 129.036 78.9077 128.851 78.7046 128.422V128.422L81.2598 127.248C81.4773 127.148 81.736 127.24 81.8376 127.454V127.454Z" fill="white"/>
<path d="M81.7372 130.423C81.9751 130.391 82.1943 130.555 82.2267 130.789L82.5485 133.113C82.5809 133.347 82.4144 133.563 82.1765 133.595V133.595C81.9386 133.627 81.7195 133.463 81.687 133.229L81.3652 130.905C81.3328 130.67 81.4993 130.455 81.7372 130.423V130.423Z" fill="white"/>
<path d="M78.7538 128.661C78.9917 128.629 79.2109 128.793 79.2433 129.027L79.5651 131.351C79.5975 131.585 79.431 131.801 79.1931 131.833V131.833C78.9552 131.865 78.7361 131.701 78.7036 131.467L78.3818 129.143C78.3494 128.909 78.5159 128.693 78.7538 128.661V128.661Z" fill="white"/>
<path d="M65.9687 121.142C65.8765 120.897 65.5997 120.772 65.3505 120.862L62.8778 121.763C62.6286 121.854 62.5013 122.127 62.5936 122.372V122.372C62.6858 122.617 62.9626 122.743 63.2118 122.652L65.6845 121.751C65.9337 121.66 66.061 121.388 65.9687 121.142V121.142Z" fill="white"/>
<path d="M69.2695 123.092C69.1773 122.846 68.9005 122.721 68.6513 122.812L66.1786 123.713C65.9294 123.804 65.8021 124.076 65.8943 124.321V124.321C65.9866 124.567 66.2633 124.692 66.5126 124.601L68.9853 123.7C69.2345 123.61 69.3618 123.337 69.2695 123.092V123.092Z" fill="white"/>
<path d="M65.7636 121.32C65.4951 121.356 65.2477 121.171 65.2111 120.906L64.8478 118.283C64.8111 118.018 64.9992 117.775 65.2677 117.739V117.739C65.5363 117.703 65.7837 117.888 65.8203 118.152L66.1836 120.776C66.2202 121.04 66.0322 121.284 65.7636 121.32V121.32Z" fill="white"/>
<path d="M69.1288 123.309C68.8603 123.345 68.6129 123.159 68.5763 122.895L68.213 120.272C68.1764 120.007 68.3644 119.764 68.633 119.728V119.728C68.9015 119.692 69.1489 119.877 69.1855 120.141L69.5488 122.765C69.5854 123.029 69.3974 123.272 69.1288 123.309V123.309Z" fill="white"/>
<path d="M449.47 52.5707C449.47 52.2555 449.729 52 450.049 52V52C450.369 52 450.628 52.2555 450.628 52.5707V83.3862C450.628 83.7014 450.369 83.9569 450.049 83.9569V83.9569C449.729 83.9569 449.47 83.7014 449.47 83.3862V52.5707Z" fill="white"/>
<path d="M446.315 53.6142C446.494 53.3531 446.855 53.2842 447.12 53.4603L449.277 54.8914C449.808 55.2437 449.948 55.9527 449.589 56.4751V56.4751L446.471 54.4061C446.206 54.2299 446.136 53.8754 446.315 53.6142V53.6142Z" fill="white"/>
<path d="M446.315 53.6142C446.494 53.3531 446.855 53.2842 447.12 53.4603L449.277 54.8914C449.808 55.2437 449.948 55.9527 449.589 56.4751V56.4751L446.471 54.4061C446.206 54.2299 446.136 53.8754 446.315 53.6142V53.6142Z" fill="white"/>
<path d="M446.315 53.6142C446.494 53.3531 446.855 53.2842 447.12 53.4603L449.277 54.8914C449.808 55.2437 449.948 55.9527 449.589 56.4751V56.4751L446.471 54.4061C446.206 54.2299 446.136 53.8754 446.315 53.6142V53.6142Z" fill="white"/>
<path d="M446.315 58.1794C446.494 57.9183 446.855 57.8493 447.12 58.0255L449.277 59.4566C449.808 59.8089 449.948 60.5179 449.589 61.0403V61.0403L446.471 58.9713C446.206 58.7951 446.136 58.4406 446.315 58.1794V58.1794Z" fill="white"/>
<path d="M446.315 58.1794C446.494 57.9183 446.855 57.8493 447.12 58.0255L449.277 59.4566C449.808 59.8089 449.948 60.5179 449.589 61.0403V61.0403L446.471 58.9713C446.206 58.7951 446.136 58.4406 446.315 58.1794V58.1794Z" fill="white"/>
<path d="M446.315 58.1794C446.494 57.9183 446.855 57.8493 447.12 58.0255L449.277 59.4566C449.808 59.8089 449.948 60.5179 449.589 61.0403V61.0403L446.471 58.9713C446.206 58.7951 446.136 58.4406 446.315 58.1794V58.1794Z" fill="white"/>
<path d="M449.832 56.257C449.632 56.0111 449.672 55.6519 449.922 55.4548L452.4 53.4983C452.65 53.3011 453.015 53.3406 453.215 53.5865V53.5865C453.415 53.8324 453.375 54.1915 453.125 54.3887L450.647 56.3451C450.397 56.5423 450.033 56.5028 449.832 56.257V56.257Z" fill="white"/>
<path d="M449.832 60.8224C449.632 60.5765 449.672 60.2174 449.922 60.0202L452.4 58.0637C452.65 57.8666 453.015 57.9061 453.215 58.1519V58.1519C453.415 58.3978 453.375 58.757 453.125 58.9541L450.647 60.9106C450.397 61.1077 450.033 61.0683 449.832 60.8224V60.8224Z" fill="white"/>
<path d="M449.871 80.3718C449.649 80.6439 449.694 81.0414 449.97 81.2596L452.713 83.4249C452.989 83.6432 453.393 83.5995 453.615 83.3273V83.3273C453.836 83.0552 453.792 82.6577 453.516 82.4395L450.773 80.2742C450.497 80.056 450.093 80.0997 449.871 80.3718V80.3718Z" fill="white"/>
<path d="M449.871 75.3191C449.649 75.5912 449.694 75.9887 449.97 76.2069L452.713 78.3722C452.989 78.5904 453.393 78.5467 453.615 78.2746V78.2746C453.836 78.0025 453.792 77.605 453.516 77.3868L450.773 75.2215C450.497 75.0032 450.093 75.0469 449.871 75.3191V75.3191Z" fill="white"/>
<path d="M450.215 80.4828C450.441 80.7603 450.395 81.1658 450.114 81.3884L447.316 83.597C447.034 83.8196 446.622 83.775 446.396 83.4974V83.4974C446.17 83.2199 446.215 82.8144 446.497 82.5918L449.295 80.3832C449.577 80.1607 449.989 80.2052 450.215 80.4828V80.4828Z" fill="white"/>
<path d="M450.215 75.3292C450.441 75.6068 450.395 76.0122 450.114 76.2348L447.316 78.4434C447.034 78.666 446.622 78.6214 446.396 78.3439V78.3439C446.17 78.0663 446.215 77.6609 446.497 77.4383L449.295 75.2297C449.577 75.0071 449.989 75.0517 450.215 75.3292V75.3292Z" fill="white"/>
<path d="M462.976 59.328C463.247 59.1599 463.605 59.2398 463.776 59.5065V59.5065C463.947 59.7731 463.865 60.1255 463.595 60.2935L437.114 76.724C436.843 76.892 436.485 76.8121 436.315 76.5455V76.5455C436.144 76.2789 436.225 75.9265 436.496 75.7585L462.976 59.328Z" fill="white"/>
<path d="M460.397 57.2581C460.717 57.2679 460.968 57.5312 460.958 57.8463L460.877 60.4053C460.857 61.0353 460.322 61.5301 459.682 61.5105V61.5105L459.8 57.8106C459.81 57.4956 460.077 57.2482 460.397 57.2581V57.2581Z" fill="white"/>
<path d="M460.397 57.2581C460.717 57.2679 460.968 57.5312 460.958 57.8463L460.877 60.4053C460.857 61.0353 460.322 61.5301 459.682 61.5105V61.5105L459.8 57.8106C459.81 57.4956 460.077 57.2482 460.397 57.2581V57.2581Z" fill="white"/>
<path d="M460.397 57.2581C460.717 57.2679 460.968 57.5312 460.958 57.8463L460.877 60.4053C460.857 61.0353 460.322 61.5301 459.682 61.5105V61.5105L459.8 57.8106C459.81 57.4956 460.077 57.2482 460.397 57.2581V57.2581Z" fill="white"/>
<path d="M456.471 59.6924C456.791 59.7022 457.043 59.9656 457.033 60.2806L456.952 62.8397C456.932 63.4697 456.397 63.9645 455.757 63.9448V63.9448L455.874 60.245C455.884 59.9299 456.151 59.6826 456.471 59.6924V59.6924Z" fill="white"/>
<path d="M456.471 59.6924C456.791 59.7022 457.043 59.9656 457.033 60.2806L456.952 62.8397C456.932 63.4697 456.397 63.9645 455.757 63.9448V63.9448L455.874 60.245C455.884 59.9299 456.151 59.6826 456.471 59.6924V59.6924Z" fill="white"/>
<path d="M456.471 59.6924C456.791 59.7022 457.043 59.9656 457.033 60.2806L456.952 62.8397C456.932 63.4697 456.397 63.9645 455.757 63.9448V63.9448L455.874 60.245C455.884 59.9299 456.151 59.6826 456.471 59.6924V59.6924Z" fill="white"/>
<path d="M460 61.5956C460.105 61.2977 460.435 61.1395 460.737 61.2424L463.74 62.2632C464.042 62.3661 464.203 62.691 464.099 62.9889V62.9889C463.994 63.2868 463.664 63.4449 463.361 63.342L460.359 62.3212C460.056 62.2184 459.896 61.8935 460 61.5956V61.5956Z" fill="white"/>
<path d="M456.075 64.0296C456.18 63.7317 456.51 63.5736 456.813 63.6765L459.815 64.6973C460.118 64.8002 460.278 65.125 460.174 65.423V65.423C460.069 65.7209 459.739 65.879 459.437 65.7761L456.434 64.7553C456.132 64.6524 455.971 64.3275 456.075 64.0296V64.0296Z" fill="white"/>
<path d="M439.299 74.4854C438.947 74.4459 438.629 74.6948 438.588 75.0413L438.19 78.4801C438.15 78.8267 438.403 79.1397 438.755 79.1792V79.1792C439.107 79.2187 439.425 78.9698 439.465 78.6232L439.863 75.1845C439.903 74.8379 439.651 74.5249 439.299 74.4854V74.4854Z" fill="white"/>
<path d="M443.638 71.7918C443.286 71.7523 442.968 72.0012 442.928 72.3477L442.53 75.7865C442.49 76.1331 442.743 76.4461 443.095 76.4856V76.4856C443.447 76.5251 443.765 76.2762 443.805 75.9296L444.203 72.4909C444.243 72.1443 443.99 71.8313 443.638 71.7918V71.7918Z" fill="white"/>
<path d="M439.386 74.8349C439.268 75.1712 438.896 75.3497 438.554 75.2336L435.165 74.0812C434.823 73.9651 434.642 73.5983 434.76 73.262V73.262C434.878 72.9257 435.25 72.7472 435.592 72.8634L438.982 74.0157C439.323 74.1319 439.504 74.4986 439.386 74.8349V74.8349Z" fill="white"/>
<path d="M443.818 72.0869C443.7 72.4232 443.328 72.6017 442.986 72.4855L439.597 71.3332C439.255 71.217 439.074 70.8503 439.192 70.514V70.514C439.31 70.1777 439.682 69.9992 440.024 70.1153L443.413 71.2677C443.755 71.3838 443.936 71.7506 443.818 72.0869V72.0869Z" fill="white"/>
<path d="M463.714 75.4869C463.988 75.6491 464.077 75.9996 463.913 76.2699V76.2699C463.748 76.5401 463.392 76.6277 463.117 76.4656L436.277 60.611C436.003 60.4488 435.914 60.0983 436.078 59.828V59.828C436.243 59.5578 436.599 59.4702 436.874 59.6323L463.714 75.4869Z" fill="white"/>
<path d="M464.426 72.2883C464.561 72.5739 464.436 72.9135 464.146 73.0468L461.789 74.1299C461.209 74.3966 460.519 74.1497 460.248 73.5786V73.5786L463.655 72.0127C463.945 71.8793 464.29 72.0028 464.426 72.2883V72.2883Z" fill="white"/>
<path d="M464.426 72.2883C464.561 72.5739 464.436 72.9135 464.146 73.0468L461.789 74.1299C461.209 74.3966 460.519 74.1497 460.248 73.5786V73.5786L463.655 72.0127C463.945 71.8793 464.29 72.0028 464.426 72.2883V72.2883Z" fill="white"/>
<path d="M464.426 72.2883C464.561 72.5739 464.436 72.9135 464.146 73.0468L461.789 74.1299C461.209 74.3966 460.519 74.1497 460.248 73.5786V73.5786L463.655 72.0127C463.945 71.8793 464.29 72.0028 464.426 72.2883V72.2883Z" fill="white"/>
<path d="M460.45 69.9397C460.586 70.2253 460.46 70.5649 460.17 70.6982L457.814 71.7813C457.233 72.0479 456.544 71.8011 456.273 71.2299V71.2299L459.68 69.664C459.97 69.5307 460.315 69.6541 460.45 69.9397V69.9397Z" fill="white"/>
<path d="M460.45 69.9397C460.586 70.2253 460.46 70.5649 460.17 70.6982L457.814 71.7813C457.233 72.0479 456.544 71.8011 456.273 71.2299V71.2299L459.68 69.664C459.97 69.5307 460.315 69.6541 460.45 69.9397V69.9397Z" fill="white"/>
<path d="M460.45 69.9397C460.586 70.2253 460.46 70.5649 460.17 70.6982L457.814 71.7813C457.233 72.0479 456.544 71.8011 456.273 71.2299V71.2299L459.68 69.664C459.97 69.5307 460.315 69.6541 460.45 69.9397V69.9397Z" fill="white"/>
<path d="M460.316 73.8972C460.633 73.8546 460.926 74.0732 460.969 74.3855L461.398 77.484C461.441 77.7963 461.219 78.084 460.902 78.1266V78.1266C460.585 78.1691 460.293 77.9505 460.249 77.6382L459.82 74.5397C459.777 74.2274 459.999 73.9397 460.316 73.8972V73.8972Z" fill="white"/>
<path d="M456.339 71.5483C456.656 71.5057 456.948 71.7243 456.991 72.0366L457.42 75.1352C457.464 75.4474 457.242 75.7351 456.924 75.7777V75.7777C456.607 75.8203 456.315 75.6016 456.272 75.2893L455.843 72.1908C455.799 71.8785 456.022 71.5909 456.339 71.5483V71.5483Z" fill="white"/>
<path d="M439.292 61.5232C439.169 61.1961 438.8 61.0291 438.468 61.1501L435.171 62.3514C434.838 62.4724 434.669 62.8358 434.792 63.1629V63.1629C434.915 63.49 435.284 63.6571 435.616 63.536L438.913 62.3348C439.245 62.2137 439.415 61.8504 439.292 61.5232V61.5232Z" fill="white"/>
<path d="M443.693 64.1224C443.57 63.7952 443.201 63.6282 442.869 63.7492L439.572 64.9505C439.24 65.0716 439.07 65.4349 439.193 65.762V65.762C439.316 66.0891 439.685 66.2562 440.017 66.1351L443.314 64.9339C443.647 64.8128 443.816 64.4495 443.693 64.1224V64.1224Z" fill="white"/>
<path d="M439.018 61.7597C438.659 61.8077 438.33 61.5609 438.281 61.2084L437.796 57.7105C437.748 57.3579 437.998 57.0332 438.356 56.9851V56.9851C438.714 56.9371 439.044 57.1839 439.093 57.5364L439.577 61.0343C439.626 61.3869 439.376 61.7116 439.018 61.7597V61.7597Z" fill="white"/>
<path d="M443.506 64.4113C443.148 64.4593 442.818 64.2125 442.769 63.86L442.285 60.3621C442.236 60.0095 442.487 59.6848 442.845 59.6367V59.6367C443.203 59.5887 443.533 59.8355 443.581 60.188L444.066 63.6859C444.115 64.0385 443.864 64.3632 443.506 64.4113V64.4113Z" fill="white"/>
<path d="M774.701 222.321C774.701 222.144 774.847 222 775.027 222V222C775.207 222 775.353 222.144 775.353 222.321V239.655C775.353 239.832 775.207 239.976 775.027 239.976V239.976C774.847 239.976 774.701 239.832 774.701 239.655V222.321Z" fill="white"/>
<path d="M772.927 222.908C773.028 222.761 773.23 222.722 773.38 222.822L774.593 223.626C774.891 223.825 774.97 224.223 774.768 224.517V224.517L773.015 223.354C772.865 223.254 772.826 223.055 772.927 222.908V222.908Z" fill="white"/>
<path d="M772.927 222.908C773.028 222.761 773.23 222.722 773.38 222.822L774.593 223.626C774.891 223.825 774.97 224.223 774.768 224.517V224.517L773.015 223.354C772.865 223.254 772.826 223.055 772.927 222.908V222.908Z" fill="white"/>
<path d="M772.927 222.908C773.028 222.761 773.23 222.722 773.38 222.822L774.593 223.626C774.891 223.825 774.97 224.223 774.768 224.517V224.517L773.015 223.354C772.865 223.254 772.826 223.055 772.927 222.908V222.908Z" fill="white"/>
<path d="M772.927 225.476C773.028 225.329 773.23 225.29 773.38 225.389L774.593 226.194C774.891 226.393 774.97 226.791 774.768 227.085V227.085L773.015 225.921C772.865 225.822 772.826 225.623 772.927 225.476V225.476Z" fill="white"/>
<path d="M772.927 225.476C773.028 225.329 773.23 225.29 773.38 225.389L774.593 226.194C774.891 226.393 774.97 226.791 774.768 227.085V227.085L773.015 225.921C772.865 225.822 772.826 225.623 772.927 225.476V225.476Z" fill="white"/>
<path d="M772.927 225.476C773.028 225.329 773.23 225.29 773.38 225.389L774.593 226.194C774.891 226.393 774.97 226.791 774.768 227.085V227.085L773.015 225.921C772.865 225.822 772.826 225.623 772.927 225.476V225.476Z" fill="white"/>
<path d="M774.905 224.394C774.792 224.256 774.815 224.054 774.956 223.943L776.349 222.843C776.49 222.732 776.695 222.754 776.808 222.892V222.892C776.92 223.031 776.898 223.233 776.757 223.344L775.363 224.444C775.223 224.555 775.018 224.533 774.905 224.394V224.394Z" fill="white"/>
<path d="M774.905 226.962C774.792 226.824 774.815 226.622 774.956 226.511L776.349 225.411C776.49 225.3 776.695 225.322 776.808 225.46V225.46C776.92 225.599 776.898 225.801 776.757 225.911L775.363 227.012C775.223 227.123 775.018 227.101 774.905 226.962V226.962Z" fill="white"/>
<path d="M774.927 237.959C774.802 238.112 774.827 238.336 774.983 238.459L776.525 239.677C776.681 239.799 776.908 239.775 777.033 239.622V239.622C777.157 239.469 777.132 239.245 776.977 239.122L775.434 237.904C775.279 237.782 775.052 237.806 774.927 237.959V237.959Z" fill="white"/>
<path d="M774.927 235.117C774.802 235.27 774.827 235.494 774.983 235.616L776.525 236.834C776.681 236.957 776.908 236.932 777.033 236.779V236.779C777.157 236.626 777.132 236.403 776.977 236.28L775.434 235.062C775.279 234.939 775.052 234.964 774.927 235.117V235.117Z" fill="white"/>
<path d="M775.12 238.022C775.247 238.178 775.222 238.406 775.063 238.531L773.49 239.773C773.331 239.898 773.1 239.873 772.972 239.717V239.717C772.845 239.561 772.871 239.333 773.029 239.208L774.603 237.966C774.761 237.84 774.993 237.865 775.12 238.022V238.022Z" fill="white"/>
<path d="M775.12 235.123C775.247 235.279 775.222 235.507 775.063 235.632L773.49 236.874C773.331 237 773.1 236.974 772.972 236.818V236.818C772.845 236.662 772.871 236.434 773.029 236.309L774.603 235.067C774.761 234.941 774.993 234.966 775.12 235.123V235.123Z" fill="white"/>
<path d="M782.299 226.122C782.452 226.028 782.653 226.073 782.749 226.222V226.222C782.845 226.372 782.799 226.571 782.647 226.665L767.752 235.907C767.6 236.002 767.398 235.957 767.302 235.807V235.807C767.206 235.657 767.252 235.459 767.404 235.364L782.299 226.122Z" fill="white"/>
<path d="M780.848 224.958C781.028 224.963 781.169 225.111 781.164 225.288L781.118 226.728C781.107 227.082 780.806 227.361 780.446 227.349V227.349L780.512 225.268C780.517 225.091 780.668 224.952 780.848 224.958V224.958Z" fill="white"/>
<path d="M780.848 224.958C781.028 224.963 781.169 225.111 781.164 225.288L781.118 226.728C781.107 227.082 780.806 227.361 780.446 227.349V227.349L780.512 225.268C780.517 225.091 780.668 224.952 780.848 224.958V224.958Z" fill="white"/>
<path d="M780.848 224.958C781.028 224.963 781.169 225.111 781.164 225.288L781.118 226.728C781.107 227.082 780.806 227.361 780.446 227.349V227.349L780.512 225.268C780.517 225.091 780.668 224.952 780.848 224.958V224.958Z" fill="white"/>
<path d="M778.64 226.327C778.82 226.332 778.961 226.481 778.956 226.658L778.91 228.097C778.899 228.452 778.598 228.73 778.238 228.719V228.719L778.304 226.638C778.309 226.461 778.46 226.321 778.64 226.327V226.327Z" fill="white"/>
<path d="M778.64 226.327C778.82 226.332 778.961 226.481 778.956 226.658L778.91 228.097C778.899 228.452 778.598 228.73 778.238 228.719V228.719L778.304 226.638C778.309 226.461 778.46 226.321 778.64 226.327V226.327Z" fill="white"/>
<path d="M778.64 226.327C778.82 226.332 778.961 226.481 778.956 226.658L778.91 228.097C778.899 228.452 778.598 228.73 778.238 228.719V228.719L778.304 226.638C778.309 226.461 778.46 226.321 778.64 226.327V226.327Z" fill="white"/>
<path d="M780.625 227.397C780.684 227.23 780.869 227.141 781.04 227.199L782.729 227.773C782.899 227.831 782.989 228.014 782.93 228.181V228.181C782.872 228.349 782.686 228.438 782.516 228.38L780.827 227.806C780.657 227.748 780.566 227.565 780.625 227.397V227.397Z" fill="white"/>
<path d="M778.417 228.767C778.476 228.599 778.661 228.51 778.832 228.568L780.521 229.142C780.691 229.2 780.781 229.383 780.722 229.55V229.55C780.663 229.718 780.478 229.807 780.308 229.749L778.619 229.175C778.449 229.117 778.358 228.934 778.417 228.767V228.767Z" fill="white"/>
<path d="M768.98 234.648C768.782 234.626 768.603 234.766 768.58 234.961L768.356 236.895C768.334 237.09 768.476 237.266 768.674 237.288V237.288C768.872 237.31 769.051 237.17 769.073 236.975L769.297 235.041C769.32 234.846 769.178 234.67 768.98 234.648V234.648Z" fill="white"/>
<path d="M771.422 233.133C771.224 233.11 771.045 233.25 771.023 233.445L770.799 235.38C770.776 235.575 770.918 235.751 771.116 235.773V235.773C771.314 235.795 771.493 235.655 771.516 235.46L771.74 233.526C771.762 233.331 771.62 233.155 771.422 233.133V233.133Z" fill="white"/>
<path d="M769.03 234.844C768.964 235.034 768.754 235.134 768.562 235.069L766.656 234.421C766.464 234.355 766.362 234.149 766.428 233.96V233.96C766.494 233.771 766.704 233.67 766.896 233.736L768.803 234.384C768.995 234.449 769.097 234.655 769.03 234.844V234.844Z" fill="white"/>
<path d="M771.522 233.299C771.456 233.488 771.247 233.588 771.054 233.523L769.148 232.875C768.956 232.81 768.854 232.603 768.92 232.414V232.414C768.986 232.225 769.196 232.125 769.388 232.19L771.295 232.838C771.487 232.903 771.589 233.11 771.522 233.299V233.299Z" fill="white"/>
<path d="M782.714 235.211C782.868 235.302 782.918 235.499 782.825 235.651V235.651C782.733 235.803 782.532 235.853 782.378 235.762L767.281 226.843C767.126 226.752 767.076 226.555 767.169 226.403V226.403C767.261 226.251 767.462 226.202 767.616 226.293L782.714 235.211Z" fill="white"/>
<path d="M783.114 233.412C783.19 233.573 783.12 233.764 782.957 233.839L781.631 234.448C781.305 234.598 780.917 234.459 780.764 234.138V234.138L782.681 233.257C782.844 233.182 783.038 233.251 783.114 233.412V233.412Z" fill="white"/>
<path d="M783.114 233.412C783.19 233.573 783.12 233.764 782.957 233.839L781.631 234.448C781.305 234.598 780.917 234.459 780.764 234.138V234.138L782.681 233.257C782.844 233.182 783.038 233.251 783.114 233.412V233.412Z" fill="white"/>
<path d="M783.114 233.412C783.19 233.573 783.12 233.764 782.957 233.839L781.631 234.448C781.305 234.598 780.917 234.459 780.764 234.138V234.138L782.681 233.257C782.844 233.182 783.038 233.251 783.114 233.412V233.412Z" fill="white"/>
<path d="M780.878 232.091C780.954 232.252 780.883 232.443 780.72 232.518L779.395 233.127C779.068 233.277 778.68 233.138 778.528 232.817V232.817L780.444 231.936C780.607 231.861 780.802 231.93 780.878 232.091V232.091Z" fill="white"/>
<path d="M780.878 232.091C780.954 232.252 780.883 232.443 780.72 232.518L779.395 233.127C779.068 233.277 778.68 233.138 778.528 232.817V232.817L780.444 231.936C780.607 231.861 780.802 231.93 780.878 232.091V232.091Z" fill="white"/>
<path d="M780.878 232.091C780.954 232.252 780.883 232.443 780.72 232.518L779.395 233.127C779.068 233.277 778.68 233.138 778.528 232.817V232.817L780.444 231.936C780.607 231.861 780.802 231.93 780.878 232.091V232.091Z" fill="white"/>
<path d="M780.803 234.317C780.981 234.293 781.146 234.416 781.17 234.591L781.411 236.334C781.436 236.51 781.311 236.672 781.132 236.696V236.696C780.954 236.72 780.79 236.597 780.765 236.421L780.524 234.678C780.5 234.503 780.624 234.341 780.803 234.317V234.317Z" fill="white"/>
<path d="M778.566 232.996C778.744 232.972 778.908 233.095 778.933 233.27L779.174 235.013C779.198 235.189 779.073 235.351 778.895 235.375V235.375C778.717 235.398 778.552 235.275 778.528 235.1L778.287 233.357C778.262 233.181 778.387 233.019 778.566 232.996V232.996Z" fill="white"/>
<path d="M768.977 227.356C768.908 227.172 768.7 227.078 768.513 227.146L766.659 227.822C766.472 227.89 766.376 228.095 766.445 228.279V228.279C766.515 228.463 766.722 228.557 766.909 228.489L768.764 227.813C768.951 227.745 769.046 227.54 768.977 227.356V227.356Z" fill="white"/>
<path d="M771.452 228.819C771.383 228.635 771.176 228.541 770.989 228.609L769.134 229.284C768.947 229.352 768.852 229.557 768.921 229.741V229.741C768.99 229.925 769.198 230.019 769.385 229.951L771.239 229.275C771.426 229.207 771.522 229.003 771.452 228.819V228.819Z" fill="white"/>
<path d="M768.822 227.49C768.62 227.517 768.435 227.378 768.407 227.18L768.135 225.212C768.107 225.014 768.248 224.831 768.45 224.804V224.804C768.651 224.777 768.837 224.916 768.864 225.114L769.137 227.082C769.164 227.28 769.023 227.463 768.822 227.49V227.49Z" fill="white"/>
<path d="M771.347 228.981C771.146 229.008 770.96 228.869 770.933 228.671L770.66 226.703C770.633 226.505 770.774 226.322 770.975 226.295V226.295C771.177 226.268 771.362 226.407 771.39 226.606L771.662 228.573C771.69 228.771 771.549 228.954 771.347 228.981V228.981Z" fill="white"/>
<path d="M285 185C285 188.314 282.314 191 279 191C275.686 191 273 188.314 273 185C273 181.686 275.686 179 279 179C282.314 179 285 181.686 285 185Z" fill="white"/>
<path d="M648 144C648 147.314 645.314 150 642 150C638.686 150 636 147.314 636 144C636 140.686 638.686 138 642 138C645.314 138 648 140.686 648 144Z" fill="white"/>
<path d="M178 52C178 54.2091 176.209 56 174 56C171.791 56 170 54.2091 170 52C170 49.7909 171.791 48 174 48C176.209 48 178 49.7909 178 52Z" fill="white"/>
<path d="M550 276C550 278.209 548.209 280 546 280C543.791 280 542 278.209 542 276C542 273.791 543.791 272 546 272C548.209 272 550 273.791 550 276Z" fill="white"/>
<path d="M832 86C832 88.2091 830.209 90 828 90C825.791 90 824 88.2091 824 86C824 83.7909 825.791 82 828 82C830.209 82 832 83.7909 832 86Z" fill="white"/>
<path d="M329 18C329 19.1046 328.105 20 327 20C325.895 20 325 19.1046 325 18C325 16.8954 325.895 16 327 16C328.105 16 329 16.8954 329 18Z" fill="white"/>
<path d="M137 223C137 224.105 136.105 225 135 225C133.895 225 133 224.105 133 223C133 221.895 133.895 221 135 221C136.105 221 137 221.895 137 223Z" fill="white"/>
</svg>
