<svg viewBox="0 0 119 57" fill="none" xmlns="http://www.w3.org/2000/svg">
<path d="M91 55.9816C75.3215 55.9816 71.0975 55.1884 67.4453 51.5363C63.7747 47.8656 63 43.6601 63 28C63 12.3215 63.7931 8.11596 67.4453 4.44532C71.0975 0.793149 75.3215 0 91 0C106.678 0 110.903 0.793149 114.555 4.44532C118.225 8.11596 119 12.3215 119 28C119 43.6785 118.225 47.8656 114.555 51.5547C110.884 55.1884 106.66 55.9816 91 55.9816Z" fill="white"/>
<path d="M79.8885 22.2058V32.0124H81.4729V37.5828H79.0379V34.1138H71.5829V37.5828H69.1479V32.0124H70.0652C70.4877 31.1785 70.8824 30.289 71.2494 29.3439C71.6163 28.3877 71.9443 27.3259 72.2333 26.1584C72.5336 24.991 72.7726 23.6734 72.9505 22.2058H79.8885ZM77.3701 24.3072H74.9518C74.8518 25.0744 74.6906 25.9083 74.4682 26.8089C74.2569 27.6984 74.0012 28.5934 73.701 29.494C73.4008 30.3835 73.0728 31.2229 72.717 32.0124H77.3701V24.3072Z" fill="#0C2B63"/>
<path d="M87.7549 34.1138H82.3346V32.6795L83.7856 32.0124V24.3072L82.3346 23.6401V22.2058H87.7549V23.6401L86.304 24.3072V32.0124L87.7549 32.6795V34.1138Z" fill="#0C2B63"/>
<path d="M97.0724 34.1138L96.2051 31.2785H91.8689L91.0016 34.1138H88.2832L92.486 22.1558H95.5714L99.7909 34.1138H97.0724ZM95.6047 29.1605L94.7375 26.3919C94.6819 26.2029 94.6096 25.9639 94.5207 25.6748C94.4317 25.3857 94.3428 25.0911 94.2538 24.7909C94.1649 24.4907 94.0926 24.2294 94.037 24.007C93.9814 24.2294 93.9036 24.5073 93.8035 24.8409C93.7146 25.1633 93.6256 25.4747 93.5367 25.7749C93.4589 26.0639 93.3977 26.2696 93.3532 26.3919L92.5027 29.1605H95.6047Z" fill="#0C2B63"/>
<path d="M101.299 34.1138V22.2058H110.722V34.1138H108.204V24.3072H103.817V34.1138H101.299Z" fill="#0C2B63"/>
<path d="M28.2932 29.3111H28.3705H28.2932ZM28.2932 29.3111H28.3361H28.2932ZM28.2932 29.3111V29.3884V29.3111ZM28.2932 29.3111V29.4142V29.3111ZM28.2932 29.3111V29.4056V29.3111ZM28.2932 29.2167L28.2417 29.2939L28.2932 29.2167ZM28.2417 29.0879L28.2932 29.2167L28.2417 29.0879ZM28.3018 29.2167V29.0965V29.2167ZM28.3018 29.1652V29.2167V29.1652ZM28.3018 29.2167L28.422 29.1394L28.3018 29.2167ZM28.3018 29.2167H28.2503H28.3018ZM28.3018 29.2167L28.1731 29.1652L28.3018 29.2167ZM48.3014 27.9888L47.443 28.0403C47.7245 27.8987 47.9776 27.7067 48.1898 27.4736C47.5234 26.9759 46.6868 26.7629 45.8636 26.8812L44.9023 27.01C45.5282 26.8791 46.0928 26.5438 46.5074 26.0569C45.8517 25.65 45.0613 25.5203 44.31 25.6963L43.5118 25.8766C44.0811 25.687 44.5707 25.3122 44.9023 24.8119C44.2631 24.4896 43.5223 24.4341 42.8423 24.6573L42.1642 24.872C42.6794 24.6518 43.1056 24.2647 43.3744 23.7729C42.8207 23.567 42.2115 23.567 41.6577 23.7729C42.196 23.5063 42.6241 23.0598 42.868 22.5107C42.3345 22.3488 41.7614 22.3761 41.2457 22.588L41.8723 22.2617C42.5052 21.933 42.9876 21.3735 43.2199 20.699C42.6381 20.5757 42.0315 20.6576 41.5032 20.9309L42.1813 20.493C42.8289 20.0808 43.293 19.4351 43.4774 18.6898C42.8387 18.6115 42.1926 18.7571 41.6491 19.102L42.4131 18.5181C43.0716 18.0144 43.5111 17.2765 43.6405 16.4574C43.3267 16.4375 43.0119 16.4783 42.7135 16.5776L43.3487 16.0195C43.6993 15.6742 43.9666 15.2534 44.1302 14.7892C44.2938 14.3249 44.3494 13.8295 44.2929 13.3406C43.8038 13.278 43.3068 13.3308 42.8418 13.4948C42.3767 13.6588 41.9565 13.9294 41.6148 14.2851L41.0483 14.929C41.1289 14.6387 41.158 14.3364 41.1341 14.036C40.3125 14.1577 39.5721 14.5989 39.0741 15.2639L38.4818 16.0367C38.8208 15.4875 38.9658 14.8405 38.8938 14.1992C38.1415 14.3615 37.4841 14.8153 37.0656 15.4614L36.6278 16.1483C36.8925 15.6172 36.974 15.0133 36.8596 14.431C36.205 14.6615 35.6641 15.135 35.3489 15.7533L35.0227 16.3801C35.2297 15.8602 35.2569 15.2859 35.0999 14.7487C34.5455 14.9844 34.0966 15.4151 33.8382 15.9594C34.0345 15.4038 34.0345 14.7977 33.8382 14.2421C33.3431 14.5066 32.9549 14.9344 32.7395 15.4528L32.9541 14.7745C33.1665 14.0848 33.1019 13.3394 32.7738 12.6966C32.2675 13.0216 31.8909 13.5138 31.7095 14.0876L31.8897 13.289C32.0549 12.54 31.9259 11.756 31.5292 11.0995C31.0209 11.4969 30.666 12.0583 30.5249 12.688L30.6537 11.7349C30.7627 10.912 30.5506 10.0786 30.0614 9.40802C29.8271 9.61564 29.6348 9.86631 29.4949 10.1464L29.5464 9.28781C29.5538 8.79378 29.4478 8.30463 29.2365 7.85805C29.0252 7.41146 28.7142 7.01935 28.3276 6.71191C27.9353 7.01486 27.6198 7.40588 27.4066 7.85336C27.1934 8.30084 27.0884 8.79223 27.1001 9.28781L27.1516 10.1464C27.0101 9.86487 26.818 9.61167 26.5851 9.39943C26.0876 10.0661 25.8746 10.9029 25.9928 11.7263L26.1216 12.688C25.9554 12.0516 25.5769 11.4912 25.0487 11.0995C24.6419 11.7554 24.5122 12.5461 24.6882 13.2976L24.8684 14.0962C24.6806 13.5234 24.3057 13.0305 23.8041 12.6966C23.4819 13.336 23.4264 14.077 23.6495 14.7573L23.8641 15.4356C23.6434 14.9206 23.2566 14.4943 22.7654 14.2249C22.5596 14.7789 22.5596 15.3883 22.7654 15.9422C22.5005 15.4006 22.054 14.9691 21.5037 14.723C21.343 15.274 21.3826 15.8641 21.6153 16.3887L21.2633 15.7533C20.9346 15.1202 20.3754 14.6376 19.7011 14.4053C19.5778 14.9873 19.6597 15.5941 19.9329 16.1225L19.4951 15.4356C19.0831 14.7878 18.4377 14.3236 17.6926 14.1391C17.615 14.778 17.7605 15.4241 18.1046 15.968L17.5209 15.2038C17.0049 14.5656 16.2652 14.1481 15.4523 14.036C15.452 14.3292 15.5043 14.62 15.6068 14.8947L15.0489 14.2593C14.6971 13.9092 14.2694 13.645 13.799 13.4871C13.3286 13.3293 12.8281 13.2821 12.3365 13.3491C12.2739 13.8384 12.3267 14.3355 12.4907 14.8007C12.6546 15.2659 12.9252 15.6862 13.2807 16.0281L13.8901 16.6119C13.6144 16.5149 13.3241 16.4655 13.0318 16.466C13.1533 17.2879 13.5945 18.0285 14.2592 18.5267L15.0231 19.1106C14.4742 18.7715 13.8274 18.6264 13.1863 18.6984C13.3631 19.4472 13.8291 20.0955 14.4824 20.5016L15.1691 20.9395C14.6381 20.6747 14.0345 20.5932 13.4524 20.7076C13.664 21.3799 14.1288 21.9434 14.7485 22.2789L15.3836 22.6052C14.864 22.3974 14.2897 22.3702 13.7528 22.5279C13.9884 23.0825 14.4189 23.5316 14.963 23.7901C14.4077 23.5937 13.8017 23.5937 13.2463 23.7901C13.508 24.2843 13.9326 24.6726 14.448 24.8892L13.7785 24.6745C13.0975 24.4595 12.3599 24.5149 11.7185 24.8291C12.0434 25.3356 12.5354 25.7122 13.109 25.8938L12.3193 25.7134C11.5592 25.5314 10.758 25.6547 10.0876 26.0569C10.4849 26.5654 11.0461 26.9204 11.6756 27.0615L10.7142 26.9327C9.89159 26.8246 9.05887 27.0367 8.38809 27.5252C8.59564 27.7596 8.84623 27.9519 9.12627 28.0919L8.26792 28.0403C7.77334 28.0339 7.28391 28.1413 6.83742 28.3542C6.39093 28.5671 5.99934 28.8798 5.69287 29.2682C5.99661 29.659 6.3879 29.9729 6.83518 30.1847C7.28246 30.3965 7.77323 30.5002 8.26792 30.4874L9.12627 30.4359C8.84479 30.5775 8.59167 30.7696 8.37951 31.0026C9.04633 31.4995 9.88248 31.7124 10.7056 31.5951L11.667 31.4663C11.0373 31.6127 10.475 31.9665 10.0705 32.4709C10.7235 32.8764 11.5107 33.0061 12.2592 32.8315L13.0575 32.6512C12.4843 32.8619 11.9999 33.2616 11.6842 33.7846C12.3233 34.1068 13.0641 34.1624 13.7442 33.9391L14.4223 33.7245C13.9071 33.9447 13.4808 34.3318 13.212 34.8235C13.7656 35.0302 14.3751 35.0302 14.9287 34.8235C14.3905 35.0902 13.9624 35.5367 13.7184 36.0857C14.2546 36.2497 14.831 36.2224 15.3493 36.0084L14.7485 36.3605C14.1189 36.6852 13.6369 37.238 13.4009 37.906C13.9827 38.0294 14.5893 37.9475 15.1176 37.6742L14.4309 38.1121C13.7833 38.5242 13.3192 39.1699 13.1348 39.9152C13.7763 39.9942 14.4253 39.8485 14.9716 39.5031L14.1991 40.0955C13.5631 40.6097 13.1458 41.3462 13.0318 42.1563C13.3228 42.1676 13.6134 42.1269 13.8901 42.036L13.2549 42.5942C12.9043 42.9395 12.637 43.3603 12.4734 43.8245C12.3098 44.2887 12.2542 44.7841 12.3107 45.2731C12.7999 45.3357 13.2968 45.2829 13.7619 45.1188C14.2269 44.9548 14.6471 44.6842 14.9888 44.3286L15.5553 43.6846C15.4551 43.986 15.4114 44.3033 15.4266 44.6205C16.2482 44.4989 16.9886 44.0576 17.4866 43.3927L18.0703 42.6199C17.732 43.1693 17.587 43.8161 17.6583 44.4574C18.4068 44.2805 19.0549 43.8144 19.4608 43.1609L19.8986 42.4654C19.6316 42.9957 19.5471 43.5993 19.6582 44.1826C20.3361 43.9567 20.8975 43.4722 21.2204 42.8346L21.5466 42.1992C21.3395 42.7191 21.3123 43.2934 21.4693 43.8306C22.0238 43.5949 22.4726 43.1642 22.7311 42.6199C22.5348 43.1755 22.5348 43.7816 22.7311 44.3372C23.2266 44.0733 23.615 43.6453 23.8298 43.1265L23.6152 43.8048C23.4003 44.4861 23.4556 45.224 23.7697 45.8655C24.276 45.5405 24.6526 45.0484 24.8341 44.4746L24.6538 45.2731C24.4824 46.0457 24.6244 46.8547 25.0487 47.5227C25.557 47.1253 25.9119 46.564 26.0529 45.9342L25.9242 46.8959C25.8204 47.729 26.0452 48.5698 26.5508 49.24C26.7851 49.0324 26.9774 48.7817 27.1173 48.5015L27.0658 49.3602C27.0584 49.8542 27.1644 50.3434 27.3757 50.7899C27.587 51.2365 27.898 51.6286 28.2846 51.9361C28.6769 51.6331 28.9924 51.2421 29.2056 50.7946C29.4188 50.3471 29.5238 49.8558 29.5121 49.3602L29.4606 48.5015C29.6021 48.7831 29.7942 49.0363 30.0271 49.2486C30.5246 48.5819 30.7376 47.7451 30.6194 46.9217L30.4906 45.96C30.6462 46.5786 31.0024 47.1281 31.5035 47.5227C31.9102 46.8668 32.0399 46.0761 31.864 45.3246L31.6837 44.5261C31.8799 45.0994 32.2641 45.5896 32.7738 45.9171C33.095 45.2774 33.1506 44.5367 32.9283 43.8563L32.7137 43.178C32.9344 43.6931 33.3212 44.1193 33.8124 44.3887C34.0182 43.8348 34.0182 43.2253 33.8124 42.6714C34.079 43.2098 34.5253 43.6381 35.0742 43.8821C35.2381 43.3458 35.2108 42.7691 34.9969 42.2507L35.3231 42.8775C35.6518 43.5106 36.2111 43.9932 36.8853 44.2256C37.0086 43.6435 36.9267 43.0368 36.6536 42.5083L37.0913 43.1952C37.5033 43.843 38.1488 44.3073 38.8938 44.4917C38.9735 43.85 38.8279 43.2005 38.4818 42.6543L39.0655 43.4184C39.5691 44.0772 40.3067 44.5169 41.1256 44.6463C41.1455 44.3323 41.1047 44.0175 41.0054 43.719L41.5633 44.3544C41.9085 44.7051 42.3292 44.9725 42.7932 45.1361C43.2573 45.2998 43.7526 45.3555 44.2414 45.2989C44.3039 44.8096 44.2511 44.3125 44.0872 43.8473C43.9232 43.3821 43.6527 42.9617 43.2972 42.6199L42.6534 42.0532C42.9547 42.1535 43.2719 42.1971 43.589 42.182C43.4674 41.3601 43.0263 40.6195 42.3616 40.1213L41.5891 39.5288C42.1383 39.8673 42.7848 40.0123 43.4259 39.941C43.3457 39.5594 43.1896 39.1978 42.9669 38.8778C42.7443 38.5577 42.4596 38.2856 42.1298 38.0778L41.4431 37.6399C41.9741 37.9046 42.5777 37.9861 43.1598 37.8717C42.9266 37.2159 42.4502 36.6749 41.8294 36.3605L41.1942 36.0342C41.7141 36.2407 42.288 36.2679 42.8251 36.1115C42.5895 35.5569 42.1589 35.1079 41.6148 34.8493C42.1702 35.0457 42.7761 35.0457 43.3315 34.8493C43.0698 34.3551 42.6452 33.9668 42.1298 33.7502L42.8079 33.9649C43.489 34.1799 44.2266 34.1245 44.868 33.8104C44.543 33.3039 44.051 32.9272 43.4774 32.7456L44.2757 32.926C45.0437 33.0901 45.8455 32.9452 46.5074 32.5224C46.1097 32.0145 45.5487 31.6596 44.9195 31.5178L45.8722 31.6466C46.7034 31.7625 47.547 31.55 48.2241 31.0541C48.0166 30.8197 47.766 30.6274 47.4859 30.4874L48.3443 30.539C48.8381 30.5464 49.3271 30.4403 49.7736 30.2289C50.22 30.0176 50.612 29.7065 50.9193 29.3197C50.6165 28.9273 50.2256 28.6117 49.7783 28.3984C49.3309 28.1851 48.8397 28.0801 48.3443 28.0919" fill="#C9C9C9"/>
<path d="M28.2935 6.73763V29.3111L29.5123 9.29636C29.5197 8.80232 29.4137 8.31318 29.2024 7.86659C28.9911 7.42 28.6801 7.02789 28.2935 6.72046" fill="#807E7D"/>
<path d="M12.3364 13.3491L28.2931 29.3111L15.0145 14.2936C14.6693 13.9429 14.2486 13.6755 13.7845 13.5118C13.3205 13.3482 12.8252 13.2925 12.3364 13.3491Z" fill="#807E7D"/>
<path d="M5.72713 29.3111H28.2931L8.28501 28.0833C7.79043 28.0769 7.301 28.1843 6.85451 28.3972C6.40802 28.6101 6.01643 28.9228 5.70996 29.3111" fill="#807E7D"/>
<path d="M12.3364 45.2733L28.2931 29.3113L13.2806 42.5943C12.93 42.9397 12.6627 43.3604 12.4991 43.8247C12.3355 44.2889 12.2798 44.7843 12.3364 45.2733Z" fill="#807E7D"/>
<path d="M28.2934 51.8847V29.3113L27.0746 49.3174C27.0672 49.8114 27.1732 50.3006 27.3845 50.7472C27.5958 51.1938 27.9068 51.5859 28.2934 51.8933" fill="#807E7D"/>
<path d="M44.2502 45.2733L28.2935 29.3113L41.5721 44.3202C41.9174 44.6709 42.338 44.9383 42.8021 45.102C43.2661 45.2656 43.7614 45.3213 44.2502 45.2647" fill="#807E7D"/>
<path d="M50.8595 29.3113H28.2935L48.293 30.5305C48.7869 30.538 49.2759 30.4319 49.7223 30.2205C50.1687 30.0091 50.5607 29.6981 50.8681 29.3113" fill="#807E7D"/>
<path d="M44.2502 13.3491L28.2935 29.3111L43.2974 16.0281C43.6486 15.6831 43.9162 15.2624 44.0799 14.798C44.2435 14.3337 44.2988 13.8381 44.2416 13.3491" fill="#807E7D"/>
<path d="M26.5508 9.4082L28.2675 29.3113L27.5379 11.5977C27.5026 10.768 27.1491 9.98389 26.5508 9.4082Z" fill="#807E7D"/>
<path d="M13.0317 16.4661L28.3361 29.3456L15.2806 17.3247C14.6697 16.7591 13.864 16.4515 13.0317 16.4661Z" fill="#807E7D"/>
<path d="M8.39648 31.0542L28.293 29.3369L10.5853 30.0925C9.75952 30.121 8.97613 30.4652 8.39648 31.0542Z" fill="#807E7D"/>
<path d="M15.4524 44.6122L28.3276 29.3027L16.3021 42.3711C15.7375 42.9827 15.4301 43.7884 15.4438 44.6207" fill="#807E7D"/>
<path d="M30.0355 49.24L28.3188 29.3369L29.0742 47.0505C29.1027 47.8765 29.4467 48.6602 30.0355 49.24Z" fill="#807E7D"/>
<path d="M43.589 42.1563L28.2847 29.2769L41.3573 41.2977C41.9687 41.8625 42.7741 42.1701 43.6062 42.1563" fill="#807E7D"/>
<path d="M48.2242 27.5681L28.3276 29.2854L46.0354 28.5298C46.8612 28.5013 47.6445 28.1571 48.2242 27.5681Z" fill="#807E7D"/>
<path d="M41.134 14.0361L28.2588 29.3455L40.2757 16.2857C40.8411 15.6747 41.1486 14.8687 41.134 14.0361Z" fill="#807E7D"/>
<path d="M25.0483 11.0994L28.2586 29.311L26.1642 13.0399C26.0577 12.2728 25.6576 11.5771 25.0483 11.0994Z" fill="#807E7D"/>
<path d="M13.1519 18.7072L28.2931 29.3113L15.2891 19.3082C14.6804 18.8406 13.915 18.6254 13.1519 18.7072Z" fill="#807E7D"/>
<path d="M10.0874 32.5226L28.293 29.3113L12.0273 31.4321C11.2657 31.5299 10.571 31.9173 10.0874 32.514" fill="#807E7D"/>
<path d="M17.6928 44.4576L28.2934 29.3113L18.2936 42.311C17.8262 42.9199 17.611 43.6855 17.6928 44.449" fill="#807E7D"/>
<path d="M31.5037 47.5229L28.2935 29.3113L30.4222 45.5824C30.5208 46.3439 30.9079 47.0385 31.5037 47.5229Z" fill="#807E7D"/>
<path d="M43.4347 39.9154L28.2935 29.3113L41.2975 39.3058C41.9062 39.7733 42.6716 39.9886 43.4347 39.9068" fill="#807E7D"/>
<path d="M46.5076 26.0569L28.2935 29.3111L44.5592 27.1817C45.3304 27.0751 46.0295 26.6715 46.5076 26.0569Z" fill="#807E7D"/>
<path d="M38.8941 14.1648L28.2935 29.3111L38.2932 16.3028C38.7607 15.6938 38.9758 14.9282 38.8941 14.1648Z" fill="#807E7D"/>
<path d="M23.8384 12.6966L28.2846 29.3111L25.0057 14.4053C24.8558 13.7046 24.4405 13.0892 23.847 12.688" fill="#807E7D"/>
<path d="M13.4005 20.7077L28.2928 29.294L15.4176 21.0855C14.8148 20.6987 14.0858 20.5602 13.3833 20.6991" fill="#807E7D"/>
<path d="M11.6839 33.7846L28.2929 29.3369L13.392 32.5997C12.6919 32.7506 12.077 33.1658 11.6753 33.7589" fill="#807E7D"/>
<path d="M19.6928 44.2L28.2763 29.3027L20.0619 42.1822C19.6761 42.7855 19.5377 43.5144 19.6756 44.2172" fill="#807E7D"/>
<path d="M32.774 45.9172L28.2935 29.3113L31.5809 44.2085C31.7318 44.9089 32.1468 45.524 32.7397 45.9258" fill="#807E7D"/>
<path d="M43.177 37.9061L28.2847 29.3198L41.1599 37.5369C41.763 37.9229 42.4917 38.0613 43.1942 37.9233" fill="#807E7D"/>
<path d="M44.8939 24.855L28.2935 29.3113L43.1858 26.0571C43.8859 25.9062 44.5008 25.491 44.9025 24.8979" fill="#807E7D"/>
<path d="M36.8853 14.4139L28.3018 29.3112L36.5162 16.4317C36.902 15.8284 37.0403 15.0995 36.9024 14.3967" fill="#807E7D"/>
<path d="M22.8081 14.2251L28.293 29.3027L24.027 15.7535C23.8294 15.1164 23.3924 14.5808 22.8081 14.2594" fill="#807E7D"/>
<path d="M13.7524 22.5281L28.2929 29.3113L15.6751 22.7255C15.0842 22.4125 14.3947 22.3417 13.7524 22.5281Z" fill="#807E7D"/>
<path d="M13.2202 34.7979L28.2928 29.3113L14.7481 33.5787C14.1112 33.7763 13.5758 34.2134 13.2545 34.7979" fill="#807E7D"/>
<path d="M21.5122 43.8565L28.2931 29.3113L21.7096 41.9332C21.3966 42.5243 21.3258 43.2141 21.5122 43.8565Z" fill="#807E7D"/>
<path d="M33.7783 44.3889L28.2935 29.3113L32.5852 42.8948C32.7828 43.5319 33.2197 44.0675 33.8041 44.3889" fill="#807E7D"/>
<path d="M42.8339 36.0945L28.2935 29.3113L40.9112 35.897C41.5022 36.2101 42.1917 36.2809 42.8339 36.0945Z" fill="#807E7D"/>
<path d="M43.3661 23.816L28.2935 29.3112L41.8726 25.0181C42.5094 24.8204 43.0448 24.3834 43.3661 23.7988" fill="#807E7D"/>
<path d="M35.0744 14.7661L28.2935 29.3113L34.877 16.6894C35.19 16.0983 35.2608 15.4085 35.0744 14.7661Z" fill="#807E7D"/>
<path d="M33.7783 14.2251L28.2935 29.3113L33.7526 16.157C34.0031 15.5374 34.0031 14.8447 33.7526 14.2251" fill="#807E7D"/>
<path d="M21.5122 14.7661L28.2932 29.3113L22.8598 16.1485C22.6068 15.5304 22.1236 15.0347 21.5122 14.7661Z" fill="#807E7D"/>
<path d="M13.2205 23.816L28.2931 29.3027L15.1432 23.8418C14.5238 23.5911 13.8313 23.5911 13.2119 23.8418" fill="#807E7D"/>
<path d="M13.7524 36.0945L28.2929 29.3113L15.1344 34.7464C14.5164 34.9995 14.0209 35.4829 13.7524 36.0945Z" fill="#807E7D"/>
<path d="M22.8086 44.3889L28.2935 29.3113L22.8344 42.4569C22.5838 43.0765 22.5838 43.7693 22.8344 44.3889" fill="#807E7D"/>
<path d="M35.0744 43.8565L28.2935 29.3113L33.7268 42.4741C33.9798 43.0923 34.463 43.5879 35.0744 43.8565Z" fill="#807E7D"/>
<path d="M43.3661 34.7979L28.2935 29.3113L41.4434 34.7722C42.0628 35.0228 42.7553 35.0228 43.3747 34.7722" fill="#807E7D"/>
<path d="M42.8339 22.5278L28.2935 29.311L41.452 23.8759C42.0699 23.6228 42.5654 23.1394 42.8339 22.5278Z" fill="#807E7D"/>
<path d="M32.774 12.6965L28.2935 29.3111L32.8942 14.7573C33.1207 14.0805 33.0777 13.3424 32.774 12.6965Z" fill="#807E7D"/>
<path d="M19.6924 14.4139L28.2759 29.3111L21.2632 15.7533C20.9345 15.1202 20.3752 14.6376 19.701 14.4053" fill="#807E7D"/>
<path d="M11.6841 24.8548L28.2932 29.3025L13.7441 24.7088C13.0631 24.4938 12.3255 24.5492 11.6841 24.8633" fill="#807E7D"/>
<path d="M13.4009 37.9061L28.2933 29.3198L14.7485 36.3606C14.1189 36.6853 13.6369 37.2381 13.4009 37.9061Z" fill="#807E7D"/>
<path d="M23.8383 45.9173L28.2846 29.3027L23.6924 43.8566C23.4775 44.5378 23.5328 45.2757 23.8469 45.9173" fill="#807E7D"/>
<path d="M36.8853 44.2L28.3018 29.3027L35.3488 42.852C35.6775 43.485 36.2367 43.9676 36.911 44.2" fill="#807E7D"/>
<path d="M44.8939 33.7848L28.2935 29.3113L42.8339 33.9135C43.515 34.1285 44.2526 34.0732 44.8939 33.759" fill="#807E7D"/>
<path d="M43.177 20.7078L28.2847 29.2941L41.8294 22.2791C42.4623 21.9503 42.9447 21.3908 43.177 20.7164" fill="#807E7D"/>
<path d="M31.5037 11.0994L28.2935 29.311L31.8556 13.2975C32.0208 12.5484 31.8918 11.7644 31.4951 11.108" fill="#807E7D"/>
<path d="M17.6929 14.1648L28.2935 29.3111L19.4954 15.4613C19.0834 14.8135 18.4379 14.3493 17.6929 14.1648Z" fill="#807E7D"/>
<path d="M10.0874 26.0567L28.293 29.268L12.2848 25.739C11.5387 25.5585 10.7519 25.6723 10.0874 26.0567Z" fill="#807E7D"/>
<path d="M13.1519 39.9154L28.2931 29.3113L14.448 38.0779C13.8004 38.4901 13.3363 39.1357 13.1519 39.881" fill="#807E7D"/>
<path d="M25.0489 47.5229L28.2591 29.3113L24.7227 45.3248C24.5458 46.0722 24.6625 46.8591 25.0489 47.5229Z" fill="#807E7D"/>
<path d="M38.8941 44.4576L28.2935 29.3113L37.0658 43.1524C37.4778 43.8002 38.1233 44.2645 38.8683 44.449" fill="#807E7D"/>
<path d="M46.5076 32.5226L28.2935 29.3113L44.3017 32.8746C45.0548 33.0471 45.8455 32.9209 46.5076 32.5226Z" fill="#807E7D"/>
<path d="M43.4347 18.707L28.2935 29.3111L42.1301 20.5102C42.7776 20.098 43.2418 19.4523 43.4262 18.707" fill="#807E7D"/>
<path d="M30.0355 9.4082L28.3188 29.3113L30.6192 11.7351C30.7282 10.9121 30.5161 10.0788 30.027 9.4082" fill="#807E7D"/>
<path d="M15.4521 14.0361L28.3274 29.3455L17.5122 15.2296C17.0021 14.5844 16.2655 14.1577 15.4521 14.0361Z" fill="#807E7D"/>
<path d="M8.39648 27.5682L28.293 29.2854L10.7226 26.9757C9.89993 26.8667 9.06688 27.0789 8.39648 27.5682Z" fill="#807E7D"/>
<path d="M13.0317 42.1563L28.3361 29.2769L14.2163 40.087C13.5719 40.6003 13.1481 41.3406 13.0317 42.1563Z" fill="#807E7D"/>
<path d="M26.5509 49.24L28.2676 29.3369L25.9586 46.8874C25.8428 47.7188 26.0552 48.5626 26.5509 49.24Z" fill="#807E7D"/>
<path d="M41.134 44.6121L28.2588 29.3027L39.0654 43.3843C39.569 44.0431 40.3066 44.4827 41.1255 44.6121" fill="#807E7D"/>
<path d="M48.2242 31.0542L28.3276 29.3369L45.8637 31.638C46.6966 31.7587 47.5436 31.5492 48.2242 31.0542Z" fill="#807E7D"/>
<path d="M43.589 16.4661L28.2847 29.3455L42.3616 18.5268C43.0201 18.0231 43.4597 17.2852 43.589 16.4661Z" fill="#807E7D"/>
<path d="M28.3015 38.7905C28.3015 38.7905 24.19 36.953 22.8424 36.3606C22.4537 36.1585 22.1261 35.8561 21.8937 35.4847C21.6613 35.1132 21.5324 34.6864 21.5205 34.2483V19.8062H35.0567V34.2483C35.0456 34.6855 34.9181 35.1118 34.6872 35.4831C34.4563 35.8544 34.1305 36.1574 33.7434 36.3606C32.3786 36.953 28.3015 38.7905 28.3015 38.7905Z" fill="#283A68"/>
<path d="M22.9198 36.2059C24.1816 36.7554 27.7438 38.3525 28.3017 38.6015C28.851 38.3525 32.4046 36.7554 33.6664 36.2059C34.0219 36.0178 34.3216 35.7395 34.5356 35.3989C34.7495 35.0583 34.8701 34.6674 34.8852 34.2654V19.9863H21.701V34.2568C21.7126 34.6596 21.8317 35.052 22.046 35.3932C22.2604 35.7344 22.5621 36.0121 22.9198 36.1973V36.2059ZM28.3017 38.9793H28.2244C28.2244 38.9793 24.1215 37.1332 22.7739 36.5493C22.3547 36.3361 22.0019 36.0121 21.7537 35.6125C21.5056 35.2129 21.3716 34.7529 21.3662 34.2825V19.6858H35.2371V34.2825C35.2318 34.7529 35.0978 35.2129 34.8496 35.6125C34.6015 36.0121 34.2486 36.3361 33.8295 36.5493C32.4818 37.1332 28.4304 38.9621 28.3961 38.9793H28.3017Z" fill="#FFDC2E"/>
<path d="M32.336 29.8865H31.9154C31.8572 29.661 31.7502 29.451 31.6018 29.2715C31.4535 29.0919 31.2675 28.9472 31.0571 28.8476C31.0571 28.8476 31.2888 26.9071 31.409 25.911C31.5821 25.1819 31.9067 24.4973 32.3617 23.9018L32.336 29.8865ZM32.336 33.1407H30.5335C30.529 32.7314 30.4713 32.3244 30.3618 31.9301C30.7158 31.9109 31.0552 31.7826 31.3334 31.5628C31.6116 31.3429 31.8149 31.0423 31.9154 30.7022H32.3532L32.336 33.1407ZM28.7052 33.1407C28.7146 32.9021 28.8046 32.6737 28.9605 32.4928C29.1164 32.3119 29.3289 32.1892 29.5635 32.1447C29.6592 32.4677 29.7027 32.804 29.6923 33.1407H28.7052ZM28.7052 35.6136V33.9307H29.5635C29.472 34.5664 29.1697 35.153 28.7052 35.5964V35.6136ZM28.2846 31.9644L27.349 31.3376C27.7562 30.6493 28.0708 29.9102 28.2846 29.1395C28.4982 29.9103 28.8128 30.6494 29.2202 31.3376L28.2846 31.9644ZM26.8941 33.1321C26.883 32.7954 26.9265 32.459 27.0228 32.1361C27.2574 32.1806 27.47 32.3033 27.6259 32.4842C27.7818 32.6651 27.8717 32.8935 27.8812 33.1321H26.8941ZM27.864 35.605C27.3995 35.1616 27.0972 34.575 27.0056 33.9393H27.864V35.605ZM26.0529 33.1493H24.2503V30.7022H24.6881C24.7876 31.0397 24.9883 31.3384 25.2631 31.558C25.5379 31.7776 25.8735 31.9075 26.2245 31.9301C26.1153 32.3245 26.0576 32.7314 26.0529 33.1407V33.1493ZM24.2503 23.9018C24.7053 24.4973 25.03 25.1819 25.2031 25.911C25.3233 26.9071 25.555 28.8476 25.555 28.8476C25.3446 28.9472 25.1586 29.0919 25.0102 29.2715C24.8619 29.451 24.7549 29.661 24.6967 29.8865H24.2589L24.2503 23.9018ZM30.542 25.8424L30.1386 29.4915C30.2012 29.4824 30.2648 29.4824 30.3275 29.4915C30.4562 29.4915 31.1343 29.6633 31.1343 30.2815C31.1346 30.502 31.0501 30.7141 30.8983 30.8739C30.7465 31.0338 30.539 31.1291 30.3189 31.1401C30.0614 31.1401 30.0356 31.1401 30.0356 31.1401C29.2028 29.8322 28.7647 28.3118 28.7738 26.7611C28.7738 25.0438 28.8854 23.5498 28.8854 22.6826C28.8866 22.0911 28.6766 21.5186 28.2932 21.0684C27.9223 21.5025 27.713 22.0516 27.7009 22.6225C27.7009 23.4811 27.8125 25.0181 27.8125 26.701C27.8216 28.2517 27.3835 29.7721 26.5507 31.08C26.5507 31.08 26.5507 31.08 26.276 31.08C26.0559 31.069 25.8485 30.9737 25.6967 30.8138C25.5449 30.654 25.4603 30.4419 25.4606 30.2214C25.4606 29.6032 26.1387 29.4314 26.2675 29.4314C26.3329 29.4215 26.3994 29.4215 26.4649 29.4314L26.0443 25.7565C25.9112 24.9935 25.6114 24.2693 25.1663 23.6355C24.7211 23.0018 24.1417 22.4741 23.4692 22.0901V33.9307H26.1645C26.3492 35.0138 26.9421 35.9849 27.8211 36.6439C27.8211 36.6439 28.2846 37.0389 28.3017 37.1677C28.3017 37.0389 28.7824 36.6439 28.7824 36.6439C29.6614 35.9849 30.2543 35.0138 30.439 33.9307H33.1686V22.1588C32.4961 22.5428 31.9167 23.0704 31.4716 23.7042C31.0265 24.338 30.7266 25.0622 30.5935 25.8252" fill="#FFDC2E"/>
<path d="M44.559 36.0428L51.297 29.3111L44.559 22.5708V13.0486H35.0313L28.3018 6.30835L21.5638 13.0486H12.0447V22.5708L5.30664 29.3111L12.0447 36.0428V45.5736H21.5638L28.3018 52.3139L35.0313 45.5736H44.559V36.0428Z" fill="white"/>
<path d="M28.3015 29.3111H28.3702H28.3015ZM28.3015 29.3111H28.3444H28.3015ZM28.3015 29.3111V29.3884V29.3111ZM28.3015 29.3111V29.4056V29.3111ZM28.3015 29.3111V29.397V29.3111ZM28.3015 29.2253L28.2586 29.294L28.3015 29.2253ZM28.25 29.1051L28.3015 29.2253L28.25 29.1051ZM28.3015 29.2253V29.1137V29.2253ZM28.3015 29.1823V29.2339V29.1823ZM28.3015 29.2339L28.4131 29.1652L28.3015 29.2339ZM28.3015 29.2339H28.2586H28.3015ZM28.3015 29.2339L28.1899 29.1823L28.3015 29.2339ZM46.4213 28.2035L45.6487 28.255C45.9044 28.1263 46.1343 27.9517 46.3268 27.7398C45.7212 27.2898 44.9618 27.0983 44.2153 27.2075L43.3569 27.3277C43.9263 27.1906 44.4319 26.8635 44.7904 26.4004C44.4974 26.2149 44.1706 26.0891 43.8289 26.0301C43.4872 25.9712 43.1372 25.9803 42.799 26.0569L42.078 26.2201C42.5943 26.0498 43.0386 25.7112 43.3398 25.2584C42.7613 24.9689 42.0919 24.9195 41.4772 25.121L40.8677 25.3185C41.3262 25.1204 41.7064 24.7762 41.9493 24.3397C41.4405 24.1463 40.8786 24.1463 40.3699 24.3397C40.8597 24.1012 41.2491 23.6965 41.4686 23.1977C40.9834 23.0487 40.4615 23.0729 39.9922 23.2664L40.5587 22.9744C41.1313 22.6756 41.5675 22.1685 41.7776 21.5577C41.2449 21.4452 40.6898 21.5211 40.2068 21.7723L40.8248 21.3774C41.4112 21.0044 41.8322 20.4204 42.0008 19.746C41.4225 19.674 40.8372 19.8045 40.3441 20.1152L41.0308 19.5828C41.6297 19.1258 42.0294 18.4553 42.1467 17.711C41.856 17.6914 41.5643 17.7293 41.2883 17.8226L41.8634 17.316C42.1811 17.0043 42.4235 16.6242 42.5723 16.2046C42.721 15.785 42.7721 15.337 42.7218 14.8947C42.2793 14.839 41.83 14.8877 41.4097 15.0368C40.9894 15.1858 40.6098 15.4312 40.3012 15.7533L39.7862 16.3372C39.8764 16.0604 39.9142 15.7692 39.8978 15.4786C39.1509 15.588 38.4779 15.9895 38.0266 16.5948L37.4944 17.2903C37.8318 16.7912 37.9837 16.1897 37.9236 15.5902C37.5878 15.6695 37.271 15.8142 36.9912 16.0161C36.7114 16.2179 36.474 16.4729 36.2927 16.7665L35.8979 17.3847C36.1431 16.8997 36.2186 16.3465 36.1125 15.8134C35.4977 16.0164 34.9884 16.4548 34.6962 17.0327L34.3958 17.608C34.5837 17.1374 34.6079 16.6172 34.4644 16.1311C33.9623 16.3455 33.5562 16.7365 33.3228 17.2302C33.5092 16.7201 33.5092 16.1604 33.3228 15.6503C32.8737 15.8902 32.5217 16.2787 32.3272 16.7493L32.5246 16.1311C32.7196 15.5154 32.6704 14.8483 32.3872 14.2679C31.9303 14.5646 31.5905 15.0107 31.4259 15.5301L31.589 14.8088C31.739 14.1303 31.6222 13.4201 31.2628 12.8254C30.8031 13.1839 30.4816 13.6906 30.3529 14.2593L30.4645 13.4007C30.5653 12.6543 30.3747 11.8979 29.9324 11.2884C29.7193 11.4766 29.5445 11.704 29.4173 11.9582L29.4603 11.194C29.4566 10.746 29.3503 10.3048 29.1494 9.90433C28.9485 9.5039 28.6584 9.15492 28.3015 8.88428C27.9489 9.1575 27.6651 9.50946 27.4729 9.91201C27.2806 10.3146 27.1852 10.7565 27.1942 11.2026L27.2457 11.9754C27.1169 11.7197 26.9424 11.4898 26.7307 11.297C26.2808 11.9029 26.0894 12.6625 26.1985 13.4093L26.3101 14.2679C26.1789 13.6933 25.8548 13.1812 25.3917 12.8168C25.0195 13.4065 24.896 14.1197 25.0483 14.8003L25.2114 15.5215C25.0412 15.005 24.7027 14.5606 24.2501 14.2593C23.9598 14.8378 23.9104 15.5077 24.1127 16.1225L24.3102 16.7408C24.1137 16.2789 23.7695 15.8954 23.3316 15.6503C23.137 16.1619 23.137 16.7272 23.3316 17.2388C23.0932 16.7487 22.6887 16.3593 22.19 16.1397C22.0418 16.6252 22.066 17.147 22.2587 17.6166L21.9669 17.0499C21.6688 16.4766 21.1617 16.04 20.5506 15.8306C20.4396 16.357 20.5123 16.9055 20.7566 17.3847L20.3618 16.7665C19.9895 16.1793 19.4055 15.758 18.7309 15.5902C18.6452 16.1616 18.754 16.7453 19.0399 17.2474L18.5077 16.5604C18.0508 15.9614 17.3806 15.5616 16.6365 15.4442C16.6169 15.735 16.6548 16.0268 16.7481 16.3029L16.2417 15.7276C15.9352 15.424 15.5655 15.1919 15.1589 15.0479C14.7523 14.9039 14.3189 14.8516 13.8898 14.8947C13.8341 15.3373 13.8828 15.7868 14.0318 16.2072C14.1808 16.6277 14.4262 17.0074 14.7481 17.316L15.3318 17.8312C15.0551 17.741 14.764 17.7032 14.4735 17.7196C14.5829 18.4668 14.9842 19.14 15.5893 19.5914L16.2846 20.1238C15.7886 19.8121 15.2013 19.6788 14.6194 19.746C14.7804 20.4239 15.2032 21.0104 15.7953 21.3774L16.4219 21.7723C15.9371 21.5271 15.384 21.4515 14.8511 21.5577C15.0549 22.1722 15.4929 22.6814 16.07 22.9744L16.6451 23.275C16.1745 23.0877 15.6547 23.0635 15.1687 23.2063C15.3748 23.6976 15.7491 24.0994 16.2245 24.3397C15.7147 24.1525 15.155 24.1525 14.6451 24.3397C14.8822 24.7879 15.2675 25.14 15.7352 25.3357L15.1258 25.1382C14.5102 24.944 13.8437 24.9932 13.2632 25.2756C13.5598 25.7326 14.0057 26.0725 14.525 26.2372L13.7954 26.0569C13.1171 25.9068 12.4071 26.0237 11.8126 26.3832C12.1731 26.8448 12.6829 27.1665 13.2546 27.2934L12.3963 27.1817C11.6394 27.0957 10.8789 27.3083 10.2761 27.7742C10.4645 27.987 10.6917 28.1618 10.9457 28.2894L10.1817 28.2379C9.74234 28.2325 9.30741 28.3263 8.90918 28.5121C8.51095 28.6979 8.15965 28.971 7.88135 29.3111C8.15448 29.6638 8.50632 29.9477 8.90874 30.14C9.31116 30.3324 9.75299 30.4278 10.1989 30.4188L10.9714 30.3673C10.7158 30.4961 10.486 30.6707 10.2933 30.8824C10.899 31.3325 11.6583 31.5239 12.4049 31.4148L13.2632 31.2946C12.6931 31.4253 12.1846 31.7463 11.8212 32.2047C12.4131 32.5712 13.1259 32.6885 13.804 32.531L14.525 32.3679C14.009 32.5387 13.5649 32.8772 13.2632 33.3295C13.8415 33.6199 14.5112 33.6693 15.1258 33.4669L15.7352 33.2694C15.2709 33.4704 14.8872 33.821 14.6451 34.2654C15.154 34.458 15.7157 34.458 16.2245 34.2654C15.7342 34.5033 15.3447 34.9082 15.1258 35.4074C15.6111 35.5557 16.1328 35.5315 16.6022 35.3387L16.0271 35.6307C15.4546 35.9295 15.0183 36.4366 14.8082 37.0474C15.3409 37.1599 15.896 37.084 16.379 36.8328L15.7524 37.2277C15.1522 37.62 14.7323 38.2346 14.5851 38.9364C15.1669 39.0036 15.7543 38.8703 16.2503 38.5586L15.555 39.091C14.9561 39.548 14.5565 40.2185 14.4391 40.9628C14.7292 40.9852 15.0209 40.9502 15.2975 40.8597L14.7224 41.3663C14.4047 41.6781 14.1623 42.0582 14.0136 42.4778C13.8648 42.8974 13.8137 43.3454 13.864 43.7877C14.3065 43.8434 14.7558 43.7947 15.1762 43.6456C15.5965 43.4965 15.9761 43.2511 16.2846 42.929L16.7996 42.3452C16.7094 42.622 16.6716 42.9132 16.688 43.2038C17.4349 43.0943 18.1079 42.6929 18.5592 42.0876L19.0914 41.3921C18.7798 41.8882 18.6466 42.4758 18.7137 43.0578C19.3914 42.8968 19.9777 42.4738 20.3446 41.8815L20.7394 41.2547C20.4929 41.7424 20.4174 42.2988 20.5248 42.8346C21.1407 42.6288 21.6499 42.1873 21.9411 41.6068L22.2415 41.0315C22.0543 41.5022 22.0301 42.0222 22.1729 42.5083C22.6859 42.2912 23.0993 41.89 23.3316 41.3835C23.1432 41.8962 23.1432 42.4593 23.3316 42.972C23.7793 42.7342 24.1311 42.349 24.3273 41.8815L24.1299 42.4911C23.9326 43.1094 23.9818 43.7801 24.2672 44.363C24.7241 44.0663 25.0639 43.6202 25.2286 43.1008L25.0655 43.822C24.9164 44.5006 25.0331 45.2105 25.3917 45.8055C25.8531 45.4448 26.1747 44.9348 26.3015 44.363L26.19 45.2216C26.1014 45.9736 26.3075 46.7306 26.765 47.3338C26.9781 47.1457 27.1529 46.9183 27.2801 46.6641L27.2371 47.4283C27.2334 47.8735 27.3311 48.3137 27.523 48.7154C27.7149 49.1171 27.9958 49.4698 28.3444 49.7466C28.697 49.4734 28.9808 49.1214 29.173 48.7189C29.3653 48.3163 29.4607 47.8743 29.4517 47.4283L29.3401 46.6641C29.4687 46.9199 29.6433 47.1498 29.8551 47.3424C30.305 46.7366 30.4964 45.977 30.3873 45.2302L30.2671 44.3716C30.4064 44.9423 30.7365 45.4482 31.2027 45.8055C31.5691 45.2134 31.6863 44.5003 31.5289 43.822L31.3658 43.1008C31.5366 43.6169 31.875 44.0612 32.3272 44.363C32.4721 44.0754 32.5588 43.762 32.5823 43.4407C32.6059 43.1195 32.5659 42.7968 32.4645 42.4911L32.2671 41.8729C32.4669 42.3402 32.8175 42.7272 33.2628 42.972C33.4553 42.463 33.4553 41.9011 33.2628 41.3921C33.5012 41.8821 33.9057 42.2716 34.4044 42.4911C34.5526 42.0057 34.5284 41.4839 34.3357 41.0143L34.6275 41.581C34.9256 42.1543 35.4327 42.5909 36.0438 42.8003C36.1562 42.2674 36.0804 41.7121 35.8292 41.229L36.2241 41.8558C36.6148 42.4536 37.2255 42.8732 37.9236 43.0235C37.9908 42.4414 37.8575 41.8539 37.5459 41.3577L38.0781 42.0532C38.5344 42.653 39.2049 43.053 39.9493 43.1695C39.9717 42.8793 39.9367 42.5875 39.8463 42.3108L40.3527 42.8861C40.6644 43.2039 41.0444 43.4464 41.4638 43.5952C41.8833 43.744 42.3311 43.7951 42.7733 43.7447C42.8289 43.3021 42.7803 42.8526 42.6313 42.4322C42.4822 42.0118 42.2369 41.632 41.9149 41.3234L41.3312 40.8082C41.6079 40.8984 41.899 40.9363 42.1896 40.9198C42.0802 40.1727 41.6788 39.4995 41.0737 39.048L40.3785 38.5157C40.8757 38.8242 41.462 38.9572 42.0437 38.8935C41.8826 38.2156 41.4599 37.629 40.8677 37.2621L40.2411 36.8671C40.726 37.1124 41.2791 37.188 41.8119 37.0818C41.6082 36.4673 41.1702 35.9581 40.5931 35.665L40.018 35.3645C40.4886 35.5518 41.0084 35.576 41.4943 35.4332C41.2801 34.9309 40.8892 34.5246 40.3956 34.2912C40.9056 34.4777 41.465 34.4777 41.975 34.2912C41.7373 33.8434 41.3522 33.4915 40.8849 33.2952L41.4943 33.4841C42.1099 33.6783 42.7765 33.6291 43.3569 33.3467C43.0604 32.8897 42.6144 32.5498 42.0952 32.385L42.8162 32.5482C43.4928 32.6934 44.1994 32.5736 44.7904 32.2133C44.4292 31.7566 43.9239 31.4357 43.3569 31.3032L44.2153 31.4148C44.9614 31.5156 45.7176 31.3249 46.3268 30.8824C46.1378 30.6623 45.9074 30.4814 45.6487 30.3501L46.4127 30.393C46.8577 30.3968 47.2978 30.299 47.6994 30.1071C48.101 29.9151 48.4535 29.6341 48.7302 29.2854C48.4571 28.9327 48.1052 28.6488 47.7028 28.4565C47.3004 28.2642 46.8586 28.1687 46.4127 28.1777" fill="#C9C9C9"/>
<path d="M28.3018 8.88428V29.3111L29.409 11.1854C29.4102 10.7431 29.3112 10.3063 29.1194 9.90772C28.9276 9.50917 28.6481 9.15926 28.3018 8.88428Z" fill="#807E7D"/>
<path d="M13.8901 14.8946L28.3018 29.3111L16.2849 15.7103C15.9722 15.4038 15.5946 15.1715 15.1802 15.0303C14.7657 14.8891 14.3249 14.8428 13.8901 14.8946Z" fill="#807E7D"/>
<path d="M7.88135 29.3113H28.3015L10.1817 28.2036C9.73956 28.2024 9.30287 28.3015 8.90445 28.4933C8.50603 28.6852 8.15624 28.9648 7.88135 29.3113Z" fill="#807E7D"/>
<path d="M13.8898 43.7621L28.3015 29.3113L14.7053 41.3321C14.3876 41.6439 14.1452 42.024 13.9964 42.4436C13.8477 42.8632 13.7966 43.3112 13.8469 43.7535" fill="#807E7D"/>
<path d="M28.3017 49.7553V29.3113L27.1944 47.437C27.1907 47.8822 27.2884 48.3224 27.4803 48.7241C27.6722 49.1259 27.9531 49.4785 28.3017 49.7553Z" fill="#807E7D"/>
<path d="M42.7478 43.7621L28.3018 29.3113L40.3187 42.912C40.6303 43.2298 41.0103 43.4723 41.4298 43.6211C41.8492 43.7699 42.297 43.821 42.7392 43.7706" fill="#807E7D"/>
<path d="M48.7391 29.3113H28.3018L46.4215 30.4189C46.8666 30.4227 47.3066 30.3249 47.7082 30.133C48.1098 29.941 48.4624 29.66 48.7391 29.3113Z" fill="#807E7D"/>
<path d="M42.7478 14.8947L28.3018 29.3111L41.898 17.2902C42.2157 16.9785 42.4581 16.5983 42.6069 16.1788C42.7556 15.7592 42.8067 15.3112 42.7564 14.8689" fill="#807E7D"/>
<path d="M26.7656 11.28L28.345 29.3113L27.624 13.2635C27.6012 12.517 27.2941 11.8075 26.7656 11.28Z" fill="#807E7D"/>
<path d="M14.4392 17.6768L28.3016 29.3113L16.465 18.4496C15.9118 17.9393 15.183 17.6624 14.4307 17.6768" fill="#807E7D"/>
<path d="M10.2764 30.8826L28.3017 29.3027L12.2592 29.9896C11.5129 30.0124 10.8036 30.3196 10.2764 30.8483" fill="#807E7D"/>
<path d="M16.6714 43.1696L28.302 29.3113L17.4439 41.1346C16.9345 41.6885 16.6579 42.4172 16.6714 43.1696Z" fill="#807E7D"/>
<path d="M29.8728 47.334L28.2935 29.3027L28.9801 45.3506C29.0029 46.097 29.31 46.8066 29.8385 47.334" fill="#807E7D"/>
<path d="M42.1555 40.9457L28.3018 29.3113L40.1212 40.173C40.6749 40.6825 41.4033 40.9592 42.1555 40.9457Z" fill="#807E7D"/>
<path d="M46.3188 27.7742L28.2935 29.3541L44.336 28.6328C45.0822 28.61 45.7915 28.3029 46.3188 27.7742Z" fill="#807E7D"/>
<path d="M39.9324 15.4441L28.3018 29.311L39.1599 17.4705C39.67 16.9172 39.9468 16.1881 39.9324 15.4355" fill="#807E7D"/>
<path d="M25.3916 12.8169L28.3014 29.3112L26.3787 14.5771C26.2808 13.9017 25.9313 13.2883 25.4002 12.8598" fill="#807E7D"/>
<path d="M14.5854 19.7032L28.319 29.3113L16.5253 20.2527C15.9737 19.8262 15.2787 19.6293 14.5854 19.7032Z" fill="#807E7D"/>
<path d="M11.813 32.2135L28.3019 29.3027L13.5726 31.2089C12.8974 31.3068 12.2842 31.6565 11.8559 32.1877" fill="#807E7D"/>
<path d="M18.6969 43.0235L28.3018 29.2854L19.2462 41.0916C18.8198 41.6434 18.623 42.3386 18.6969 43.0321" fill="#807E7D"/>
<path d="M31.203 45.8056L28.3018 29.3113L30.1987 44.0454C30.2988 44.7221 30.6515 45.3357 31.1858 45.7627" fill="#807E7D"/>
<path d="M42.01 38.9365L28.2764 29.3284L40.0787 38.3698C40.6303 38.7963 41.3253 38.9932 42.0185 38.9193" fill="#807E7D"/>
<path d="M44.7907 26.4004L28.3018 29.3112L43.031 27.3878C43.7075 27.2877 44.3209 26.9349 44.7477 26.4004" fill="#807E7D"/>
<path d="M37.9238 15.5901L28.3188 29.3282L37.3573 17.5306C37.7897 16.9813 37.9928 16.2859 37.9238 15.5901Z" fill="#807E7D"/>
<path d="M24.2676 14.2593L28.2932 29.3025L25.3233 15.8134C25.1833 15.1816 24.8051 14.628 24.2676 14.2679" fill="#807E7D"/>
<path d="M14.8174 21.5234L28.3021 29.3112L16.6543 21.8669C16.11 21.5177 15.4521 21.3916 14.8174 21.5148" fill="#807E7D"/>
<path d="M13.2549 33.3383L28.2932 29.3113L14.8085 32.2907C14.1769 32.4309 13.6235 32.8091 13.2635 33.3469" fill="#807E7D"/>
<path d="M20.5166 42.8004L28.3018 29.3113L20.8599 40.9629C20.5117 41.5077 20.3857 42.1654 20.508 42.8004" fill="#807E7D"/>
<path d="M32.3277 44.3545L28.2935 29.3113L31.2719 42.809C31.4128 43.4405 31.7908 43.9937 32.3277 44.3545Z" fill="#807E7D"/>
<path d="M41.7864 37.0991L28.3018 29.3113L39.9496 36.747C40.4938 37.0962 41.1517 37.2223 41.7864 37.0991Z" fill="#807E7D"/>
<path d="M43.34 25.2756L28.3018 29.3112L41.795 26.3318C42.4267 26.1916 42.98 25.8134 43.34 25.2756Z" fill="#807E7D"/>
<path d="M36.087 15.822L28.3018 29.3111L35.7351 17.6595C36.0841 17.115 36.2102 16.457 36.087 15.822Z" fill="#807E7D"/>
<path d="M23.332 15.6504L28.3019 29.3112L24.4393 17.007C24.2585 16.4291 23.8619 15.9432 23.332 15.6504Z" fill="#807E7D"/>
<path d="M15.1343 23.1636L28.3014 29.3028L16.8681 23.3439C16.3394 23.0683 15.7258 23.0039 15.1514 23.1636" fill="#807E7D"/>
<path d="M14.645 34.2828L28.3014 29.3113L16.0012 33.1751C15.4231 33.3552 14.937 33.7521 14.645 34.2828Z" fill="#807E7D"/>
<path d="M22.1558 42.4827L28.293 29.3113L22.2845 40.7483C22.0119 41.2783 21.9506 41.892 22.1129 42.4655" fill="#807E7D"/>
<path d="M33.2716 42.9635L28.3018 29.3113L32.1643 41.6155C32.3451 42.1934 32.7417 42.6793 33.2716 42.9721" fill="#807E7D"/>
<path d="M41.4688 35.4505L28.3018 29.3113L39.735 35.3217C40.2648 35.5944 40.8784 35.6558 41.4517 35.4934" fill="#807E7D"/>
<path d="M41.9495 24.3398L28.3018 29.3113L40.6019 25.4475C41.1769 25.2655 41.6595 24.8688 41.9495 24.3398Z" fill="#807E7D"/>
<path d="M34.439 16.1396L28.3018 29.3111L34.3102 17.8741C34.5828 17.3441 34.6442 16.7303 34.4819 16.1568" fill="#807E7D"/>
<path d="M33.2716 15.6504L28.3018 29.3112L33.2459 17.402C33.4622 16.85 33.4622 16.2367 33.2459 15.6847" fill="#807E7D"/>
<path d="M22.1558 16.1311L28.293 29.3025L23.3746 17.3847C23.1444 16.8257 22.708 16.3768 22.1558 16.1311Z" fill="#807E7D"/>
<path d="M14.645 24.3399L28.3014 29.3114L16.3875 24.3399C15.8358 24.1227 15.2224 24.1227 14.6708 24.3399" fill="#807E7D"/>
<path d="M15.1346 35.4505L28.3016 29.3113L16.3792 34.2312C15.8199 34.4607 15.3708 34.8976 15.126 35.4505" fill="#807E7D"/>
<path d="M23.3322 42.9636L28.302 29.3027L23.3322 41.2206C23.1158 41.7725 23.1158 42.3858 23.3322 42.9378" fill="#807E7D"/>
<path d="M34.439 42.4827L28.3018 29.3113L33.2201 41.2291C33.4503 41.7881 33.8867 42.237 34.439 42.4827Z" fill="#807E7D"/>
<path d="M41.9495 34.2828L28.3018 29.3113L40.2071 34.257C40.7587 34.4742 41.3721 34.4742 41.9238 34.257" fill="#807E7D"/>
<path d="M41.4688 23.1636L28.3018 29.3114L40.2157 24.3914C40.7745 24.1612 41.2232 23.7246 41.4688 23.1722" fill="#807E7D"/>
<path d="M32.3277 14.2593L28.2935 29.3026L32.465 16.1226C32.6623 15.5042 32.6131 14.8336 32.3277 14.2507" fill="#807E7D"/>
<path d="M20.5166 15.822L28.3018 29.3111L21.9329 17.0413C21.6348 16.468 21.1277 16.0314 20.5166 15.822Z" fill="#807E7D"/>
<path d="M13.2549 25.2755L28.2932 29.3111L15.1261 25.1381C14.5105 24.9439 13.8439 24.9931 13.2635 25.2755" fill="#807E7D"/>
<path d="M14.8174 37.0991L28.3021 29.3113L16.0362 35.6823C15.4631 35.9805 15.0267 36.4878 14.8174 37.0991Z" fill="#807E7D"/>
<path d="M24.2673 44.3545L28.3016 29.3113L24.13 42.4913C23.9359 43.1071 23.985 43.7739 24.2673 44.3545Z" fill="#807E7D"/>
<path d="M36.087 42.8004L28.3018 29.3113L34.6707 41.5811C34.9695 42.1539 35.4763 42.5902 36.087 42.8004Z" fill="#807E7D"/>
<path d="M43.34 33.3383L28.3018 29.3113L41.4774 33.4842C42.0956 33.6807 42.7657 33.6315 43.3486 33.3468" fill="#807E7D"/>
<path d="M41.7864 21.5234L28.3018 29.3112L40.5676 22.9402C41.1401 22.6413 41.5763 22.1343 41.7864 21.5234Z" fill="#807E7D"/>
<path d="M31.203 12.8169L28.3018 29.3112L31.5292 14.8003C31.6792 14.1218 31.5624 13.4116 31.203 12.8169Z" fill="#807E7D"/>
<path d="M18.6968 15.5901L28.3017 29.3282L20.3276 16.7664C19.9554 16.1792 19.3713 15.7579 18.6968 15.5901Z" fill="#807E7D"/>
<path d="M11.813 26.4004L28.3019 29.3112L13.7958 26.057C13.1175 25.9078 12.4078 26.0246 11.813 26.3832" fill="#807E7D"/>
<path d="M14.5854 38.9365L28.319 29.3284L15.7614 37.2793C15.169 37.6578 14.7472 38.2522 14.5854 38.9365Z" fill="#807E7D"/>
<path d="M25.3918 45.8056L28.3016 29.3113L25.0484 43.8136C24.9021 44.497 25.0251 45.2106 25.3918 45.8056Z" fill="#807E7D"/>
<path d="M37.9238 43.0235L28.3188 29.2854L36.2929 41.83C36.6626 42.4231 37.2468 42.8507 37.9238 43.0235Z" fill="#807E7D"/>
<path d="M44.7907 32.2135L28.3018 29.3113L42.7993 32.5397C43.4803 32.6912 44.1935 32.5744 44.7907 32.2135Z" fill="#807E7D"/>
<path d="M42.01 19.7031L28.2764 29.3112L40.834 21.3345C41.4211 20.9622 41.8422 20.3779 42.01 19.7031Z" fill="#807E7D"/>
<path d="M29.8728 11.28L28.2935 29.3113L30.4136 13.3923C30.5144 12.6459 30.3238 11.8894 29.8814 11.28" fill="#807E7D"/>
<path d="M16.6709 15.4443L28.3015 29.3112L18.5421 16.5606C18.0852 15.9615 17.415 15.5617 16.6709 15.4443Z" fill="#807E7D"/>
<path d="M10.2764 27.7741L28.3017 29.354L12.3879 27.1988C11.6362 27.1103 10.8794 27.3164 10.2764 27.7741Z" fill="#807E7D"/>
<path d="M14.4395 40.9457L28.3018 29.3113L15.5553 39.0739C14.9564 39.531 14.5568 40.2014 14.4395 40.9457Z" fill="#807E7D"/>
<path d="M26.7652 47.334L28.3446 29.3027L26.1901 45.2304C26.1039 45.9795 26.3099 46.733 26.7652 47.334Z" fill="#807E7D"/>
<path d="M39.9324 43.1696L28.3018 29.3113L38.0612 42.062C38.5175 42.6617 39.188 43.0617 39.9324 43.1782" fill="#807E7D"/>
<path d="M46.3188 30.8826L28.2935 29.3027L44.2073 31.415C44.9534 31.5158 45.7096 31.3251 46.3188 30.8826Z" fill="#807E7D"/>
<path d="M42.1555 17.6768L28.3018 29.3112L41.0483 19.5486C41.6471 19.0915 42.0468 18.4211 42.1641 17.6768" fill="#807E7D"/>
<path d="M28.3101 37.8976C28.3101 37.8976 24.602 36.2404 23.3316 35.6995C22.9865 35.5113 22.6974 35.2349 22.4939 34.8986C22.2903 34.5622 22.1795 34.1779 22.1729 33.7847V20.7078H34.4301V33.7847C34.4185 34.1799 34.3019 34.5648 34.0922 34.8998C33.8825 35.2348 33.5873 35.5079 33.237 35.6909C32.001 36.2318 28.3101 37.889 28.3101 37.889" fill="#283A68"/>
<path d="M23.4346 35.5533C24.5762 36.0513 27.8036 37.4938 28.3015 37.7257C28.7993 37.5024 32.0181 36.0513 33.1597 35.5533C33.4838 35.3824 33.757 35.1287 33.9515 34.8181C34.1459 34.5074 34.2548 34.1509 34.267 33.7845V20.9051H22.3274V33.7845C22.3375 34.1502 22.4456 34.5065 22.6404 34.8161C22.8352 35.1257 23.1095 35.3773 23.4346 35.5447V35.5533ZM28.3101 38.0777H28.2414C28.2414 38.0777 24.5247 36.3604 23.3316 35.8453C22.9446 35.6547 22.617 35.3621 22.384 34.9989C22.1511 34.6357 22.0217 34.2159 22.0098 33.7845V20.5444H34.5932V33.7845C34.5838 34.21 34.4601 34.625 34.2351 34.9861C34.01 35.3472 33.692 35.641 33.3142 35.8367C32.0868 36.369 28.4216 38.0262 28.3873 38.0348L28.3101 38.0777Z" fill="#FFDC2E"/>
<path d="M31.9581 29.8265H31.5633C31.5095 29.6205 31.4108 29.429 31.2742 29.2657C31.1377 29.1024 30.9667 28.9714 30.7736 28.882C30.7736 28.882 30.9882 27.1647 31.0912 26.2202C31.2465 25.5599 31.5389 24.9397 31.9495 24.3999L31.9581 29.8265ZM31.9581 32.7716H30.3272C30.3319 32.4012 30.2886 32.0318 30.1985 31.6725C30.5172 31.6573 30.823 31.5422 31.0726 31.3434C31.3222 31.1446 31.5029 30.8722 31.589 30.5649H31.9839L31.9581 32.7716ZM28.6706 32.7716C28.6784 32.556 28.7591 32.3495 28.8994 32.1857C29.0397 32.022 29.2314 31.9107 29.4431 31.87C29.5312 32.1622 29.5718 32.4666 29.5633 32.7716H28.6706ZM28.6706 35.0126V33.4928H29.426C29.3512 34.0672 29.0851 34.5996 28.6706 35.004V35.0126ZM28.293 31.7155L27.4346 31.1488C27.8073 30.5255 28.0959 29.8557 28.293 29.1567C28.4898 29.8558 28.7784 30.5256 29.1513 31.1488L28.293 31.7155ZM27.0312 32.7716C27.0224 32.4665 27.063 32.1621 27.1514 31.87C27.3631 31.9107 27.5548 32.022 27.6951 32.1857C27.8354 32.3495 27.9161 32.556 27.9239 32.7716H27.0312ZM27.8895 35.0126C27.4751 34.6082 27.209 34.0758 27.1342 33.5014H27.8895V35.0126ZM26.2501 32.7888H24.6192V30.5649H25.0484C25.1346 30.8722 25.3152 31.1446 25.5648 31.3434C25.8144 31.5422 26.1202 31.6573 26.4389 31.6725C26.3401 32.0307 26.2882 32.4001 26.2844 32.7716L26.2501 32.7888ZM24.6536 24.3999C25.0642 24.9397 25.3566 25.5599 25.5119 26.2202C25.6149 27.1218 25.8295 28.882 25.8295 28.882C25.6364 28.9714 25.4654 29.1024 25.3289 29.2657C25.1923 29.429 25.0936 29.6205 25.0398 29.8265H24.645L24.6536 24.3999ZM30.353 26.1172L29.9667 29.4916C30.0237 29.4833 30.0815 29.4833 30.1384 29.4916C30.2586 29.4916 30.868 29.6462 30.868 30.2043C30.8658 30.4002 30.7876 30.5877 30.6499 30.7271C30.5122 30.8664 30.3257 30.9468 30.1298 30.9513C29.8981 30.9513 29.8723 30.9513 29.8723 30.9513C29.1118 29.7447 28.7209 28.3419 28.7479 26.9157C28.7479 25.3959 28.8509 24.0049 28.8509 23.2236C28.85 22.6882 28.6583 22.1706 28.3101 21.7639C27.9594 22.1724 27.7674 22.6937 27.7694 23.2322C27.7694 24.0135 27.8724 25.4045 27.8724 26.9243C27.8916 28.3255 27.5072 29.7026 26.7651 30.8912C26.7651 30.8912 26.7651 30.8912 26.5162 30.8912C26.3203 30.8867 26.1338 30.8063 25.9961 30.667C25.8584 30.5276 25.7802 30.3401 25.778 30.1442C25.778 29.5861 26.396 29.4315 26.5162 29.4315C26.5731 29.4233 26.6309 29.4233 26.6878 29.4315L26.3102 26.1086C26.1869 25.4146 25.9112 24.7565 25.5031 24.1819C25.0949 23.6073 24.5643 23.1304 23.9497 22.7857V33.4928H26.4218C26.5879 34.4721 27.1222 35.3508 27.9153 35.9485C27.9153 35.9485 28.3359 36.3091 28.353 36.4294C28.353 36.3091 28.7908 35.9485 28.7908 35.9485C29.5517 35.3359 30.0543 34.4592 30.1985 33.4928H32.6705V22.8372C32.0559 23.182 31.5254 23.6588 31.1172 24.2334C30.709 24.808 30.4334 25.4661 30.3101 26.1601" fill="#FFDC2E"/>
<path d="M28 56.1143C12.5244 56.1143 8.52177 55.3578 5.09091 51.9074C1.64163 48.4939 0.885373 44.5453 0.885373 29.0092C0.885373 13.5285 1.64163 9.543 5.09091 6.09258C8.50327 2.64217 12.5244 1.88567 28 1.88567C43.4756 1.88567 47.4782 2.64217 50.9091 6.09258C54.3584 9.52457 55.1146 13.4731 55.1146 29.0092C55.1146 44.5453 54.3584 48.4939 50.9091 51.9258C47.4782 55.3763 43.4572 56.1143 28 56.1143ZM28 57C43.6785 57 47.9025 56.2066 51.5547 52.5532C55.2253 48.8814 56 44.6744 56 28.9907C56 13.3071 55.2253 9.11863 51.5547 5.42833C47.884 1.79341 43.6601 1 28 1C12.3215 1 8.09747 1.79341 4.44533 5.44678C0.793153 9.11863 0 13.3256 0 29.0092C0 44.6929 0.774701 48.8814 4.44533 52.5716C8.09747 56.2066 12.3215 57 28 57Z" fill="white"/>
</svg>
