<svg viewBox="0 0 156 74" fill="none" xmlns="http://www.w3.org/2000/svg">
<path d="M36.9352 72.6782C16.5211 72.6782 11.2412 71.6806 6.7155 67.1307C2.1655 62.6293 1.16791 57.4224 1.16791 36.9352C1.16791 16.5211 2.1655 11.2655 6.7155 6.7155C11.2168 2.16551 16.5211 1.16792 36.9352 1.16792C57.3494 1.16792 62.6293 2.16551 67.155 6.7155C71.705 11.2412 72.7026 16.4481 72.7026 36.9352C72.7026 57.4224 71.705 62.6293 67.155 67.155C62.6293 71.705 57.3251 72.6782 36.9352 72.6782ZM36.9352 73.8462C57.617 73.8462 63.1889 72.7999 68.0066 67.9823C72.8486 63.1403 73.8705 57.5927 73.8705 36.9109C73.8705 16.2291 72.8486 10.7059 68.0066 5.83957C63.1646 1.04626 57.5927 0 36.9352 0C16.2535 0 10.6815 1.04626 5.8639 5.8639C1.04626 10.7059 0 16.2535 0 36.9352C0 57.617 1.02192 63.1403 5.8639 68.0066C10.6815 72.7999 16.2535 73.8462 36.9352 73.8462Z" fill="white"/>
<path fill-rule="evenodd" clip-rule="evenodd" d="M6.7155 6.7155C2.1655 11.2655 1.16791 16.5211 1.16791 36.9352C1.16791 57.4224 2.1655 62.6293 6.7155 67.1307C11.2412 71.6806 16.5211 72.6782 36.9352 72.6782C57.3251 72.6782 62.6293 71.705 67.155 67.155C71.705 62.6293 72.7026 57.4224 72.7026 36.9352C72.7026 16.4481 71.705 11.2412 67.155 6.7155C62.6293 2.16551 57.3494 1.16792 36.9352 1.16792C16.5211 1.16792 11.2168 2.16551 6.7155 6.7155ZM5.8639 68.0066C1.02192 63.1403 0 57.617 0 36.9352C0 16.2535 1.04626 10.7059 5.8639 5.8639C10.6815 1.04626 16.2535 0 36.9352 0C57.5927 0 63.1646 1.04626 68.0066 5.83957C72.8486 10.7059 73.8705 16.2291 73.8705 36.9109C73.8705 57.5927 72.8486 63.1403 68.0066 67.9823C63.1889 72.7999 57.617 73.8462 36.9352 73.8462C16.2535 73.8462 10.6815 72.7999 5.8639 68.0066Z" fill="#283A68"/>
<path d="M37.3233 37.335H37.4271H37.3233ZM37.3233 37.335H37.381H37.3233ZM37.3233 37.335V37.4387V37.335ZM37.3233 37.335V37.4733V37.335ZM37.3233 37.335V37.4618V37.335ZM37.3233 37.2082L37.2541 37.312L37.3233 37.2082ZM37.2541 37.0353L37.3233 37.2082L37.2541 37.0353ZM37.3348 37.2082V37.0469V37.2082ZM37.3348 37.1391V37.2082V37.1391ZM37.3348 37.2082L37.4963 37.1045L37.3348 37.2082ZM37.3348 37.2082H37.2656H37.3348ZM37.3348 37.2082L37.1618 37.1391L37.3348 37.2082ZM64.2097 35.5601L63.0563 35.6292C63.4345 35.4392 63.7746 35.1813 64.0597 34.8686C63.1642 34.2005 62.0401 33.9145 60.9339 34.0733L59.6421 34.2462C60.4883 34.0497 61.2438 33.5748 61.7875 32.8977C60.9064 32.3515 59.8443 32.1774 58.8347 32.4136L57.762 32.6557C58.5271 32.4012 59.1849 31.898 59.6306 31.2265C58.7717 30.794 57.7762 30.7194 56.8624 31.0191L55.9511 31.3072C56.6435 31.0116 57.2163 30.492 57.5775 29.8319C56.8334 29.5555 56.0147 29.5555 55.2706 29.8319C55.9939 29.474 56.5692 28.8747 56.8969 28.1377C56.18 27.9204 55.41 27.957 54.717 28.2414L55.559 27.8034C56.4094 27.3621 57.0577 26.6112 57.3699 25.7058C56.588 25.5402 55.7729 25.6502 55.063 26.017L55.9742 25.4292C56.8444 24.876 57.4681 24.0093 57.7159 23.0089C56.8576 22.9037 55.9893 23.0992 55.2591 23.5621L56.2856 22.7783C57.1706 22.1022 57.7612 21.1117 57.935 20.0122C57.5133 19.9855 57.0903 20.0403 56.6893 20.1736L57.5429 19.4244C58.014 18.9609 58.3732 18.3961 58.5931 17.773C58.8129 17.1498 58.8877 16.4848 58.8116 15.8285C58.1544 15.7445 57.4866 15.8154 56.8617 16.0355C56.2368 16.2557 55.6721 16.619 55.2129 17.0963L54.4517 17.9607C54.5864 17.5562 54.645 17.1303 54.6247 16.7044C53.5206 16.8677 52.5257 17.46 51.8565 18.3526L51.0606 19.3899C51.516 18.6527 51.711 17.7843 51.6143 16.9234C50.6084 17.1609 49.7375 17.7866 49.1921 18.6638L48.5231 19.7126C48.8787 18.9996 48.9882 18.1891 48.8345 17.4075C47.9229 17.7097 47.1681 18.3603 46.7353 19.217L46.297 20.0583C46.5752 19.3604 46.6117 18.5896 46.4008 17.8685C45.6557 18.1848 45.0525 18.763 44.7052 19.4936C44.9691 18.7478 44.9691 17.9342 44.7052 17.1885C44.04 17.5435 43.5183 18.1177 43.2288 18.8136L43.5172 17.9031C43.8072 16.9887 43.7328 15.9979 43.3096 15.137C42.6292 15.5733 42.1231 16.2339 41.8793 17.0041L42.1215 15.9322C42.2404 15.4159 42.2558 14.8812 42.1667 14.359C42.0776 13.8367 41.8858 13.3373 41.6025 12.8895C40.9195 13.4229 40.4426 14.1764 40.253 15.0217L40.4491 13.7424C40.5955 12.6377 40.3105 11.5192 39.6532 10.619C39.3383 10.8977 39.0799 11.2342 38.8919 11.6102L38.9611 10.4576C38.9711 9.7945 38.8287 9.13791 38.5447 8.53846C38.2607 7.939 37.8429 7.41267 37.3233 7C36.7962 7.40665 36.3722 7.93151 36.0857 8.53217C35.7992 9.13283 35.6581 9.79242 35.6739 10.4576L35.7431 11.6102C35.5529 11.2322 35.2948 10.8924 34.9818 10.6075C34.3133 11.5023 34.0271 12.6255 34.186 13.7309L34.359 15.0217C34.1599 14.1804 33.6849 13.4298 33.0095 12.8895C32.4629 13.7699 32.2886 14.8312 32.525 15.84L32.7672 16.9119C32.5148 16.1431 32.0111 15.4815 31.337 15.0332C30.9041 15.8915 30.8295 16.8862 31.1294 17.7994L31.4177 18.7099C31.122 18.0246 30.6067 17.457 29.9529 17.0963C29.6763 17.8398 29.6763 18.6579 29.9529 19.4014C29.5968 18.6744 28.9968 18.0952 28.2573 17.7648C28.0408 18.4813 28.0775 19.2504 28.3611 19.9431L27.9228 19.1017C27.4812 18.2519 26.7297 17.6041 25.8236 17.2922C25.6579 18.0735 25.7679 18.888 26.135 19.5973L25.5468 18.6753C24.9931 17.8058 24.1258 17.1826 23.1246 16.9349C23.0203 17.7926 23.2159 18.6598 23.6782 19.3899L22.8939 18.3641C22.2172 17.4799 21.226 16.8897 20.1257 16.716C20.0989 17.1374 20.1538 17.56 20.2872 17.9607L19.5374 17.1078C19.0614 16.6404 18.4838 16.289 17.8496 16.0811C17.2154 15.8732 16.5417 15.8144 15.8811 15.9092C15.797 16.5659 15.8679 17.2332 16.0883 17.8576C16.3086 18.4821 16.6721 19.0463 17.1498 19.5051L18.0149 20.2658C17.6101 20.1312 17.1838 20.0726 16.7577 20.0929C16.921 21.1962 17.5138 22.1903 18.4071 22.859L19.4336 23.6428C18.6959 23.1877 17.8268 22.9929 16.9653 23.0895C17.2139 24.0838 17.8436 24.9406 18.7185 25.4753L19.6412 26.0631C18.9278 25.7077 18.1166 25.5983 17.3344 25.7519C17.6379 26.6622 18.2887 27.416 19.1453 27.8496L19.9988 28.2875C19.3005 28.0086 18.5288 27.9721 17.8073 28.1838C18.1239 28.9282 18.7024 29.531 19.4336 29.878C18.6873 29.6144 17.8731 29.6144 17.1268 29.878C17.4784 30.5414 18.049 31.0626 18.7416 31.3533L17.8419 31.0652C16.9267 30.7766 15.9355 30.8509 15.0737 31.2726C15.5103 31.9525 16.1714 32.4581 16.9422 32.7018L15.8811 32.4597C14.8748 32.2379 13.8217 32.4112 12.9398 32.9438C13.4737 33.6263 14.2277 34.1029 15.0737 34.2923L13.7818 34.1194C12.6764 33.9743 11.5574 34.259 10.656 34.9147C10.9349 35.2293 11.2717 35.4875 11.648 35.6753L10.4946 35.6062C9.82995 35.5976 9.17227 35.7417 8.57229 36.0275C7.97231 36.3133 7.44609 36.733 7.03427 37.2543C7.44243 37.7789 7.96823 38.2003 8.56927 38.4846C9.17032 38.7689 9.8298 38.908 10.4946 38.8909L11.648 38.8218C11.2697 39.0119 10.9296 39.2697 10.6445 39.5825C11.5137 40.2632 12.6147 40.5775 13.7126 40.4584L15.0045 40.2855C14.1614 40.4759 13.4063 40.9425 12.8591 41.6109C13.7366 42.1552 14.7944 42.3293 15.8003 42.095L16.873 41.853C16.1037 42.1052 15.4415 42.6086 14.9929 43.2821C15.8518 43.7147 16.8473 43.7893 17.7611 43.4896L18.6724 43.2015C17.98 43.497 17.4072 44.0166 17.046 44.6767C17.7899 44.9541 18.609 44.9541 19.3529 44.6767C18.6296 45.0347 18.0543 45.634 17.7265 46.371C18.447 46.591 19.2216 46.5544 19.9181 46.2672L19.0761 46.7052C18.2294 47.1721 17.5968 47.9488 17.3113 48.872C18.1192 49.0438 18.962 48.9212 19.6874 48.5262L18.7646 49.114C17.8944 49.6672 17.2708 50.5339 17.023 51.5344C17.885 51.6403 18.7571 51.4449 19.4913 50.9811L18.4532 51.7764C17.5683 52.4525 16.9777 53.443 16.8038 54.5425C17.2256 54.5692 17.6485 54.5144 18.0495 54.3811L17.196 55.1303C16.7248 55.5938 16.3656 56.1587 16.1458 56.7818C15.9259 57.4049 15.8512 58.0699 15.9272 58.7262C16.5844 58.8103 17.2523 58.7394 17.8772 58.5192C18.5021 58.299 19.0667 57.9358 19.5259 57.4584L20.2872 56.594C20.1525 56.9986 20.0938 57.4245 20.1141 57.8503C21.2182 57.6871 22.2132 57.0947 22.8824 56.2022L23.6667 55.1649C23.2121 55.9023 23.0172 56.7705 23.1131 57.6313C24.0853 57.3805 24.9236 56.7656 25.4545 55.914L26.0428 54.9805C25.684 55.6923 25.5705 56.5026 25.7198 57.2856C26.6308 56.9822 27.3851 56.332 27.819 55.4761L28.2573 54.6232C27.9791 55.3211 27.9426 56.092 28.1535 56.813C28.8985 56.4967 29.5017 55.9186 29.8491 55.1879C29.5852 55.9337 29.5852 56.7473 29.8491 57.493C30.5149 57.1388 31.0368 56.5643 31.3255 55.8679L31.0371 56.7784C30.7483 57.6929 30.8227 58.6834 31.2447 59.5446C31.9472 59.1417 32.4859 58.5055 32.7672 57.7466L32.525 58.8184C32.2999 59.8276 32.4734 60.8846 33.0095 61.769C33.6925 61.2355 34.1694 60.482 34.359 59.6368L34.186 60.9276C34.0395 62.0323 34.3245 63.1508 34.9818 64.051C35.2967 63.7723 35.5551 63.4358 35.7431 63.0598L35.6739 64.2124C35.6639 64.8755 35.8064 65.5321 36.0903 66.1315C36.3743 66.731 36.7922 67.2573 37.3117 67.67C37.8388 67.2633 38.2628 66.7385 38.5493 66.1378C38.8358 65.5372 38.9769 64.8776 38.9611 64.2124L38.8919 63.0598C39.0822 63.4378 39.3402 63.7776 39.6532 64.0625C39.9857 63.618 40.2272 63.1123 40.3638 62.5743C40.5003 62.0364 40.5293 61.4768 40.4491 60.9276L40.2761 59.6368C40.469 60.475 40.9357 61.2251 41.6025 61.769C42.1491 60.8885 42.3233 59.8272 42.0869 58.8184L41.8793 57.7466C42.1317 58.5153 42.6355 59.177 43.3096 59.6252C43.7412 58.7667 43.8158 57.7724 43.5172 56.8591L43.2288 55.9486C43.5254 56.6399 44.0452 57.2121 44.7052 57.5737C44.9818 56.8302 44.9818 56.0121 44.7052 55.2686C45.0634 55.9913 45.6632 56.5662 46.4008 56.8937C46.621 56.1738 46.5843 55.3998 46.297 54.7039L46.7353 55.5452C47.1769 56.395 47.9284 57.0428 48.8345 57.3547C49.0002 56.5735 48.8902 55.759 48.5231 55.0496L49.1113 55.9717C49.665 56.8412 50.5323 57.4644 51.5335 57.712C51.6405 56.8506 51.4448 55.9788 50.9799 55.2456L51.7642 56.2713C52.4409 57.1556 53.4321 57.7457 54.5324 57.9195C54.5849 57.4744 54.5456 57.0234 54.4171 56.594L55.1668 57.4469C55.6307 57.9177 56.196 58.2766 56.8196 58.4963C57.4432 58.716 58.1087 58.7907 58.7655 58.7147C58.8496 58.058 58.7786 57.3907 58.5583 56.7663C58.338 56.1418 57.9744 55.5776 57.4967 55.1188L56.5971 54.4042C57.0019 54.5388 57.4281 54.5974 57.8543 54.5771C57.6909 53.4738 57.0981 52.4797 56.2049 51.811L55.1668 51.0157C55.9048 51.47 56.7737 51.6647 57.6351 51.5689C57.3975 50.5639 56.7713 49.6937 55.8935 49.1486L54.9707 48.5608C55.6842 48.9162 56.4953 49.0256 57.2776 48.872C56.974 47.9617 56.3233 47.2079 55.4667 46.7743L54.6132 46.3364C55.3118 46.6135 56.083 46.65 56.8047 46.4401C56.4881 45.6957 55.9095 45.0929 55.1783 44.7459C55.9247 45.0095 56.7389 45.0095 57.4852 44.7459C57.1336 44.0825 56.563 43.5613 55.8704 43.2706L56.7816 43.5587C57.6968 43.8473 58.688 43.773 59.5498 43.3513C59.1365 42.671 58.501 42.154 57.7505 41.8876L58.8232 42.1296C59.8375 42.3443 60.8957 42.1584 61.776 41.6109C61.2415 40.9291 60.4877 40.4528 59.6421 40.2625L60.9224 40.4353C62.0279 40.5817 63.1473 40.2969 64.0482 39.6401C63.7693 39.3255 63.4326 39.0672 63.0563 38.8794L64.2097 38.9486C64.8733 38.9585 65.5304 38.8162 66.1303 38.5324C66.7302 38.2487 67.257 37.8311 67.67 37.312C67.263 36.7853 66.7377 36.3616 66.1366 36.0753C65.5355 35.789 64.8754 35.648 64.2097 35.6638" fill="#C9C9C9"/>
<path d="M37.3235 7.03426V37.3347L38.9614 10.4919C38.9713 9.82875 38.8289 9.17217 38.5449 8.57271C38.2609 7.97326 37.8431 7.44693 37.3235 7.03426" fill="#807E7D"/>
<path d="M15.8813 15.9091L37.3236 37.3349L19.48 17.1769C19.0161 16.7061 18.4509 16.3472 17.8273 16.1275C17.2037 15.9078 16.5382 15.8331 15.8813 15.9091Z" fill="#807E7D"/>
<path d="M7 37.335H37.3236L10.4603 35.6869C9.79568 35.6783 9.138 35.8224 8.53802 36.1082C7.93804 36.394 7.41182 36.8137 7 37.335" fill="#807E7D"/>
<path d="M15.8814 58.7606L37.3236 37.3348L17.1502 55.1647C16.679 55.6282 16.3198 56.193 16.1 56.8162C15.8801 57.4393 15.8053 58.1043 15.8814 58.7606Z" fill="#807E7D"/>
<path d="M37.3235 67.6352V37.3348L35.6857 64.1891C35.6757 64.8522 35.8182 65.5088 36.1021 66.1083C36.3861 66.7077 36.804 67.2341 37.3235 67.6467" fill="#807E7D"/>
<path d="M58.7657 58.7606L37.3235 37.3348L55.167 57.4813C55.6309 57.9521 56.1962 58.311 56.8198 58.5307C57.4434 58.7504 58.1089 58.8251 58.7657 58.7491" fill="#807E7D"/>
<path d="M67.6471 37.3348H37.3235L64.1984 38.9714C64.862 38.9814 65.5191 38.839 66.119 38.5553C66.7189 38.2715 67.2456 37.854 67.6586 37.3348" fill="#807E7D"/>
<path d="M58.7657 15.9091L37.3235 37.3349L57.4854 19.5051C57.9573 19.042 58.3169 18.4773 58.5368 17.854C58.7567 17.2308 58.8311 16.5655 58.7542 15.9091" fill="#807E7D"/>
<path d="M34.9821 10.6189L37.2889 37.3349L36.3085 13.5579C36.2611 12.4442 35.786 11.3916 34.9821 10.6189Z" fill="#807E7D"/>
<path d="M16.7581 20.0929L37.3237 37.3811L19.78 21.2454C18.9591 20.4862 17.8764 20.0733 16.7581 20.0929Z" fill="#807E7D"/>
<path d="M10.5872 39.6747L37.3236 37.3696L13.5284 38.3838C12.4139 38.4312 11.3605 38.9059 10.5872 39.7092" fill="#807E7D"/>
<path d="M20.0682 57.8734L37.3696 37.3235L21.2216 54.8538C20.4629 55.6747 20.0498 56.7561 20.0682 57.8734Z" fill="#807E7D"/>
<path d="M39.6651 64.0508L37.3583 37.3348L38.3733 61.1118C38.4207 62.2255 38.8958 63.2781 39.6997 64.0508" fill="#807E7D"/>
<path d="M57.8776 54.5772L37.312 37.289L54.8556 53.4246C55.6772 54.1828 56.7595 54.5956 57.8776 54.5772Z" fill="#807E7D"/>
<path d="M64.0599 34.9953L37.3235 37.3004L61.1187 36.2862C62.2332 36.2388 63.2866 35.7641 64.0599 34.9607" fill="#807E7D"/>
<path d="M54.5789 16.785L37.2775 37.3349L53.4255 19.8047C54.1853 18.9844 54.5985 17.9025 54.5789 16.785Z" fill="#807E7D"/>
<path d="M33.0098 12.8894L37.3236 37.3349L34.4631 15.4942C34.3317 14.4716 33.8112 13.5388 33.0098 12.8894Z" fill="#807E7D"/>
<path d="M16.9773 23.1012L37.3238 37.3351L19.8493 23.9079C19.0313 23.2803 18.0028 22.9914 16.9773 23.1012Z" fill="#807E7D"/>
<path d="M12.8595 41.611L37.3237 37.3004L15.4662 40.1818C14.4463 40.3072 13.5133 40.8187 12.8595 41.611Z" fill="#807E7D"/>
<path d="M23.0788 57.6657L37.3236 37.3348L23.8862 54.7959C23.258 55.6133 22.9689 56.641 23.0788 57.6657Z" fill="#807E7D"/>
<path d="M41.6027 61.7688L37.3235 37.3348L40.184 59.1755C40.3104 60.1885 40.8176 61.1156 41.6027 61.7688Z" fill="#807E7D"/>
<path d="M57.6699 51.5687L37.3235 37.3348L54.7979 50.7619C55.616 51.3896 56.6444 51.6785 57.6699 51.5687Z" fill="#807E7D"/>
<path d="M61.7762 33.0243L37.3235 37.3348L59.1809 34.4765C60.2044 34.3452 61.1379 33.8252 61.7877 33.0243" fill="#807E7D"/>
<path d="M51.5683 17.004L37.3235 37.3349L50.7609 19.8739C51.389 19.0564 51.6782 18.0288 51.5683 17.004Z" fill="#807E7D"/>
<path d="M31.3373 15.0331L37.312 37.3349L32.9059 17.3267C32.7044 16.3862 32.1464 15.5601 31.3488 15.0216" fill="#807E7D"/>
<path d="M17.3116 25.7866L37.3236 37.312L20.0222 26.2937C19.2122 25.7745 18.2326 25.5887 17.2886 25.775" fill="#807E7D"/>
<path d="M15.0047 43.305L37.3235 37.3348L17.3 41.749C16.3593 41.9516 15.5329 42.5089 14.9932 43.305" fill="#807E7D"/>
<path d="M25.7663 57.3202L37.3006 37.3235L26.2622 54.6117C25.7438 55.4215 25.5579 56.3999 25.7432 57.3433" fill="#807E7D"/>
<path d="M43.2982 59.625L37.3235 37.3348L41.7411 57.3315C41.9438 58.2715 42.5015 59.0972 43.2982 59.6366" fill="#807E7D"/>
<path d="M57.324 48.8719L37.312 37.3465L54.6134 48.3763C55.4239 48.8943 56.403 49.0801 57.3471 48.895" fill="#807E7D"/>
<path d="M59.6308 31.3531L37.3235 37.3348L57.347 32.9206C58.2878 32.7181 59.1141 32.1607 59.6539 31.3646" fill="#807E7D"/>
<path d="M48.8694 17.3383L37.3351 37.335L48.3734 20.0468C48.8918 19.237 49.0777 18.2586 48.8924 17.3153" fill="#807E7D"/>
<path d="M29.9532 17.0963L37.3237 37.335L31.5565 19.1017C31.2994 18.2524 30.7254 17.5344 29.9532 17.0963Z" fill="#807E7D"/>
<path d="M17.7845 28.2297L37.3236 37.3348L20.3682 28.4948C19.5741 28.0745 18.6475 27.9795 17.7845 28.2297Z" fill="#807E7D"/>
<path d="M17.0693 44.6996L37.3235 37.3348L19.0763 43.0975C18.2205 43.3628 17.501 43.9495 17.0693 44.7341" fill="#807E7D"/>
<path d="M28.2115 56.8589L37.3236 37.3348L28.4768 54.2887C28.0563 55.0822 27.9611 56.0081 28.2115 56.8704" fill="#807E7D"/>
<path d="M44.6939 57.5735L37.3235 37.3348L43.0906 55.5681C43.3561 56.4232 43.9433 57.1421 44.7285 57.5735" fill="#807E7D"/>
<path d="M56.8626 46.4399L37.3235 37.3348L54.2904 46.2209C55.0845 46.6411 56.0111 46.7362 56.8741 46.486" fill="#807E7D"/>
<path d="M57.5777 29.9703L37.3235 37.3351L55.5707 31.5723C56.4265 31.307 57.146 30.7203 57.5777 29.9357" fill="#807E7D"/>
<path d="M46.4356 17.8108L37.3235 37.3349L46.2164 20.3925C46.637 19.599 46.7321 18.6731 46.4817 17.8108" fill="#807E7D"/>
<path d="M44.6939 17.0963L37.3235 37.335L44.6593 19.7125C44.996 18.8809 44.996 17.951 44.6593 17.1193" fill="#807E7D"/>
<path d="M28.2114 17.8108L37.3235 37.3349L30.0684 19.7125C29.7284 18.8827 29.0791 18.2174 28.2576 17.8569" fill="#807E7D"/>
<path d="M17.0693 29.9704L37.3235 37.3351L19.6876 30.005C18.8553 29.6685 17.9247 29.6685 17.0924 30.005" fill="#807E7D"/>
<path d="M17.7845 46.4399L37.3236 37.3348L19.6877 44.6304C18.8573 44.9702 18.1915 45.619 17.8307 46.4399" fill="#807E7D"/>
<path d="M29.9531 57.5735L37.3235 37.3348L29.9877 54.9803C29.6511 55.8119 29.6511 56.7418 29.9877 57.5735" fill="#807E7D"/>
<path d="M46.4356 56.8589L37.3235 37.3348L44.6247 55.0033C44.9647 55.8331 45.614 56.4984 46.4356 56.8589Z" fill="#807E7D"/>
<path d="M57.5777 44.6996L37.3235 37.3348L54.9825 44.665C55.8148 45.0014 56.7454 45.0014 57.5777 44.665" fill="#807E7D"/>
<path d="M56.8626 28.23L37.3235 37.3351L55.0055 30.0856C55.8359 29.7458 56.5018 29.097 56.8626 28.2761" fill="#807E7D"/>
<path d="M43.2982 15.033L37.3235 37.3348L43.5059 17.7991C43.7958 16.8848 43.7215 15.8939 43.2982 15.033Z" fill="#807E7D"/>
<path d="M25.7665 17.3384L37.3008 37.3351L27.8773 19.1479C27.4356 18.2981 26.6841 17.6503 25.778 17.3384" fill="#807E7D"/>
<path d="M15.0048 31.3534L37.3236 37.3236L17.773 31.1575C16.8578 30.8689 15.8666 30.9432 15.0048 31.365" fill="#807E7D"/>
<path d="M17.3116 48.8719L37.3236 37.3465L19.1341 46.7743C18.2792 47.2133 17.6266 47.9645 17.3116 48.8719Z" fill="#807E7D"/>
<path d="M31.3372 59.6253L37.312 37.3235L31.1411 56.8592C30.8523 57.7737 30.9267 58.7641 31.3487 59.6253" fill="#807E7D"/>
<path d="M48.8694 57.3202L37.3351 37.3235L46.7817 55.4992C47.2233 56.349 47.9749 56.9968 48.8809 57.3087" fill="#807E7D"/>
<path d="M59.6308 43.305L37.3235 37.3348L56.8626 43.5124C57.7777 43.801 58.7689 43.7267 59.6308 43.305Z" fill="#807E7D"/>
<path d="M57.324 25.7866L37.312 37.312L55.5131 27.8957C56.3636 27.4544 57.0118 26.7034 57.324 25.7981" fill="#807E7D"/>
<path d="M41.6027 12.8894L37.3235 37.3349L42.1102 15.84C42.3285 14.8279 42.1466 13.7706 41.6027 12.8894Z" fill="#807E7D"/>
<path d="M23.0786 17.004L37.3234 37.3349L25.4547 18.7444C24.901 17.8748 24.0336 17.2516 23.0325 17.004" fill="#807E7D"/>
<path d="M12.8595 33.0245L37.3237 37.3351L15.8123 32.5405C14.806 32.3186 13.7529 32.4919 12.871 33.0245" fill="#807E7D"/>
<path d="M16.9773 51.5687L37.3238 37.3348L18.719 49.1484C17.8488 49.7016 17.2251 50.5683 16.9773 51.5687Z" fill="#807E7D"/>
<path d="M33.0098 61.769L37.3236 37.3235L32.5254 58.83C32.3015 59.8392 32.4749 60.8958 33.0098 61.7806" fill="#807E7D"/>
<path d="M51.5683 57.6657L37.3235 37.3348L49.1461 55.9138C49.6998 56.7834 50.5671 57.4066 51.5683 57.6542" fill="#807E7D"/>
<path d="M61.7762 41.6107L37.3235 37.3348L58.8349 42.1179C59.8441 42.3329 60.8974 42.1513 61.7762 41.6107Z" fill="#807E7D"/>
<path d="M57.6699 23.1011L37.3235 37.3351L55.9167 25.4754C56.7869 24.9222 57.4106 24.0555 57.6584 23.055" fill="#807E7D"/>
<path d="M39.6651 10.6189L37.3583 37.3349L40.4495 13.7423C40.5959 12.6376 40.3109 11.519 39.6536 10.6189" fill="#807E7D"/>
<path d="M20.0684 16.785L37.3698 37.3349L22.8481 18.4332C22.1707 17.5498 21.1798 16.9599 20.0799 16.785" fill="#807E7D"/>
<path d="M10.5872 34.9953L37.3236 37.3004L13.7129 34.2C12.6074 34.0537 11.488 34.3385 10.5872 34.9953Z" fill="#807E7D"/>
<path d="M16.7581 54.5772L37.3237 37.289L18.4075 51.7995C17.5225 52.4757 16.9319 53.4662 16.7581 54.5656" fill="#807E7D"/>
<path d="M34.9822 64.0508L37.2891 37.3348L34.1864 60.9274C34.0399 62.0321 34.325 63.1506 34.9822 64.0508Z" fill="#807E7D"/>
<path d="M54.5789 57.8734L37.2775 37.3235L51.7991 56.2253C52.4758 57.1095 53.467 57.6997 54.5673 57.8734" fill="#807E7D"/>
<path d="M64.0599 39.6747L37.3235 37.3696L60.9341 40.4584C62.0396 40.6047 63.1591 40.3199 64.0599 39.6631" fill="#807E7D"/>
<path d="M57.8776 20.0928L37.312 37.381L56.2282 22.8589C57.1131 22.1828 57.7038 21.1923 57.8776 20.0928Z" fill="#807E7D"/>
<path d="M37.3351 50.0591C37.3351 50.0591 31.8448 47.5927 29.9993 46.7974C29.4702 46.5224 29.0256 46.1093 28.7129 45.6019C28.4001 45.0945 28.2308 44.5119 28.223 43.916V24.5763H46.4126V43.916C46.3966 44.504 46.2234 45.077 45.9111 45.5755C45.5988 46.0741 45.1586 46.4801 44.6363 46.7513C42.8024 47.5466 37.3236 50.013 37.3236 50.013" fill="#283A68"/>
<path d="M30.0686 46.5901C31.7641 47.3277 36.5508 49.4715 37.3006 49.8057C38.0388 49.4715 42.814 47.3277 44.5095 46.5901C45.0018 46.3459 45.4197 45.9745 45.7199 45.5145C46.0201 45.0544 46.1916 44.5225 46.2166 43.9738V24.8185H28.4653V43.9738C28.4755 44.513 28.6294 45.0397 28.9113 45.4996C29.1931 45.9595 29.5926 46.336 30.0686 46.5901ZM37.3006 50.3244H37.1968C37.1968 50.3244 31.6834 47.8464 29.8725 47.0627C29.2956 46.7669 28.8134 46.3151 28.481 45.7588C28.1486 45.2025 27.9793 44.564 27.9924 43.9162V24.3229H46.6549V43.9162C46.6477 44.5476 46.4676 45.165 46.1341 45.7014C45.8006 46.2378 45.3266 46.6727 44.7633 46.9589C42.9524 47.7427 37.5082 50.1976 37.4621 50.2206L37.3006 50.3244Z" fill="#FFDC2E"/>
<path d="M42.7563 38.1535H42.1681C42.0899 37.8507 41.9461 37.5689 41.7467 37.3279C41.5474 37.0869 41.2975 36.8926 41.0147 36.7589C41.0147 36.7589 41.3261 34.1541 41.4876 32.8172C41.7122 31.8272 42.1446 30.8961 42.7563 30.0857V38.1535ZM42.7563 42.5216H40.3341C40.3282 41.9722 40.2506 41.4259 40.1035 40.8965C40.5751 40.8662 41.0261 40.6919 41.3954 40.3971C41.7646 40.1024 42.0344 39.7014 42.1681 39.2484H42.7563V42.5216ZM37.8773 42.5216C37.89 42.2013 38.0109 41.8947 38.2204 41.6519C38.4299 41.4091 38.7155 41.2444 39.0308 41.1847C39.1594 41.6183 39.2178 42.0696 39.2038 42.5216H37.8773ZM37.8773 45.841V43.5359H39.0308C38.9077 44.3892 38.5015 45.1766 37.8773 45.7718V45.841ZM37.3122 40.8965L36.0549 40.0552C36.6022 39.1313 37.0249 38.1392 37.3122 37.1047C37.5992 38.1393 38.0219 39.1314 38.5694 40.0552L37.3122 40.8965ZM35.4436 42.464C35.4288 42.0119 35.4872 41.5605 35.6166 41.127C35.9318 41.1867 36.2175 41.3514 36.427 41.5943C36.6365 41.8371 36.7574 42.1437 36.77 42.464H35.4436ZM36.747 45.7833C36.1228 45.1881 35.7166 44.4007 35.5936 43.5474H36.747V45.7833ZM34.3363 42.464H31.9141V39.2023H32.5024C32.6361 39.6553 32.9058 40.0563 33.2751 40.351C33.6444 40.6458 34.0953 40.8201 34.567 40.8504C34.4202 41.3799 34.3427 41.9261 34.3363 42.4755V42.464ZM31.9141 30.0857C32.5255 30.8849 32.9618 31.8038 33.1944 32.7826C33.3559 34.1196 33.6673 36.7243 33.6673 36.7243C33.3845 36.8581 33.1346 37.0523 32.9353 37.2933C32.7359 37.5343 32.5921 37.8162 32.5139 38.1189H31.9141V30.0857ZM40.3687 32.6904L39.8036 37.6233C39.8877 37.611 39.9732 37.611 40.0573 37.6233C40.2303 37.6233 41.1415 37.8538 41.1415 38.6836C41.1419 38.9796 41.0283 39.2643 40.8243 39.4789C40.6204 39.6935 40.3416 39.8214 40.0458 39.8362C39.6998 39.8362 39.6652 39.8362 39.6652 39.8362C38.546 38.0806 37.9573 36.0397 37.9696 33.9582C37.9696 31.6531 38.1196 29.6477 38.1196 28.4836C38.1212 27.6897 37.8389 26.9212 37.3237 26.3168C36.8076 26.9207 36.5252 27.6895 36.5278 28.4836C36.5278 29.6362 36.6778 31.6992 36.6778 33.9582C36.6901 36.0397 36.1014 38.0806 34.9822 39.8362C34.9822 39.8362 34.9822 39.8362 34.6131 39.8362C34.3173 39.8214 34.0386 39.6935 33.8346 39.4789C33.6306 39.2643 33.517 38.9796 33.5174 38.6836C33.5174 37.8538 34.4286 37.6233 34.6016 37.6233C34.6895 37.61 34.779 37.61 34.8669 37.6233L34.3017 32.6904C34.1228 31.6662 33.72 30.6941 33.1218 29.8434C32.5237 28.9927 31.7451 28.2844 30.8414 27.769V43.5359H34.5093C34.7576 44.9898 35.5543 46.2933 36.7354 47.1779C36.7354 47.1779 37.3583 47.7081 37.3814 47.881C37.3814 47.7081 38.0273 47.1779 38.0273 47.1779C39.2084 46.2933 40.0051 44.9898 40.2534 43.5359H43.9098V27.7806C43.0061 28.2959 42.2275 29.0042 41.6294 29.8549C41.0312 30.7056 40.6283 31.6778 40.4495 32.7019" fill="#FFDC2E"/>
<path d="M118.935 73.8462C98.2535 73.8462 92.6815 72.7999 87.8639 67.9823C83.0219 63.1403 82 57.5927 82 36.9352C82 16.2535 83.0463 10.7059 87.8639 5.8639C92.6815 1.04626 98.2535 0 118.935 0C139.617 0 145.189 1.04626 150.007 5.8639C154.849 10.7059 155.87 16.2535 155.87 36.9352C155.87 57.617 154.849 63.1403 150.007 68.0066C145.165 72.7999 139.593 73.8462 118.935 73.8462Z" fill="#0C2B63"/>
<path d="M97.854 46H90.704V44.108L92.618 43.228V33.064L90.704 32.184V30.292H97.854V32.184L95.94 33.064V43.228L97.854 44.108V46Z" fill="white"/>
<path d="M100.531 46V30.292H112.961V46H109.639V33.064H103.853V46H100.531Z" fill="white"/>
<path d="M129.793 46H126.471V39.224H120.245V46H116.923V30.292H120.245V36.452H126.471V30.292H129.793V46Z" fill="white"/>
<path d="M133.746 46V30.292H146.176V46H142.854V33.064H137.068V46H133.746Z" fill="white"/>
</svg>
