<svg width="246" height="325" viewBox="0 0 246 325" fill="none" xmlns="http://www.w3.org/2000/svg">
<g clip-path="url(#clip0)">
<path d="M79.6131 70.1381V57.5945C79.6131 57.5945 122.097 76.1567 164.536 56.6016V68.1117" stroke="#0C2B63" stroke-miterlimit="10" stroke-linecap="round"/>
<path d="M84.2033 60.0063V75.2451C81.2654 71.3544 82.5737 73.4416 79.6129 69.5509C77.458 72.1258 76.1836 75.1918 75.9405 78.3861C76.4413 81.6769 77.9579 84.7826 80.3244 87.3632C83.0557 90.9095 86.7739 94.8205 90.4004 99.0963C93.1776 105.52 98.7779 111.721 104.172 118.003C110.254 123.353 117.438 126.98 123.543 126.98C129.648 126.98 136.741 123.373 142.823 118.003C148.217 113.058 152.463 105.844 156.594 99.0963C160.404 94.6178 164.191 90.7068 166.9 87.2214C169.225 84.688 170.69 81.6245 171.123 78.3861C171.056 76.4752 170.558 74.5952 169.66 72.8556C168.761 71.1161 167.48 69.5518 165.89 68.2539C162.47 71.7191 163.985 70.3817 160.129 73.9482V59.9658" stroke="#0C2B63" stroke-linecap="round" stroke-linejoin="round"/>
<path d="M167.427 45.9231L165.27 55.2244C116.519 46.1865 79.5206 56.1161 79.5206 56.1161L77.2254 45.6191" stroke="#0C2B63" stroke-linecap="round" stroke-linejoin="round"/>
<path d="M130.108 35.0005L133.918 31.6366L130.108 28.293V23.5309H124.737L120.927 20.1873L117.117 23.5309H111.746V28.293L107.936 31.6366L111.746 35.0005V39.7424H117.117L120.927 43.1062L124.737 39.7424H130.108V35.0005Z" stroke="#0C2B63" stroke-linecap="round" stroke-linejoin="round"/>
<path d="M108.647 32.001C98.3419 33.6019 88.2889 37.4723 77.2489 45.5781" stroke="#0C2B63" stroke-miterlimit="10" stroke-linecap="round"/>
<path d="M167.198 46.511C157.692 39.7494 146.584 34.9636 134.698 32.5083" stroke="#0C2B63" stroke-miterlimit="10" stroke-linecap="round"/>
<path d="M166.863 46.1962L177.528 41.3373L178.884 35.7731C178.884 35.7731 171.85 3.8573 121.996 1.78052H120.18C70.1878 3.56341 63.1544 35.5968 63.1544 35.5968L66.0045 41.2981L76.6466 46.157" stroke="#0C2B63" stroke-miterlimit="10" stroke-linecap="round"/>
<path d="M148.721 112.126C147.864 118.621 145.521 124.895 141.836 130.567C137.039 137.355 129.212 141.611 124.231 141.611C119.251 141.611 109.978 135.39 106.627 130.567C102.952 125.124 100.607 119.064 99.7415 112.774" stroke="#0C2B63" stroke-linecap="round" stroke-linejoin="round"/>
<path d="M162.608 124.224L146.335 118.53C152.761 120.881 175.576 129.209 181.956 132.127L187.006 141.084C195.567 147.164 204.518 153.04 211.84 158.228C212.85 157.093 213.814 155.938 214.801 154.783C221.249 162.37 222.616 175.304 222.616 185.605C222.616 192.254 218.039 192.119 215.124 192.119C203.772 192.119 200.067 192.119 192.447 192.119C170.184 192.119 148.182 192.119 125.517 192.119V142.077" stroke="#0C2B63" stroke-miterlimit="10"/>
<path d="M190.77 135.917C198.892 140.007 206.266 145.158 212.643 151.196" stroke="#0C2B63" stroke-miterlimit="10"/>
<path d="M57.189 135.917C49.0671 140.007 41.6925 145.158 35.3157 151.196" stroke="#0C2B63" stroke-miterlimit="10"/>
<path d="M63.5465 171.46H97.9746V177.54L88.3806 183.619H73.1404L63.5465 177.54V171.46Z" stroke="#0C2B63" stroke-miterlimit="10"/>
<path d="M150.765 171.46H185.193V177.54L175.599 183.619H160.359L150.765 177.54V171.46Z" stroke="#0C2B63" stroke-miterlimit="10"/>
<path d="M120.927 142.077V192.12C98.6554 192.12 74.7085 192.12 52.7569 192.12C40.4209 192.12 35.5227 192.12 27.9032 192.12C24.9653 191.228 24.0932 186.099 24.069 181.208C24.022 171.717 25.4115 162.319 31.7809 154.702C32.8596 155.796 33.8695 156.931 34.9024 158.066C43.6471 152.129 52.2542 146.171 59.7366 141.003L64.8778 131.844C71.3962 129.007 94.6467 120.557 100.408 118.53" stroke="#0C2B63" stroke-miterlimit="10"/>
<path d="M87.5543 123.414L91.3185 157.397C91.3185 157.397 109.68 143.212 121.546 141.611" stroke="#0C2B63" stroke-miterlimit="10"/>
<path d="M160.313 122.927L156.457 156.91C156.457 156.91 138.486 143.272 126.62 141.631" stroke="#0C2B63" stroke-miterlimit="10"/>
</g>
<path d="M3.495 210.05C2.7956 205.727 2.28078 202.536 2.23262 200.074C2.18473 197.626 2.60191 195.988 3.68701 194.714C4.7721 193.439 6.32162 192.766 8.74625 192.422C11.1848 192.076 14.4162 192.075 18.7961 192.075H227.417C231.752 192.075 234.951 192.076 237.367 192.418C239.769 192.757 241.308 193.422 242.392 194.682C243.477 195.941 243.905 197.562 243.884 199.988C243.863 202.428 243.389 205.59 242.745 209.878L225.95 321.695H21.5545L3.495 210.05Z" stroke="#0C2B63"/>
<path d="M18.5042 323.827C18.5042 323.527 18.7478 323.283 19.0484 323.283H229.128C229.429 323.283 229.672 323.527 229.672 323.827C229.672 324.128 229.429 324.372 229.128 324.372H19.0484C18.7478 324.372 18.5042 324.128 18.5042 323.827Z" fill="#0C2B63"/>
<path d="M89.7734 261.305H96.2812V262.531H88V261.406L94.2344 252.391H88.1016V251.156H96.0312V252.258L89.7734 261.305Z" fill="#0C2B63"/>
<path d="M106.923 257.211C106.923 258.326 106.736 259.299 106.361 260.133C105.986 260.961 105.455 261.594 104.767 262.031C104.08 262.469 103.278 262.688 102.361 262.688C101.465 262.688 100.671 262.469 99.9781 262.031C99.2854 261.589 98.7464 260.961 98.3609 260.148C97.9807 259.331 97.7854 258.385 97.775 257.312V256.492C97.775 255.398 97.9651 254.432 98.3453 253.594C98.7255 252.755 99.262 252.115 99.9547 251.672C100.653 251.224 101.449 251 102.345 251C103.257 251 104.059 251.221 104.752 251.664C105.449 252.102 105.986 252.74 106.361 253.578C106.736 254.411 106.923 255.383 106.923 256.492V257.211ZM105.431 256.477C105.431 255.128 105.16 254.094 104.619 253.375C104.077 252.651 103.319 252.289 102.345 252.289C101.397 252.289 100.65 252.651 100.103 253.375C99.5615 254.094 99.2828 255.094 99.2672 256.375V257.211C99.2672 258.518 99.5406 259.547 100.087 260.297C100.64 261.042 101.397 261.414 102.361 261.414C103.33 261.414 104.08 261.062 104.611 260.359C105.142 259.651 105.416 258.638 105.431 257.32V256.477Z" fill="#0C2B63"/>
<path d="M118.073 257.211C118.073 258.326 117.886 259.299 117.511 260.133C117.136 260.961 116.605 261.594 115.917 262.031C115.23 262.469 114.428 262.688 113.511 262.688C112.615 262.688 111.821 262.469 111.128 262.031C110.435 261.589 109.896 260.961 109.511 260.148C109.131 259.331 108.935 258.385 108.925 257.312V256.492C108.925 255.398 109.115 254.432 109.495 253.594C109.876 252.755 110.412 252.115 111.105 251.672C111.803 251.224 112.599 251 113.495 251C114.407 251 115.209 251.221 115.902 251.664C116.599 252.102 117.136 252.74 117.511 253.578C117.886 254.411 118.073 255.383 118.073 256.492V257.211ZM116.581 256.477C116.581 255.128 116.31 254.094 115.769 253.375C115.227 252.651 114.469 252.289 113.495 252.289C112.547 252.289 111.8 252.651 111.253 253.375C110.711 254.094 110.433 255.094 110.417 256.375V257.211C110.417 258.518 110.691 259.547 111.237 260.297C111.79 261.042 112.547 261.414 113.511 261.414C114.48 261.414 115.23 261.062 115.761 260.359C116.292 259.651 116.566 258.638 116.581 257.32V256.477Z" fill="#0C2B63"/>
<path d="M122.411 251.156L126.13 260.438L129.848 251.156H131.794V262.531H130.294V258.102L130.434 253.32L126.7 262.531H125.552L121.825 253.344L121.973 258.102V262.531H120.473V251.156H122.411Z" fill="#0C2B63"/>
<path fill-rule="evenodd" clip-rule="evenodd" d="M128.9 231H80C78.3431 231 77 232.343 77 234V267C77 275.284 83.7157 282 92 282H140.9C142.557 282 143.9 280.657 143.9 279V246C143.9 237.716 137.184 231 128.9 231ZM80 230C77.7909 230 76 231.791 76 234V267C76 275.837 83.1634 283 92 283H140.9C143.109 283 144.9 281.209 144.9 279V246C144.9 237.163 137.737 230 128.9 230H80Z" fill="#0C2B63"/>
<path fill-rule="evenodd" clip-rule="evenodd" d="M164.819 236.526L150.559 244.91C149.643 245.449 149.08 246.433 149.08 247.496V263.858C149.08 264.86 149.58 265.795 150.412 266.352L164.672 275.887C166.666 277.22 169.34 275.791 169.34 273.393V239.112C169.34 236.792 166.819 235.35 164.819 236.526ZM150.053 244.048C148.83 244.767 148.08 246.079 148.08 247.496V263.858C148.08 265.194 148.746 266.441 149.857 267.183L164.117 276.719C166.774 278.496 170.34 276.591 170.34 273.393V239.112C170.34 236.019 166.979 234.096 164.313 235.664L150.053 244.048Z" fill="#0C2B63"/>
<defs>
<clipPath id="clip0">
<rect width="201.565" height="194.957" fill="white" transform="translate(22.1883)"/>
</clipPath>
</defs>
</svg>
